<svg xmlns="http://www.w3.org/2000/svg" width="600" height="280" class="oscilloscope-svg" viewBox="0 0 600 280"><rect width="600" height="260" x="0" y="20" fill="white"/><style>.horizontal-line-wrap path, .vertical-line-wrap path {	stroke: #ddd;	stroke-dasharray: 4, 4;}.oscilloscope-svg.reverse {	background-color: #000;}.oscilloscope-svg .rod-text {	text-anchor: middle;	stroke: white;	dominant-baseline: ideographic;	font-size: 10px;}.oscilloscope-svg.reverse .rod-text {	stroke: #000;}.oscilloscope-svg.reverse .x-axis, .oscilloscope-svg.reverse .y-axis {	color: #fff;}.oscilloscope-svg.reverse .hide-rect-wrap {	fill: #000;}.oscilloscope-svg.reverse .rod-a {	fill: yellow;	stroke: yellow;}.oscilloscope-svg.reverse .rod-b {	fill: #4ef3bc;	stroke: #4ef3bc;}.oscilloscope-svg.reverse .rod-a .rod-a-caret {	fill: yellow;}.oscilloscope-svg.reverse .rod-b .rod-b-caret {	fill: #4ef3bc;}.hide-rect-wrap {	fill: #fff;}.oscilloscope-svg .rod-a-caret {	fill: red;	stroke: none;}.rod-a, .rod-b {	cursor: pointer;	stroke-width: 1px;}.rod-a {	stroke: red;}.rod-b {	stroke: blue;}.oscilloscope-svg .rod-b-caret {	fill: blue;	stroke: none;}.channel-a {	fill: none;	stroke: red;	stroke-width: 1;}.channel-b {	fill: none;	stroke: blue;	stroke-width: 1;}</style><g class="horizontal-line-wrap"><path d="M0 140.5L600 140.5"/><path d="M0 100.5L600 100.5"/><path d="M0 60.5L600 60.5"/><path d="M0 20.5L600 20.5"/><path d="M0 180.5L600 180.5"/><path d="M0 220.5L600 220.5"/></g><g class="vertical-line-wrap"><path d="M20,20L20,260"/><path d="M80,20L80,260"/><path d="M140,20L140,260"/><path d="M200,20L200,260"/><path d="M260,20L260,260"/><path d="M320,20L320,260"/><path d="M380,20L380,260"/><path d="M440,20L440,260"/><path d="M500,20L500,260"/><path d="M560,20L560,260"/></g><g class="channel-a" transform="translate(0, 0)"><path d="M20.00000599999983,140.0000301592856L20.00001199999966,140.0000603185712L20.00002399999932,140.0001206371424L20.000047999998642,140.0002412742848L20.000095999997285,140.00048254856964L20.00019199999457,140.00096509713927L20.00038399998914,140.00193019427843L20.00076799997828,140.00386038855606L20.00153599995656,140.00772077710593L20.003071999913118,140.0154415541619L20.006143999826236,140.03088310792427L20.01228799965247,140.06176621265243L20.024575999304943,140.12353239973604L20.049151998609887,140.24706459492165L20.098303997219773,140.49412755344173L20.196607994439546,140.98824201573603L20.393215988879092,141.976379304374L20.786431977758184,143.95192085855183L20.884735974977957,144.44557720351784L21.081343969417503,145.4325234817735L21.474559958296595,147.40458440498276L21.572863955516368,147.8971418460231L21.769471949955914,148.88161601631936L22.162687938835006,150.8476364909426L22.26099193605478,151.3384556678831L22.457599930494325,152.31917984154248L22.850815919373417,154.27660789071723L22.94911991659319,154.76505169972341L23.145727911032736,155.74075285572098L23.53894389991183,157.68704765591278L23.6372478971316,158.17248207647702L23.833855891571147,159.14189371387508L24.22707188045024,161.07452889297247L24.325375877670012,161.5563238108994L24.52198387210956,162.51818759281858L24.91519986098865,164.43465450947008L25.013503858208423,164.9121845347911L25.21011185264797,165.8652519217843L25.60332784152706,167.76306292171978L25.701631838746835,168.2357082004753L25.89823983318638,169.17874207118436L26.29145582206547,171.05543371629437L26.389759819285246,171.52258073513036L26.58636781372479,172.45435699212106L26.979583802603884,174.30749325810274L27.077887799823657,174.76853564063669L27.274495794263203,175.68784479932862L27.667711783142295,177.51502023774702L27.766015780362068,177.96935953166974L27.962623774801617,178.87500829029796L28.355839763680706,180.67385115095894L28.45414376090048,181.1208976048509L28.650751755340025,182.01171039342142L29.043967744219117,183.7798857030026L29.14227174143889,184.21905903185586L29.338879735878436,185.09387953808476L29.732095724757528,186.82909213102863L29.8303997219773,187.25982226948108L30.027007716416847,188.1175149397363L30.42022370529594,189.81751243747112L30.518527702515712,190.23924027977517L30.715135696955258,191.07869179307266L31.10835168583435,192.74126752769425L31.206655683054123,193.1534456534594L31.40326367749367,193.97356636660027L31.79647966637276,195.59656224521916L31.894783663592534,195.99865562998679L32.09139165803208,196.79838099195985L32.48460764691117,198.37969029799632L32.582911644130945,198.7711770077237L32.77951963857049,199.5494689415371L33.17273562744958,201.08703906932737L33.271039624669356,201.46741093787986L33.4676476191089,202.22325918802875L33.860863607987994,203.71509430719306L33.95916760520777,204.08385759596507L34.15577559964731,204.81628103978528L34.548991588526405,206.26044468589927L34.64729558574618,206.61712072470772L34.843903580185724,207.32516864591406L35.23711956906482,208.71978623412076L35.33542356628459,209.0639120425388L35.532031560724135,209.74666536529475L35.92524754960323,211.08992662359384L36.023551546823,211.42105551191906L36.22015954126255,212.07762799383553L36.61337553014164,213.36778931289257L36.71167952736141,213.68549146196875L36.90828752180096,214.31503084448389L37.30150351068005,215.55041754090797L37.39980750789982,215.85428056004838L37.59641550233937,216.45596967469476L37.98963149121846,217.63497816484772L38.087935488438234,217.92460762713563L38.28454348287778,218.49766545625914L38.67775947175687,219.61876533777428L38.776063468976645,219.8937852920453L38.97267146341619,220.4374679825989L39.36588745229528,221.4992040209071L39.464191449515056,221.75925747974992L39.6607994439546,222.27285930884574L40.054015432833694,223.27385332613113L40.84044741059188,225.16953733684102L41.037055405031424,225.62101732460096L41.430271393910516,226.49670983572292L42.2167033716687,228.13774620047548L42.413311366108246,228.52476094792206L42.80652735498734,229.27060668622238L43.59295933274552,230.64847763447727L43.78956732718507,230.96901834833483L44.18278331606416,231.58114601455776L44.969215293822344,232.68869973126482L46.54207924933871,234.43077778554797L48.53822706011255,235.71893866700998L51.25578961047982,235.7925392944008L53.844257056037605,234.06179982275626L54.36914963233307,233.4988539316126L55.418934784924,232.1615858692952L55.681381073071734,231.78359554675677L56.2062736493672,230.9756950269525L57.25605880195813,229.15441838950903L57.51850509010586,228.65678865824054L58.043397666401326,227.61140310701336L58.1746208104752,227.33968546696985L58.43706709862293,226.78389379003613L58.96195967491839,225.62325624033957L59.09318281899226,225.3229568524672L59.35562910714,224.71028864237888L59.88052168343546,223.43708336979407L60.011744827509325,223.10889675437113L60.27419111565706,222.44076896538422L60.799083691952525,221.05794058756885L60.93030683602639,220.70262576132546L61.192753124174125,219.9805836123669L61.71764570046959,218.49133027886268L61.84886884454345,218.10970899955774L62.11131513269119,217.33542240050554L62.63620770898665,215.7431883961871L62.76743085306052,215.33614326208016L63.02987714120825,214.5114029516634L63.55476971750372,212.81987073093563L63.68599286157759,212.3883431395493L63.94843914972532,211.51505654380009L64.47333172602077,209.7281382139666L64.60455487009466,209.27312618486042L64.86700115824237,208.353313005696L65.39189373453785,206.47514127919533L65.52311687861172,205.99769714578665L65.78556316675946,205.03348468992456L66.31045574305492,203.06840332636037L66.44167888712877,202.5696313021299L66.70412517527652,201.5632495611391L66.76973674731344,201.3098302484908L66.90095989138732,200.80082387628624L67.16340617953504,199.77422442460102L67.22901775157197,199.5158033212083L67.36024089564583,198.99685694592017L67.62268718379357,197.95063343878655L67.6882987558305,197.68735998272243L67.81952189990437,197.15877369728145L68.0819681880521,196.09353113801666L68.14757976008903,195.82555757334092L68.2788029041629,195.2876370451823L68.54124919231063,194.2039914353171L68.60686076434757,193.9314727240378L68.73808390842143,193.38452901834182L69.00053019656917,192.28310700140327L69.06614176860609,192.00620073386628L69.19736491267996,191.45055013367767L69.45981120082769,190.33198863281774L69.52542277286463,190.0508549365763L69.65664591693849,189.486818759906L69.91909220508623,188.35176460958576L69.98470377712314,188.06656605680314L70.11592692119703,187.49447047081856L70.37837320934474,186.34358004276118L70.44398478138169,186.0544815561994L70.57520792545554,185.47465738861078L70.83765421360329,184.30859621223883L70.90326578564022,184.01576496988815L71.03448892971409,183.42854751763963L71.29693521786182,182.2479898952173L71.36254678989874,181.95159523362182L71.4937699339726,181.3573240689979L71.75621622212034,180.1629526856998L71.82182779415727,179.86316600203443L71.95305093823114,179.26218477629462L72.21549722637887,178.05469030542702L72.2811087984158,177.75168495838312L72.41233194248967,177.14434120303724L72.6747782306374,175.92442190664013L72.74038980267433,175.61837311617677L72.8716129467482,175.00501804201693L73.13405923489594,173.7733793670774L73.19967080693286,173.46446411309623L73.33089395100673,172.8454524071008L73.59334023915446,171.60280657761194L73.6589518111914,171.2912034976145L73.79017495526526,170.6668931178421L74.052621243413,169.4139587229426L74.11823281544991,169.099848008729L74.24945595952379,168.47059997732077L74.51190224767151,167.20810155575396L74.57751381970846,166.89166484922256L74.70873696378231,166.25784304363282L74.97118325193006,164.98651066476504L75.03679482396697,164.6679309528741L75.16801796804086,164.02990189544934L75.43046425618859,162.7504707370902L75.49607582822551,162.42993224604112L75.62729897229937,161.78806489207008L75.88974526044711,160.50127481533886L75.95535683248404,160.17896290404286L76.08657997655791,159.53362842839945L76.34902626470564,158.2402235498827L76.41463783674257,157.91632460277322L76.54586098081643,157.26789618527584L76.80830726896417,155.9686244467246L76.8739188410011,155.64332576597565L77.00514198507497,154.99217837558734L77.2675882732227,153.68779111140222L77.33319984525963,153.36128080861667L77.4644229893335,152.70779098661035L77.72686927748123,151.39904248936492L77.79248084951817,151.0715093767946L77.92370399359203,150.41605501900926L78.18615028173977,149.10370210326252L78.25176185377669,148.775335584623L78.38298499785056,148.11829572293664L78.64543128599828,146.8030972875872L78.71104285803523,146.47408724853068L78.84226600210908,145.8158418316762L79.10471229025683,144.49855842111123L79.17032386229374,144.16909511942077L79.30154700636763,143.5100247932716L79.56399329451534,142.19141815756421L79.62960486655228,141.86169211313256L79.76082801062614,141.2021780005853L80.02327429877391,139.88301065499456L80.0888858708108,139.5532125396517L80.22010901488466,138.8936360202328L80.48255530303244,137.5746708042616L80.54816687506934,137.24499133151411L80.6793900191432,136.58573382083847L80.94183630729091,135.26773345710325L81.00744787932788,134.93836327184994L81.13867102340174,134.27980600105798L81.40111731154946,132.9635326542268L81.46672888358643,132.6346622225137L81.59795202766028,131.97718601781574L81.860398315808,130.66340085386872L81.92600988784497,130.3352203527475L82.05723303191883,129.67920541520203L82.31967932006654,128.36866816126891L82.38529089210344,128.04136736882288L82.51651403617736,127.38719305447626L82.77896032432508,126.08066155950658L82.84457189636197,125.75442974510676L82.97579504043583,125.1024743456218L83.23824132858363,123.80070414214089L83.30385290062051,123.47572995699664L83.43507604469437,122.82637048089651L83.6975223328421,121.53011434810111L83.76313390487906,121.20658571616809L83.89435704895291,120.56019767082222L84.15680333710064,119.27020519926816L84.2224149091376,118.94830920857697L84.35363805321145,118.30526638305531L84.61608434135918,117.02228354118913L84.68169591339614,116.70220633565725L84.81291905747,116.06288058457764L85.07536534561773,114.78764928736291L85.14097691765461,114.46957595915254L85.27220006172847,113.83433698764736L85.53464634987627,112.5675946675349L85.60025792191315,112.25170915001908L85.73148106598701,111.62092429994436L85.9939273541348,110.36340348043453L86.0595389261717,110.04988844183345L86.19076207024555,109.42392247934492L86.45320835839328,108.1763503513888L86.51881993043024,107.8653870891375L86.6500430745041,107.24460199375591L86.91248936265183,106.00769999523999L86.97810093468878,105.69946833114892L87.10932407876264,105.08422308643694L87.37177036691035,103.85870648499477L87.43738193894733,103.55338466126355L87.56860508302118,102.94403504723505L87.8310513711689,101.73061252662691L87.8966629432058,101.42837710277166L88.02788608727965,100.82527549015364L88.29033237542744,99.62464874045347L88.35594394746434,99.32567449120705L88.4871670915382,98.7291696376729L88.74961337968598,97.54203294949951L88.81522495172288,97.24649276374402L88.94644809579674,96.6569296122363L89.20889438394445,95.48396947526359L89.27450595598143,95.1920342560532L89.40572910005528,94.60975373531215L89.668175388203,93.45164844129039L89.73378696023995,93.1634870070227L89.86501010431381,92.58882583443628L90.12745639246154,91.44624508495377L90.1930679644985,91.16202407174654L90.32429110857235,90.59531455863578L90.58673739672008,89.46891907784828L90.65234896875698,89.18880284317845L90.78357211283084,88.63037270263032L91.04601840097862,87.52081385518193L91.11162997301552,87.24496438284163L91.24285311708938,86.69513654020162L91.50529940523717,85.60305595455765L91.57091097727405,85.3316327609835L91.70213412134791,84.79072516711614L91.96458040949564,83.71675436452654L92.0301919815326,83.44991440655554L92.16141512560645,82.91823985398207L92.42386141375418,81.86299988328932L92.48947298579114,81.60089746739482L92.620696129865,81.07876340941351L92.88314241801272,80.04286448791657L92.94875399004968,79.78565118097694L93.07997713412354,79.27335955387093L93.34242342227127,78.25740071445279L93.8673159985667,76.26064926588728L93.99853914264057,75.76892537160347L94.26098543078834,74.79459733197177L94.78587800708378,72.8830611431419L94.91710115115764,72.41304222081448L95.17954743930542,71.48259836745115L95.70444001560085,69.66069836193941L95.83566315967471,69.2134714523213L96.09810944782244,68.32906367813717L96.62300202411794,66.60101347258691L96.7542251681918,66.17761290398587L97.01667145633952,65.34128663150989L97.54156403263502,63.71108279054292L97.67278717670888,63.31248778666901L97.9352334648566,62.526177237477725L98.4601260411521,60.997590030601316L98.59134918522595,60.624722445857714L98.85379547337368,59.89024616718575L99.37868804966912,58.46681084906601L99.50991119374298,58.12053303652149L99.77235748189077,57.43958969539915L100.2972500581862,56.12459832966687L100.42847320226005,55.80571114664059L100.69091949040784,55.17987560128552L101.21581206670328,53.976369446784474L101.34703521077714,53.68561040265547L101.60948149892486,53.11633006020401L102.13437407522036,52.02709253729088L103.18415922781129,50.048723802067144L103.44660551595902,49.59636984749005L103.97149809225446,48.74295691916916L105.02128324484539,47.24349875849305L105.28372953299312,46.912253515933855L105.80862210928862,46.30255557303394L106.85840726187956,45.29587151126324L108.95797756706138,44.14286112091608L111.41237478874467,44.26239546432271L114.09898739756073,46.20255007307918L114.643455272471,46.82346260478539L115.73239102229155,48.29188588561766L116.00462495974664,48.70577014974151L116.54909283465693,49.58909746500365L117.6380285844775,51.57539626743113L117.91026252193261,52.11714702709543L118.45473039684283,53.2541021553688L118.59084736557044,53.54939321401315L118.8630813030256,54.15313385373571L119.40754917793579,55.41281523452369L119.5436661466634,55.73851760997994L119.81590008411848,56.40274575529821L120.36036795902875,57.782018742673216L120.49648492775636,58.13732194298666L120.76871886521144,58.86038469969861L121.31318674012172,60.355817050778796L121.44930370884931,60.739836924014696L121.7215376463044,61.51993499131288L122.26600552121468,63.12780540720428L122.40212248994223,63.53958634161029L122.67435642739737,64.37477848954012L123.21882430230764,66.09108587557864L123.35494127103517,66.5296031775706L123.62717520849033,67.41781107767133L124.1716430834006,69.23828449992098L124.30776005212813,69.70244694397485L124.57999398958329,70.64146034108254L125.12446186449357,72.56156965431285L125.26057883322109,73.05022219841791L125.53281277067623,74.03770441076057L125.60087125504003,74.28667692648384L125.73698822376758,74.78712221894074L126.00922216122272,75.79792465656936L126.07728064558646,76.05267153145701L126.21339761431406,76.5645981913726L126.48563155176919,77.59809192527055L126.55369003613295,77.85845465386632L126.68980700486053,78.38154415655299L126.96204094231561,79.43708613900526L127.03009942667941,79.70290272162566L127.16621639540696,80.23682959678928L127.4384503328621,81.31376306149181L127.5065088172259,81.58486810502387L127.64262578595344,82.12930013927425L127.91485972340857,83.2269550099789L127.98291820777237,83.5031798307885L128.11903517649992,84.05777827434514L128.39126911395505,85.17547158178633L128.4593275983188,85.45664431067473L128.5954445670464,86.02106408813935L128.8676785045015,87.15810039498268L128.9357369888653,87.44404608412512L129.0718539575929,88.01793600919015L129.34408789504795,89.17360784273887L129.41214637941175,89.46414857453794L129.5482633481393,90.04715156849767L129.82049728559446,91.22073986088765L129.88855576995826,91.51569485867518L130.02467273868578,92.10744817260252L130.29690667614094,93.29822270821171L130.3649651605047,93.59740844872968L130.50108212923226,94.19754388918139L130.7733160666874,95.40476375897566L130.84137455105113,95.70799408656531L130.97749151977874,96.31613824467507L131.2497254572338,97.53905230720738L131.3177839415976,97.84613854963683L131.45390091032516,98.46191303345267L131.72613484778032,99.69976038222913L131.7941933321441,100.01051146808703L131.9303103008716,100.63353313800997L132.20254423832677,101.8855435749316L132.27060272269057,102.19976615251284L132.40671969141812,102.82964735968915L132.67895362887327,104.09504187427513L132.74701211323702,104.41254043188573L132.88312908196463,105.04888925940517L133.15536301941972,106.32688051349899L133.22342150378347,106.6474575011053L133.35953847251108,107.28987800785467L133.63177240996617,108.5796708255121L133.69983089432998,108.90312677765775L133.8359478630575,109.55121924467855L134.10818180051263,110.85201110693214L134.17624028487643,111.17814476684677L134.31235725360398,111.83150594604336L134.58459119105913,113.14248749023588L134.65264967542294,113.47109593505905L134.78876664415046,114.12931930010282L135.06100058160558,115.44967482347892L135.12905906596933,115.78055359052007L135.26517603469694,116.44322958979305L135.53740997215203,117.7721375570357L135.60546845651584,118.10508077099223L135.74158542524341,118.77179708241337L136.01381936269848,120.10843063680957L136.0818778470623,120.44323113786442L136.21799481578984,121.11357292543948L136.490228753245,122.45710040335666L136.5582872376088,122.79354987607445L136.69440420633634,123.46710004801025L136.96663814379147,124.81668549636393L137.03469662815525,125.15457459930624L137.1708135968828,125.83091406752825L137.44304753433795,127.18571776391823L137.5111060187017,127.52483625989802L137.64722298742927,128.20354420081017L137.91945692488434,129.56272317600246L137.98751540924815,129.90286006289492L138.1236323779757,130.5835141792193L138.39586631543082,131.94622274164792L138.46392479979463,132.2871663836773L138.60004176852217,132.96934316721075L138.8722757059773,134.33473342917353L138.9403341903411,134.6762716885951L139.07645115906865,135.35954668371932L139.3486850965238,136.72676908894005L139.41674358088756,137.06868945803367L139.55286054961516,137.75263752581463L139.82509448707026,139.1208413780436L139.893152971434,139.4629311113373L140.0292699401616,140.14712669405003L140.3015038776167,141.51546068637361L140.3695623619805,141.85750693301588L140.50567933070806,142.54152431892982L140.7779132681632,143.90913706346026L140.845971752527,144.2509269996574L140.9820887212545,144.93434058791723L141.25432265870967,146.3003811455327L141.32238114307347,146.64170210696906L141.458498111801,147.3240866724071L141.73073204925615,148.68770508221252L141.79879053361987,149.02834469637236L141.93490750234747,149.70927565408675L142.20714143980263,151.0696234622659L142.27519992416637,151.40936978057303L142.41131689289395,152.08842345010783L142.68355083034902,153.44465423783785L142.75160931471282,153.7832958675313L142.88772628344037,154.46004973649363L143.15996022089553,155.81131964659335L143.22801870525933,156.14864588225817L143.36413567398688,156.82267886920863L143.63636961144198,158.16814713119294L143.70442809580578,158.50394808586233L143.84054506453333,159.1748408023152L144.11277900198849,160.5136702555289L144.18083748635223,160.84773699127737L144.31695445507984,161.51507200264723L144.5891883925349,162.8464296171527L144.6572468768987,163.17855427509932L144.7933638456263,163.84191636043215L145.0655977830814,165.164973755327L145.1336562674452,165.4949496849665L145.2697732361727,166.15392609529326L145.54200717362787,167.4678600541354L145.61006565799164,167.79548194191756L145.7461826267192,168.44966265706967L146.01841656417434,169.75365564008877L146.08647504853815,170.07871963716627L146.2225920172657,170.72769762089365L146.4948259547208,172.0209382736706L146.56288443908454,172.34324212273546L146.69900140781215,172.98661357596714L146.97123534526725,174.26829723426505L147.03929382963105,174.58764039539432L147.1754107983586,175.22500500748563L147.44764473581372,176.49433419791814L147.51570322017753,176.81051797335166L147.65182018890505,177.4414791711605L147.9240541263602,178.6976641073856L147.992112610724,179.01049176515733L148.12822957945153,179.634656959795L148.40046351690668,180.87691603392648L148.46852200127043,181.18619293027214L148.60463896999804,181.80317376137506L148.87687290745316,183.03073403030464L148.94493139181688,183.33626773077123L149.0810483605445,183.94568030814187L149.35328229799958,185.1577779744705L149.4213407823634,185.45937837365003L149.5574577510909,186.0608435161164L149.82969168854606,187.2567244033946L149.89775017290987,187.55420384320917L150.03386714163742,188.14734731455397L150.30610107909254,189.32626733653655L150.37415956345635,189.61944072300088L150.51027653218387,190.20389346481437L150.78251046963902,191.3651190884363L150.85056895400277,191.6538040068245L150.98668592273037,192.2292023681354L151.25891986018544,193.37201106992183L151.32697834454925,193.65602789826698L151.46309531327682,194.2220138618089L151.73532925073192,195.34569457743478L151.80338773509573,195.62486659829153L151.93950470382325,196.18108800326408L152.2117386412784,197.28494156998377L152.2797971256422,197.55909508038314L152.41591409436975,198.10520584156893L152.68814803182488,199.18854543324073L152.75620651618868,199.45750985276914L152.8923234849162,199.9931701758709L153.16455742237136,201.0553217303054L153.2326159067351,201.31892970724155L153.3687328754627,201.84380630030446L153.64096681291778,202.88410893867132L153.70902529728158,203.14219645411347L153.84514226600913,203.6559627349023L154.11737620346426,204.673769172934L154.66184407837454,206.66975726795067L154.7979610471021,207.16035102807135L155.07019498455722,208.13127959589866L155.6146628594675,210.03141415854924L155.75077982819502,210.4976145831547L156.02301376565018,211.41924917990698L156.56748164056046,213.21880183271486L156.70359860928798,213.65944880839515L156.97583254674313,214.5294959984629L157.52030042165342,216.22398865635014L157.65641739038097,216.63798565800852L157.9286513278361,217.4542803781284L158.47311920274637,219.0394963918771L158.60923617147392,219.4258132113713L158.88147010892908,220.18632415826374L159.42593798383933,221.65831880740933L159.56205495256688,222.01599411716603L159.834288890022,222.7188288023186L160.3787567649323,224.07393911136387L160.51487373365984,224.4020828565881L160.78710767111497,225.04549231560625L161.3315755460252,226.28034616912876L161.4676925147528,226.57814178265502L161.73992645220792,227.16052492746115L162.28439432711815,228.27204946143198L162.42051129584576,228.53875589570538L162.6927452333009,229.05866349875595L163.2372131082111,230.0440927471882L164.32614885803167,231.79468243613007L164.59838279548683,232.1859163599093L165.1428506703971,232.91211836539514L166.23178642021762,234.13747388293018L168.40965791985866,235.6673549043566L171.2077449439072,235.80810400464756L173.7660878054315,234.13956789304498L174.28496243933364,233.59391107733467L175.32271170713798,232.29581560959713L175.582149024089,231.9285568870668L176.10102365799122,231.14322096147248L177.13877292579554,229.37136915386085L177.39821024274656,228.88696602321136L177.91708487664872,227.86904654349445L178.04680353512433,227.60440295954112L178.30624085207535,227.0630041381623L178.8251154859775,225.93211343227804L178.9548341444531,225.63944718013818L179.2142714614041,225.04227625182705L179.7331460953063,223.80097017968723L179.86286475378188,223.48094269723242L180.1223020707329,222.8293492930614L180.64117670463506,221.48043325788643L180.77089536311064,221.1337678205038L181.0303326800617,220.4292245685986L181.54920731396385,218.9757471765899L181.67892597243946,218.60322726254975L181.93836328939045,217.8473264598888L182.4572379232926,216.29257263025164L182.58695658176816,215.89504015001444L182.84639389871924,215.0894901637712L183.3652685326214,213.43697370466185L183.49498719109695,213.015327098125L183.754424508048,212.16194850468796L184.2732991419502,210.41540417186113L184.40301780042572,209.9705963778478L184.6624551173768,209.07131784824176L185.18132975127895,207.23469290434744L185.3110484097545,206.76772920692602L185.57048572670558,205.8245831479355L186.08936036060774,203.90202844154197L186.2190790190833,203.41396419804107L186.47851633603435,202.42908215888747L186.54337566527215,202.18105454484498L186.6730943237477,201.68285078599186L186.93253164069878,200.67792975837662L186.9973909699365,200.4249427433911L187.12710962841206,199.91688099924914L187.38654694536314,198.89248885420005L187.45140627460088,198.63468539875532L187.5811249330764,198.1170527700388L187.8405622500275,197.07376838152132L187.9054215792653,196.81129416782454L188.03514023774085,196.2843831636609L188.2945775546919,195.22279608146238L188.35943688392965,194.95579943112017L188.4891555424052,194.41990780375588L188.74859285935628,193.3406179203365L188.813452188594,193.06924971054033L188.94317084706955,192.5246802870841L189.20260816402066,191.42829749858353L189.26746749325844,191.15271107685024L189.397186151734,190.59977158814831L189.65662346868507,189.48691544973946L189.7214827979228,189.20726654725613L189.85120145639834,188.64626945399658L190.11063877334942,187.51756882978097L190.17549810258717,187.23401547340282L190.3052167610627,186.66527778954716L190.56465407801377,185.52137049719008L190.62951340725158,185.23407292014087L190.7592320657271,184.65791603378253L191.01866938267815,183.49944848408842L191.08352871191596,183.2085690354144L191.21324737039149,182.62531852716543L191.47268468734256,181.4529453587975L191.5375440165803,181.1586484116255L191.66726267505584,180.56863387063422L191.92669999200692,179.38301758018457L191.99155932124467,179.08546943883627L192.12127797972025,178.48902427653962L192.38071529667127,177.29083484415895L192.44557462590907,176.99020365017407L192.5752932843846,176.3876649118901L192.8347306013357,175.17757942268835L192.89958993057346,174.87403505980944L193.02930858904898,174.26574323427633L193.28874590600006,173.04444549570866L193.3536052352378,172.73815949388143L193.4833238937134,172.1244583208505L193.7427612106644,170.8926384763044L193.80762053990222,170.58378391474793L193.93733919837777,169.96502019073986L194.19677651532885,168.72337432954168L194.26163584456657,168.41212573894296L194.39135450304212,167.7886491212764L194.6507918199932,166.5378788853384L194.71565114923095,166.2244121492268L194.84536980770648,165.59657495843032L195.10480712465755,164.33738714575944L195.16966645389536,164.0218794011166L195.2993851123709,163.3900364218361L195.55882242932196,162.12314258712945L195.6236817585597,161.8057721242909L195.75340041703527,161.17028040480403L196.01283773398634,159.89639645735625L196.07769706322406,159.57734261926143L196.20741572169962,158.93856126971315L196.4668530386507,157.65840706886314L196.5317123678885,157.3378501497103L196.66143102636406,156.69614013918329L196.9208683433151,155.4104390875288L196.98572767255285,155.08856023089254L197.1154463310284,154.44428418342716L197.37488364797946,153.15376281803682L197.4397429772172,152.8307439145057L197.56946163569276,152.18426590418463L197.82889895264384,150.88965348603926L197.89375828188165,150.56567707043115L198.02347694035717,149.91736241564473L198.28291425730825,148.61939051753896L198.347773586546,148.2946396657524L198.47749224502155,147.6448547227607L198.7369295619726,146.34425681589838L198.80178889121035,146.01891504145829L198.9315075496859,145.36802699736688L199.19094486663698,144.06553803688362L199.25580419587476,143.7397891872395L199.3855228543503,143.08816585250554L199.64496017130142,141.78452186215293L199.70981950053914,141.4585500147884L199.83953815901467,140.80655961537462L200.09897547596577,139.50249727160025L200.16383480520352,139.17648663001285L200.29355346367905,138.5244975993067L200.55299078063013,137.22075381496552L200.6178501098679,136.89488860457504L200.74756876834346,136.24326937519038L201.00700608529448,134.94058088312266L201.07186541453228,134.61504524716702L201.2015840730078,133.96416404274677L201.46102138995892,132.66326697945735L201.52588071919664,132.33824487493533L201.65559937767216,131.68846950207157L201.91503669462327,130.3900989917465L201.97989602386102,130.06577408546522L202.1096146823366,129.4174717258554L202.36905199928762,128.12236146495053L202.43391132852543,127.7989170297372L202.56362998700095,127.15245403269373L202.82306730395203,125.86133587532956L202.88792663318978,125.5389546864659L203.0176452916653,124.89469636189517L203.2770826086164,123.60829990629384L203.34194193785413,123.28716413823139L203.47166059632974,122.64547455020107L203.73109791328076,121.36452672639723L203.79595724251857,121.04481784981243L203.92567590099412,120.40605961082233L204.18511321794517,119.1312842698822L204.24997254718292,118.81318294912919L204.37969120565847,118.17771701520243L204.63912852260952,116.90983452018264L204.70398785184727,116.59352051120123L204.83370651032283,115.96170597791183L205.0931438272739,114.70143279678933L205.1580031565117,114.38708484552737L205.28772181498724,113.75927874507826L205.54715913193832,112.50732704588117L205.61201846117606,112.19512278728641L205.74173711965162,111.57167988675451L206.00117443660267,110.32875713512317L206.06603376584042,110.0188729927635L206.19575242431597,109.40014559362427L206.45518974126702,108.16695415302914L206.52004907050483,107.85956523939763L206.64976772898038,107.24590297844287L206.90920504593146,106.02313971328584L206.9740643751692,105.71841973084616L207.10378303364473,105.1101693826077L207.3632203505958,103.89852526443096L207.42807967983356,103.59664640745999L207.5577983383091,102.99415168825092L207.8172356552602,101.79431140527544L207.882094984498,101.49544426255781L208.0118136429735,100.89904563624142L208.2712509599246,99.71168720645682L208.33611028916232,99.41600066488701L208.4658289476379,98.82603515048424L208.72526626458895,97.65182953850706L208.7901255938267,97.359490687653L208.91984425230223,96.77629166889642L209.17928156925333,95.61590240681468L209.24414089849114,95.32707644449701L209.3738595569666,94.7509734814387L209.63329687391774,93.60505629385645L209.69815620315546,93.31990643279693L209.82787486163105,92.75122507557748L210.0873121785821,91.6204275090713L210.15217150781984,91.33911488466293L210.28189016629537,90.77817648954604L210.54132748324648,89.66313754674263L210.60618681248428,89.38582112599366L210.73590547095975,88.83294267377113L210.9953427879108,87.73429245225347L211.0602021171486,87.4611289439564L211.1899207756242,86.91662286082521L211.44935809257524,85.83498219707045L211.514217421813,85.56612596324766L211.6439360802885,85.03029994426106L211.9033733972396,83.96628006281179L211.96823272647734,83.70188303148717L212.0979513849529,83.17503986667919L212.35738870190394,82.1292420347466L212.42224803114175,81.8694536140923L212.5519666896173,81.35189101737407L212.81140400656835,80.32490620506766L212.87626333580613,80.06987319897516L213.00598199428165,79.56188363989972L213.26541931123273,78.55429218627589L213.7842939451349,76.57330793932104L213.91401260361044,76.08532006345632L214.1734499205615,75.11821218662783L214.6923245544636,73.22008963507164L214.82204321293918,72.75320631526193L215.08148052989026,71.82876771915227L215.6003551637924,70.01779669870766L215.7300738222679,69.57307311062507L215.98951113921902,68.69339306481316L216.5083857731212,66.97366644511698L216.63810443159664,66.5521076825205L216.8975417485478,65.71917430040475L217.4164163824499,64.09457873496291L217.54613504092544,63.697137538145114L217.80557235787654,62.91283328372435L218.32444699177867,61.387040425913426L218.4541656502542,61.01461502846752L218.7136029672053,60.28071246189478L219.23247760110746,58.857170666873174L219.36219625958296,58.510602765647945L219.6216335765341,57.828760537170695L220.1405082104362,56.510687068452796L220.27022686891172,56.190759921282876L220.5296641858628,55.56251902262471L221.04853881976496,54.352892780931995L221.1782574782405,54.06032943644266L221.43769479519156,53.487109718098054L221.95656942909375,52.38866450891976L222.08628808756924,52.124126172407045L222.3457254045203,51.607223134720186L222.86460003842245,50.62244148979974L223.9023493062268,48.85145605426919L224.16178662317785,48.4505611265613L224.68066125708003,47.699521637848136L225.71841052488435,46.40231833171953L227.793909060493,44.6397478597446L229.7242708141214,44.010014132467916L231.69751055282805,44.37895574141024L232.05565725032554,44.555556254642966L232.77195064532063,45.0093715195606L234.20453743531075,46.31697820774713L234.5626841328083,46.72655472451578L235.2789775278034,47.64395006706769L235.45805087655214,47.89364948090582L235.81619757404965,48.41731784220991L236.53249096904474,49.56107330960393L236.71156431779352,49.86695380433679L237.069711015291,50.50245896284997L237.78600441028618,51.86764925713163L237.9650777590349,52.22839363461864L238.32322445653244,52.97299894571154L239.0395178515275,54.55374521501477L239.2185912002763,54.967800019473486L239.57673789777377,55.818299025891775L240.29303129276886,57.60779418024984L240.4721046415177,58.07337638782633L240.8302513390152,59.026106627500155L241.5465447340103,61.01664465188236L241.72561808275913,61.53174934879917L242.0837647802566,62.58260812632352L242.173301454631,62.849591148494596L242.35237480337977,63.38863824219834L242.71052150087735,64.48688998552683L242.80005817525165,64.76561726466915L242.97913152400048,65.32802628088706L243.337278221498,66.47248833475732L243.4268148958724,66.76265972267154L243.60588824462116,67.34782502978351L243.96403494211867,68.53726497723949L244.05357161649306,68.83856800210748L244.2326449652419,69.445859463322L244.59079166273938,70.67899645284504L244.68032833711376,70.99110665571641L244.85940168586254,71.6198703076351L245.2175483833601,72.89537643243298L245.30708505773447,73.21795771661942L245.48615840648324,73.86751647345909L245.84430510398076,75.18401820142498L245.9338417783552,75.51672319442687L246.11291512710395,76.18637757714134L246.47106182460146,77.54245722994625L246.56059849897585,77.88492765752173L246.73967184772468,78.57395654703737L247.09781854522214,79.96815382676021L247.18735521959655,80.32002089873345L247.36642856834533,81.02768231248845L247.72457526584282,82.45849587414196L247.81411194021723,82.81938068153642L247.99318528896603,83.54491257248645L248.35133198646355,85.0108016407444L248.44086866083796,85.38031556381117L248.6199420095867,86.1229366410418L248.97808870708423,87.62232266942681L249.0676253814586,88.00006779613139L249.24669873020744,88.75897836619325L249.60484542770493,90.29024673693917L249.69438210207932,90.67581629145386L249.8734554508281,91.45019911951456L250.23160214832558,93.01170088227101L250.32113882270002,93.40467966301253L250.5002121714488,94.1937008528983L250.85835886894637,95.78375450040815L250.94789554332075,96.1837193271486L251.1269688920695,96.98652921932737L251.48511558956702,98.60342249816125L251.5746522639414,99.00994266773068L251.75372561269015,99.82567675427026L252.1118723101877,101.46766850867184L252.2014089845621,101.88030625876272L252.3804823333109,102.70808611427842L252.7386290308084,104.37340816113223L252.82816570518278,104.79171914170391L253.00723905393158,105.63065336929321L253.36538575142913,107.31751240219725L253.45492242580343,107.74104615397619L253.63399577455226,108.59023134512188L253.99214247204978,110.29681086551477L254.08167914642422,110.7251113050726L254.2607524951729,111.58363301248048L254.61889919267048,113.30809528574176L254.70843586704487,113.74070119662991L254.8875092157937,114.6076349189538L255.2456559132912,116.34812295337443L255.33519258766557,116.78456848278626L255.51426593641435,117.65898066017985L255.87241263391192,119.41362020666725L255.96194930828622,119.85343536709283L256.141022657035,120.73438438651581L256.49916935453257,122.50128595688534L256.588706028907,122.94399713221887L256.76777937765576,123.8305343414155L257.12592607515325,125.60779524308956L257.21546274952766,126.05292569864386L257.3945360982765,126.94409642770165L257.7526827957739,128.72980281262957L257.84221947014834,129.1768732085094L258.0212928188971,130.07171779789783L258.37943951639465,131.86394672348874L258.468976190769,132.31247563076892L258.64804953951784,133.2100304647514L259.00619623701533,135.0068519645988L259.09573291138975,135.45635638375236L259.2748062601385,136.35565492805836L259.632952957636,138.15513409023075L259.7224896320104,138.6051299712483L259.90156298075925,139.50520381388816L260.25970967825674,141.30540286454283L260.3492463526311,141.7554056281828L260.5283197013799,142.65528552228497L260.88646639887736,144.454265912366L260.97600307325183,144.90379097197547L261.1550764220006,145.80250787952224L261.51322311949815,147.59833237229114L261.60275979387256,148.04689565563388L261.7818331426213,148.94348179097273L262.1399798401188,150.7342165481272L262.2295165144932,151.18133501865827L262.40858986324196,152.07482489066427L262.7667365607395,153.85854155479768L262.8562732351139,154.30373373182266L263.0353465838627,155.19316518359022L263.3934932813602,156.96794295474703L263.4830299557346,157.41072943190565L263.66210330448337,158.2951446768496L264.0202500019809,160.05907238094522L264.10978667635527,160.49897634246145L264.2888600251041,161.37742299571198L264.6470067226016,163.12860114258436L264.736543396976,163.5651488767266L264.9156167457247,164.4366809807076L265.27376344322226,166.17322380958927L265.3633001175967,166.60594521878824L265.5423734663455,167.46962426187395L265.900520163843,169.18966177207747L265.99005683821736,169.61809087915185L266.1691301869662,170.47298680630576L266.52727688446373,172.17466677093927L266.61681355883803,172.59834222088452L266.7958869075868,173.44353443519145L267.15403360508435,175.12502439573453L267.2435702794588,175.54348995253423L267.42264362820754,176.37806830654753L267.7807903257051,178.03755754613783L267.87032700007944,178.45036258406265L268.04940034882827,179.27342835989896L268.40754704632576,180.90912985320864L268.4970837207002,181.3158298420738L268.6761570694489,182.1264967191996L269.0343037669465,183.73664905679703L269.12384044132085,184.13680604065576L269.3029137900696,184.9342010503241L269.66106048756717,186.51707033545344L269.7505971619416,186.910253404211L269.92967051069036,187.6935178695201L270.28781720818785,189.2473995852514L270.37735388256226,189.63318533869185L270.5564272313111,190.40147579925355L270.9145739288085,191.92469664399687L271.0041106031829,192.30266964772252L271.1831839519317,193.05515876794493L271.5413306494292,194.54607845734978L271.6308673238036,194.91583169014302L271.8099406725524,195.6517091501488L272.16808737004993,197.1087221834478L272.25762404442435,197.4698574755728L272.43669739317306,198.1883308437944L272.7948440906706,199.6098682326921L272.88438076504497,199.96199669466492L273.0634541137938,200.6622922811766L273.42160081129134,202.04682323941734L273.5111374856657,202.38956568078268L273.6902108344145,203.07092937045047L274.04835753191196,204.41696296225078L274.13789420628643,204.74995029991427L274.31696755503515,205.41164836446677L274.67511425253275,206.71773511003263L274.76465092690717,207.04060876570873L274.9437242756559,207.68192865385444L275.3018709731534,208.9466620902576L275.3914076475278,209.25907437660572L275.5704809962765,209.8793254813457L275.92862769377405,211.10134367707747L276.01816436814846,211.40295817210983L276.1972377168973,212.0014725744196L276.5553844143948,213.17945959598944L276.6449210887692,213.46995150534832L276.82399443751797,214.04608469342833L277.1821411350155,215.17877202243113L277.2716778093898,215.45782852914408L277.45075115813864,216.01096009246385L277.8088978556362,217.0971279915866L277.8984345300106,217.36444859292448L278.0775078787593,217.89398289031328L278.43565457625687,218.93246171681312L279.15194797125196,220.92579495793808L279.33102132000073,221.40645005711718L279.6891680174983,222.34624843078393L280.40546141249337,224.13865454957522L280.58453476124214,224.56836062911484L280.9426814587396,225.40543154240262L281.6589748537347,226.98919198848648L281.8380482024835,227.36609862621611L282.1961948999811,228.0968374417925L282.91248829497613,229.46513214540082L283.0915616437249,229.7876162867911L283.4497083412224,230.40887626000998L284.1660017362175,231.55581300091137L285.59858852620766,233.46194495169397L285.95673522370515,233.8567043002098L286.67302861870024,234.54708261522558L288.10561540869037,235.5281244360712L290.229359650966,235.9930678217679L292.17346710589953,235.3790129552213L292.5688025877185,235.132938537418L293.35947355135636,234.51862976680644L294.9408154786323,232.8054217410829L295.3361509604512,232.27720873372084L296.1268219240892,231.10241386937741L296.3244896649987,230.78423696000516L296.71982514681764,230.11874421931913L297.5104961104556,228.67222277791996L297.7081638513651,228.28674689523078L298.1034993331841,227.48746597128786L298.894170296822,225.77680721974298L299.0918380377315,225.32605478751668L299.48717351955054,224.39717915861212L300.27784448318846,222.43135817705937L300.47551222409794,221.91769409665218L300.8708477059169,220.86409716795796L300.9696815763716,220.59526633766836L301.1673493172811,220.0511369505548L301.5626847991001,218.93721247950378L301.6615186695548,218.65342776143308L301.85918641046436,218.0795470041719L302.25452189228326,216.90675653910637L302.353355762738,216.60839027904194L302.55102350364746,216.0055111241113L302.9463589854664,214.77539344975537L303.0451928559212,214.4628371255074L303.24286059683067,213.83175059335122L303.6381960786496,212.54591971181577L303.73702994910434,212.21958341957082L303.9346976900139,211.56111754072305L304.33003317183284,210.22126055381997L304.42886704228755,209.88157247006512L304.6265347831971,209.1965911987155L305.021870265016,207.80446609435938L305.1207041354707,207.4518719140844L305.31837187638024,206.74127399450822L305.7137073581992,205.2987073401112L305.81254122865386,204.9336696920247L306.0102089695634,204.19838747936674L306.40554445138235,202.70727202525157L306.50437832183707,202.33026986477958L306.7020460627466,201.57126810173722L307.0973815445655,200.03356029771422L307.1962154150203,199.64508827857597L307.3938831559298,198.8633628295882L307.7892186377487,197.28108025795328L307.8880525082035,196.8816480831406L308.08572024911297,196.07822462774294L308.4810557309319,194.4534433560658L308.5798896013866,194.04357510907627L308.7775573422961,193.21950779613599L309.17289282411514,191.55435965331142L309.27172669456985,191.1345931105137L309.46939443547933,190.2909631751112L309.8647299172983,188.58763295424768L309.963563787753,188.15851887928025L310.16123152866254,187.2964332240517L310.55656701048144,185.55715581586688L310.6554008809362,185.11925723699713L310.8530686218457,184.23984697979924L311.24840410366465,182.466904440284L311.34723797411937,182.02079591167478L311.5449057150289,181.12521490147753L311.94024119684786,179.32093345767575L312.0390750673026,178.86720030552937L312.23674280821206,177.95662360848377L312.632078290031,176.12337060631683L312.73091216048573,175.6626081608856L312.9285799013952,174.73823051855328L313.3239153832142,172.87841131669276L313.422749253669,172.41122413116307L313.6204169945784,171.47425839292993L314.0157524763974,169.59031320679608L314.1145863468521,169.11731426407135L314.31225408776163,168.16898979580284L314.7075895695806,166.2633904958278L314.8064234400353,165.78520040425138L315.00409118094484,164.82676147527684L315.39942666276374,162.90200834363407L315.49826053321846,162.41925452270698L315.69592827412794,161.45195867324932L316.09126375594695,159.51057712330572L316.1900976264016,159.02389298046697L316.38776536731115,158.04900937166053L316.7831008491301,156.0935466344534L316.8819347195849,155.60357073400485L317.07960246049436,154.62237848266528L317.47493794231326,152.65540026475378L317.57377181276803,152.1627754900179L317.77143955367757,151.17656199034977L318.16677503549647,149.20064910742494L318.26560890595124,148.70602181723632L318.4632766468607,147.71608105167996L318.8586121286797,145.73382604235053L318.95744599913434,145.23784522298672L319.1551137400439,144.24547606442127L319.5504492218629,142.25947978861794L319.6492830923176,141.76279620228334L319.8469508332271,140.76930070981263L320.242286315046,138.78216893627467L320.34112018550076,138.2854342672541L320.5387879264103,137.2921159778124L320.9341234082292,135.30645596513304L321.032957278684,134.81032196473507L321.23062501959345,133.81848418275365L321.6259605014124,131.83690125847107L321.7247943718671,131.34201888988486L321.92246211277666,130.35296297726356L322.3177975945956,128.37805711948488L322.41663146505033,127.88507570366897L322.6142992059598,126.90009937229678L323.00963468777877,124.93446179834189L323.1084685582335,124.44402816206934L323.30613629914296,123.4644237711336L323.701471780962,121.51063353767302L323.80030565141675,121.02339116484845L323.9979733923262,120.0504440251676L324.39330887414513,118.1110646443162L324.4921427445999,117.62765283167911L324.6898104855094,116.66263951928323L325.08514596732834,114.74021559508984L325.18397983778306,114.26126861341135L325.3816475786926,113.30545529458331L325.7769830605115,111.40250918432838L325.87581693096627,110.9286554462029L326.0734846718757,109.98329621617799L326.4688201536947,108.10232472086119L326.5676540241495,107.63418595618481L326.7653217650589,106.70052119368825L327.16065724687786,104.84399228204711L327.25949111733263,104.38218272226297L327.4571588582421,103.46143746204467L327.852494340061,101.63178703240405L327.9513282105158,101.17691260458713L328.1489959514253,100.27029493008871L328.5443314332442,98.46992361428829L328.643165303699,98.02258114612593L328.8408330446085,97.13128060438896L329.23616852642743,95.36255061798323L329.33500239688215,94.92332705469448L329.5326701377917,94.04851309559024L329.92800561961064,92.31374513845293L330.02683949006536,91.88321677267481L330.22450723097484,91.02603721450231L330.61984271279374,89.32750742590298L330.7186765832485,88.90623914155319L330.91634432415805,88.06781866501996L331.311679805977,86.40775563716679L331.4105136764318,85.99630016827587L331.6081814173412,85.17773884083655L332.00351689916016,83.55832069480454L332.1023507696149,83.1572179002894L332.3000185105244,82.35958973277883L332.69535399234337,80.78294126065947L332.7941878627981,80.39271741598995L332.99185560370756,79.61706895344435L333.3871910855265,78.08525883046704L333.4860249559813,77.70642593715499L333.68369269689083,76.95377488567024L334.07902817870973,75.46881295595276L334.1778620491645,75.10186806976952L334.3755297900739,74.37320196119828L334.7708652718929,72.937036600688L334.86969914234766,72.58246117949184L335.06736688325714,71.87873607573115L335.46270236507615,70.49325163579687L335.5615362355308,70.15151090782587L335.75920397644035,69.47365014639593L336.15453945825925,68.1406644814245L336.253373328714,67.81220683488397L336.45104106962344,67.16109981744336L336.84637655144246,65.8823618996851L336.94521042189723,65.56761829443025L337.1428781628067,64.94411931981762L337.53821364462567,63.72130694460975L337.6370475150804,63.42069034669592L337.83471525598986,62.82561749002886L338.2300507378089,61.66033507440912L338.32888460826354,61.3742399142501L338.5265523491731,60.80837395355243L338.92188783099203,59.70215043114871L339.02072170144675,59.43095208599664L339.2183894423562,58.89503547776178L339.6137249241752,57.84932229272249L340.40439588781317,55.863924468784234L340.6020636287227,55.38997582961366L340.9973991105416,54.4693182760098L341.7880700741796,52.738322132732435L341.98573781508907,52.328828064360096L342.381073296908,51.5380564307078L343.17174426054595,50.070543749650994L343.3694120014555,49.7276526887982L343.7647474832744,49.0709158088589L344.55541844691237,47.874585988808946L346.13676037418827,45.95732316061094L348.37683384533636,44.34650939303867L351.19547189835646,44.188017197223616L353.7461186355212,45.84081826523294L354.26345512829784,46.38209623469061L355.29812811385125,47.6702662523316L355.5567963602395,48.034804999332096L356.0741328530163,48.81442081255932L357.1088058385696,50.57373918936025L357.36747408495796,51.05478733572852L357.88481057773464,52.06573878680172L358.0141447009288,52.32858746942986L358.2728129473171,52.86633408998438L358.7901494400938,53.98967525909609L358.91948356328794,54.280404009567754L359.1781518096763,54.87364096800559L359.695488302453,56.106848084303294L359.8248224256472,56.42480373262276L360.08349067203557,57.07219822446265L360.6008271648122,58.41250068515828L360.7301612880063,58.75696889162219L360.98882953439465,59.45706643856866L361.50616602717145,60.90145303355348L361.63550015036554,61.27165989363249L361.8941683967539,62.02288761130154L362.41150488953053,63.568113288325804L362.54083901272475,63.963227071367555L362.79950725911306,64.76389720303015L363.31684375188973,66.40649035824674L363.4461778750839,66.82562337609721L363.70484612147226,67.67393708450177L364.22218261424894,69.41020736199602L364.3515167374431,69.85241796333617L364.61018498383146,70.74646937209388L365.12752147660814,72.57251595487543L365.25685559980235,73.0368106407955L365.5155238461907,73.97459111624471L366.03286033896734,75.88631149007506L366.16219446216144,76.37164714613459L366.42086270854986,77.35104981006648L366.93819920132654,79.34414898043264L367.0675333245207,79.84943522018796L367.326201570909,80.86825968329569L367.39086863250617,81.12466793967141L367.52020275570027,81.63950647091423L367.77887100208864,82.67718881163145L367.8435380636857,82.93825982482215L367.97287218687984,83.46236143955952L368.2315404332682,84.51831874497566L368.2962074948653,84.78390585963393L368.42554161805947,85.31697614638165L368.68420986444784,86.39061523771556L368.7488769260449,86.66056926159644L368.87821104923904,87.20230877076395L369.1368792956274,88.29302653657831L369.2015463572245,88.5671958243471L369.33088048041867,89.11730023645077L369.589548726807,90.22448397144763L369.6542157884041,90.5027145098664L369.78354991159824,91.06087480647989L370.04221815798667,92.18390255568514L370.10688521958366,92.46603805012802L370.2362193427779,93.03194068747177L370.49488758916624,94.17018159561474L370.5595546507633,94.45606355786606L370.68888877395744,95.02939064293929L370.9475570203458,96.18220530883258L371.01222408194286,96.47167314611767L371.14155820513696,97.05210261527228L371.4002264515253,98.21884345099244L371.46489351312243,98.51173455618863L371.59422763631665,99.09894035604754L371.85289588270496,100.27895195071449L371.9175629443021,100.5751017936955L372.0468970674962,101.16875406431194L372.3055653138846,102.36137355226194L372.3702323754817,102.66061577232165L372.4995664986758,103.26038103247564L372.75823474506416,104.46493846562339L372.8229018066612,104.76710496492848L372.9522359298554,105.37264629945844L373.2109041762438,106.58846502363778L373.27557123784084,106.89338606165461L373.404905361035,107.50436331071813L373.66357360742336,108.73076034578816L373.7282406690204,109.03826463463554L373.8575747922146,109.65433458479163L374.11624303860293,110.89062100829767L374.18091010020004,111.20053580896584L374.3102442233942,111.82135238597408L374.56891246978256,113.06683372014666L374.6335795313796,113.3789849395327L374.76291365457377,114.00419940275833L375.02158190096213,115.25817600463276L375.08624896255924,115.57238829333667L375.2155830857534,116.20164943165477L375.47425133214176,117.46341688609112L375.5389183937388,117.77951373691747L375.668252516933,118.41246806600319L375.9269207633214,119.68131758138881L375.9915878249184,119.99912142849897L376.1209219481126,120.63541338939575L376.3795901945009,121.91063219580604L376.444257256098,122.22996451446375L376.5735913792921,122.86923667331732L376.83225962568054,124.1501084229096L376.89692668727764,124.47078982976825L377.02626081047174,125.11268307861224L377.2849290568601,126.39848824803107L377.3495961184572,126.72033860190015L377.47893024165137,127.36449236038419L377.73759848803974,128.65450865495004L377.80226554963684,128.97734715798882L377.93159967283094,129.62339957593207L378.1902679192193,130.91690233538702L378.25493498081636,131.24054763466688L378.3842691040105,131.88813579532675L378.6429373503989,133.18439840090784L378.707604411996,133.50866869028638L378.83693853519014,134.157428814224L379.0956067815785,135.4557230968384L379.16027384317556,135.78043621908847L379.2896079663697,136.43000386852043L379.5482762127581,137.72960051779148L379.6129432743552,138.0545740669258L379.74227739754934,138.70458435044554L380.0009456439377,140.00475332439828L380.06561270553476,140.3298047481369L380.1949468287289,140.97989252568982L380.45361507511734,142.27990346084863L380.51828213671433,142.6048501631658L380.64761625990855,143.25465025116523L380.9062845062969,144.55377287283244L380.97095156789396,144.87843231652897L381.1002856910882,145.52757969299722L381.3589539374765,146.82508422548017L381.42362099907353,147.14927403472308L381.5529551222677,147.79740404433957L381.811623368656,149.0925616208994L381.87629043025316,149.41609968367055L382.0056245534473,150.06284824261547L382.26429279983563,151.35493131490398L382.3289598614328,151.67763588530084L382.4582939846269,152.32263968577743L382.71696223101526,153.6109224325346L382.78162929261237,153.93261223286385L382.91096341580646,154.57550894718514L383.16963166219483,155.85926768196458L383.2342987237919,156.17976200457605L383.3636328469861,156.82019048869955L383.62230109337446,158.09870406639618L383.68696815497145,158.417822875193L383.81630227816567,159.05542337159233L384.07497052455403,160.32797359354248L384.13963758615114,160.64553762511576L384.2689717093453,161.2799519648733L384.5276399557336,162.5458239822981L384.5923070173307,162.86165484662746L384.72164114052487,163.49252665063298L384.98030938691323,164.75100936620174L385.0449764485103,165.0649296468652L385.17431057170444,165.69190452601035L385.4329788180928,166.9422909932969L385.4976458796899,167.25412434713272L385.6269800028841,167.87685010138728L385.88564824927244,169.11843792199244L385.9503153108695,169.42800917815964L386.0796494340637,170.04613599441868L386.33831768045206,171.27822771253932L386.4029847420491,171.5853629709198L386.53231886524327,172.19854361950829L386.7909871116316,173.4204471137298L386.8556541732287,173.72497384261482L386.9849882964228,174.33286387234295L387.2436565428112,175.54389274443534L387.30832360440826,175.8456398774446L387.4376577276024,176.44789780910207L387.6963259739908,177.6473717695998L387.76099303558794,177.94616980177724L387.89032715878204,178.54245731995664L388.1489954051704,179.72970257030843L388.2136624667675,180.02538365334107L388.3429965899616,180.61536579648515L388.60166483635,181.78971540755768L388.66633189794703,182.08211344406234L388.79566602114124,182.66545879262728L389.05433426752955,183.82625307934836L389.11900132912666,184.11520381617788L389.2483354523208,184.69158467880578L389.5070036987092,185.83817157073946L389.57167076030623,186.1235126912499L389.7010048835004,186.69260528884857L389.95967312988876,187.82434069649247L390.02434019148586,188.10591191172398L390.15367431468,188.66739655934765L390.4123425610684,189.78364473594738L390.47700962266543,190.0612878746657L390.6063437458596,190.61484916109742L390.865011992248,191.71498305977323L390.92967905384506,191.98854215732158L391.0590131770392,192.533869122253L391.3176814234276,193.61727074824097L391.38234848502464,193.88659213415272L391.51168260821885,194.4233784428647L391.7703508546072,195.48943920067262L391.8350179162042,195.75437158499383L391.96435203939836,196.2823157004389L392.2230202857867,197.33043673572107L392.28768734738384,197.59083129399855L392.417021470578,198.10963664618674L392.67568971696636,199.13922918214763L392.74035677856347,199.39493963902916L392.86969090175756,199.90431479162595L393.12835914814593,200.9148004597626L393.64569564092255,202.90206718401046L393.77502976411677,203.3917289786289L394.03369801050513,204.36230905722817L394.5510345032818,206.26787488059063L394.68036862647597,206.7367232114048L394.93903687286434,207.66521713254997L395.456373365641,209.484800887725L395.58570748883517,209.93178240978142L395.8443757352235,210.81610415903705L396.3617122280002,212.5456178515919L396.49104635119437,212.9697283473226L396.7497145975827,213.80789115030842L397.2670510903594,215.44344914303292L397.3963852135536,215.8437357783954L397.6550534599419,216.63385656440227L398.1723899527186,218.17178430703274L398.3017240759128,218.54734777220798L398.5603923223011,219.28765140482665L399.07772881507776,220.72449368952678L399.2070629382719,221.0744902193681L399.4657311846603,221.7633134846244L399.98306767743696,223.09584220867907L400.1124018006311,223.41948547836847L400.37107004701943,224.0552808214079L400.88840653979616,225.2805022396879L401.0177406629903,225.57706513134391L401.27640890937863,226.1584041332687L401.79374540215537,227.2735655841708L401.9230795253495,227.54238182043954L402.18174777173783,228.06795840748595L402.69908426451457,229.07055449724112L403.73375725006787,230.8790065474961L403.99242549645624,231.28964385412075L404.5097619892329,232.06060968733436L405.54443497478627,233.3993913943583L407.613780945893,235.2516589028238L409.42331543979344,235.95622990897039L411.5856019772734,235.669333689013L411.93499185458853,235.507695657235L412.6337716092186,235.08859613488323L414.0313311184788,233.86929046581406L414.38072099579387,233.48564645743267L415.07950075042396,232.6246391583918L415.25419568908154,232.3899665876474L415.6035855663966,231.89745171778733L416.3023653210267,230.82033347576015L416.47706025968427,230.53199930087584L416.8264501369993,229.93263205180313L417.5252298916294,228.64381723923393L417.699924830287,228.30300314517874L418.04931470760204,227.59923991412535L418.74809446223213,226.1040105031991L418.92278940088966,225.71211325430835L419.27217927820476,224.90683828637688L419.97095903283486,223.2113222018208L420.1456539714924,222.7699479174127L420.4950438488075,221.8664614850243L421.1938236034376,219.97760748992724L421.3685185420951,219.4885650619162L421.7179084194102,218.49056993924654L421.80525588873894,218.23695357854103L421.97995082739646,217.72481677464208L422.32934070471157,216.6810775233522L422.4166881740403,216.41611915682213L422.5913831126978,215.88141283630506L422.94077299001293,214.79299912414098L423.02812045934166,214.51697029222993L423.2028153979992,213.96024244455074L423.5522052753143,212.8282697235199L423.639552744643,212.5414533121477L423.81424768330055,211.96327449534743L424.16363756061565,210.7889028585551L424.2509850299444,210.49159280920608L424.4256799686019,209.89255556517756L424.775069845917,208.6769885579164L424.86241731524575,208.36948956639435L425.0371122539033,207.750207813622L425.3865021312184,206.49469119992665L425.4738496005471,206.17731840409124L425.64854453920464,205.53842680848004L425.99793441651974,204.2442472944178L426.0852818858485,203.91732595121644L426.259976824506,203.25947927566136L426.6093667018211,201.9279631906599L426.69671417114984,201.59182834279272L426.87140910980736,200.91570077614844L427.22079898712246,199.54821271371972L427.3081464564512,199.20320884627174L427.4828413951087,198.50949331241765L427.8322312724238,197.10743473166332L427.91957874175256,196.75391541906365L428.0942736804101,196.04332286676424L428.4436635577252,194.60813065610367L428.5310110270539,194.24645819976567L428.70570596571145,193.51971687406274L429.05509584302655,192.0528618786476L429.1424433123553,191.68340693566893L429.3171382510128,190.94126163154317L429.6665281283279,189.4442471458748L429.75387559765664,189.06738834917144L429.92857053631417,188.3105996482476L430.2779604136293,186.7849598755375L430.365307882958,186.40108344580517L430.54000282161553,185.63042693687393L430.88939269893064,184.07772541672793L430.97674016825937,183.68722476662694L431.1514351069169,182.90349025079115L431.500824984232,181.3253182568285L431.58817245356073,180.9285935877979L431.76286739221825,180.1325842690491L432.11225726953336,178.53055917809849L432.1996047388621,178.12801707021293L432.3742996775196,177.32054873227648L432.7236895548347,175.6963123668206L432.81103702416345,175.28836536210991L432.985731962821,174.47026553239334L433.3351218401361,172.82548247796018L433.4224693094648,172.41254865761914L433.59716424812234,171.5846557591297L433.94655412543744,169.9210116583556L434.0339015947662,169.50351421427675L434.2085965334237,168.66667670636792L434.5579864107388,166.98587653148036L434.64533388006754,166.5642433325491L434.82002881872506,165.71931884138638L435.16941869604017,164.02308514687687L435.2567661653689,163.59774830047365L435.4314611040264,162.74560274010082L435.78085098134153,161.03567389737884L435.86819845067026,160.60706930653765L436.0428933893278,159.74857599145392L436.3922832666429,158.0267044072911L436.4796307359716,157.59527132396641L436.65432567462915,156.7313100741158L437.00371555194425,154.99926039470597L437.091063021273,154.56544096961127L437.2657579599305,153.69689720870667L437.6151478372456,151.9564445111823L437.70249530657435,151.5206833406529L437.8771902452319,150.64844718875662L438.226580122547,148.90137516201554L438.3139275918757,148.46411883237016L438.48862253053323,147.58908419366165L438.83801240784834,145.83718331036783L438.9253598771771,145.39887994022564L439.1000548158346,144.52194358689124L439.4494446931497,142.76700926852288L439.53679216247843,142.3281080495554L439.71148710113596,141.4501687027374L440.06087697845106,139.69399947956524L440.1482244477798,139.25495021614313L440.3229193864373,138.3769076248949L440.6723092637524,136.62130329277053L440.75965673308116,136.18255594098798L440.9343516717387,135.3053099601708L441.2837415490538,133.55206973602313L441.3710890183825,133.11407394256133L441.54578395704004,132.23852361063797L441.89517383435515,130.4894442885576L441.9825213036839,130.05264892987057L442.1572162423414,129.17969154753047L442.5066061196565,127.43656565734238L442.59395358898524,127.00141837962693L442.76864852764277,126.13194859019737L443.1180384049579,124.39656256039865L443.20538587428655,123.96350932083041L443.38008081294413,123.0984181934059L443.72947069025923,121.37255052036153L443.8168181595879,120.94203513005672L443.9915130982455,120.08220924629671L444.3409029755606,118.36762867155923L444.4282504448893,117.94009234074107L444.60294538354685,117.08641288626123L444.95233526086196,115.38487658389292L445.03968273019063,114.96075746971823L445.2143776688482,114.11409933101706L445.56376754616326,112.42735110676165L445.651115015492,112.0070838642817L445.8258099541496,111.16831473211761L446.1751998314646,109.49808323627764L446.26254730079336,109.08209857298277L446.43724223945094,108.25207805313084L446.786632116766,106.60007500897211L446.8739795860947,106.18879924338691L447.0486745247523,105.3683779756762L447.39806440206735,103.73629642518318L447.4854118713961,103.33015104995616L447.66010681005366,102.52016983650088L448.0094966873687,100.90968240527627L448.09684415669744,100.50908365521667L448.271539095355,99.71037259872458L448.62092897267013,98.12312978181205L448.7082764419988,97.7284882073152L448.8829713806564,96.9418658603658L449.23236125797143,95.37949433075374L449.31970872730017,94.99121437705168L449.49440366595775,94.21748690320683L449.8437935432728,92.6815878447457L449.93114101260153,92.30006743741467L450.1058359512591,91.54002778503093L450.45522582857416,90.03217525147267L450.5425732979029,89.6578053886225L450.71726823656047,88.91223247820179L451.0666581138755,87.43397178004383L451.15400558320425,87.06713613160639L451.32870052186183,86.33679405752818L451.6780903991769,84.88964017831421L451.7654378685056,84.53071469284271L451.9401328071632,83.81635194028559L452.28952268447824,82.40178798398705L452.376870153807,82.05114050336795L452.55156509246456,81.35348918123296L452.9009549697796,79.97296485230189L452.98830243910834,79.63095473477514L453.1629973777659,78.9507298253877L453.51238725508097,77.60565994303869L453.5997347244097,77.27263769491285L453.7744296630673,76.61053632128068L454.1238195403823,75.30229936952509L454.21116700971106,74.97860628596231L454.38586194836864,74.33530699733365L454.7352518256837,73.06524371225112L454.8225992950124,72.75121152749574L454.99729423367,72.12737360395363L455.34668411098505,70.89678559964972L455.4340315803138,70.59273614705089L455.60872651897137,69.98899892385555L455.9581163962864,68.79914735851293L456.04546386561515,68.50539224069826L456.2201588042727,67.92237445306947L456.5695486815878,66.7744787364602L456.6568961509165,66.49131900599048L456.8315910895741,65.92961815500186L457.18098096688914,64.82485469878486L457.26832843621787,64.5525805496246L457.4430233748754,64.01277228985867L457.7924132521905,62.95227330194467L457.87976072151923,62.69116377205734L458.05445566017676,62.17380132165215L458.40384553749186,61.15865364586796L459.10262529212196,59.2078446876086L459.2773202307795,58.73694095332479L459.6267101080946,57.81556945536704L460.3254898627247,56.05563749989372L460.5001848013822,55.63312239470412L460.8495746786973,54.809303147424316L461.5483544333274,53.2474609545111L461.7230493719849,52.87506607942734L462.07243924930003,52.15217535558958L462.7712190039301,50.794823850287855L462.94591394258765,50.47407539771007L463.29530381990276,49.85507583295356L463.99408357453285,48.70777787256944L465.39164308379304,46.781147326769826L465.74103296110815,46.377104474465625L466.4398127157382,45.66313944118161L467.8373722249984,44.614815320336845L469.6591783566556,44.01529516598441L471.6733115450272,44.368235416136656L472.02956505281185,44.5415559819412L472.74207206838116,44.9877663620685L474.16708609951985,46.27604904058464L474.5233396073045,46.6799539447677L475.2358466228738,47.585020935954304L475.41397337676614,47.831435810011385L475.77022688455077,48.34829571862775L476.4827339001201,49.47749217635459L476.6608606540125,49.779540019278414L477.0171141617971,50.407152664105325L477.7296211773664,51.755667239233304L477.90774793125877,52.112061067152354L478.2640014390434,52.84775227795308L478.9765084546127,54.409839137332284L479.15463520850506,54.819060405687196L479.51088871628974,55.65969550447966L480.223395731859,57.42869881314476L480.4015224857514,57.88900388699619L480.75777599353603,58.83100104447959L481.47028300910534,60.79938332523807L481.6484097629977,61.308810908652475L482.0046632707824,62.34815640588408L482.0937266477285,62.61222869116688L482.27185340162083,63.145416284746176L482.6281069094055,64.23180046917753L482.71717028635163,64.50753065545848L482.89529704024403,65.06391014831775L483.25155054802866,66.19617547861083L483.3406139249748,66.4832697756328L483.5187406788672,67.06224834593937L483.8749941866518,68.23918839443797L483.964057563598,68.53734090349451L484.1421843174903,69.13830165012033L484.49843782527495,70.3586623882968L484.5875012022211,70.66755542816674L484.76562795611346,71.2898580279954L485.12188146389815,72.5523391626183L485.21094484084426,72.87164360805497L485.38907159473666,73.51462499824453L485.7453251025213,74.81788135683922L485.8343884794674,75.1472569892529L486.0125152333598,75.81023207373039L486.36876874114444,77.15287503785825L486.4578321180906,77.49197090781888L486.63595887198295,78.17423328724826L486.9922123797676,79.55483227208009L487.08127575671375,79.90328707325364L487.2594025106061,80.60410979770413L487.6156560183908,82.02119377630493L487.7047193953369,82.37863623042477L487.88284614922924,83.09727257393544L488.2390996570139,84.54933164464416L488.32816303396004,84.91538089710781L488.50628978785244,85.6510651533224L488.86254329563707,87.13655214854975L488.9516066725832,87.51081817421917L489.1297334264756,88.26276647224708L489.4859869342602,89.78009860698054L489.5750503112064,90.16218262575339L489.7531770650987,90.92959376538266L490.10943057288335,92.47715432364402L490.1984939498295,92.86664922535357L490.37662070372187,93.64870553072802L490.73287421150656,95.22484558818186L490.82193758845267,95.62133636637259L491.000064342345,96.4172045572264L491.3563178501297,98.02024473810664L491.4453812270758,98.42330893222311L491.6235079809682,99.23214101173932L491.97976148875284,100.8603732782243L492.06882486569896,101.2695814237425L492.24695161959136,102.09051558209197L492.603205127376,103.74220505421587L492.69226850432216,104.15712114023762L492.8703952582145,104.98928267283833L493.22664876599913,106.66266947700464L493.3157121429453,107.08285141082547L493.49383889683764,107.92535365033834L493.85009240462233,109.61865479446371L493.93915578156845,110.04365487262422L494.1172825354608,110.89560013369649L494.4735360432455,112.60701140698583L494.5625994201916,113.036376792298L494.740726174084,113.89685732804662L495.0969796818686,115.62455522338013L495.1860430588148,116.05782842742514L495.36416981270713,116.92592739663883L495.72042332049176,118.668071053516L495.80948669743793,119.1047904240979L495.9876134513303,119.97958286813252L496.3438669591149,121.73431603410648L496.4329303360611,122.17401624714199L496.6110570899534,123.05457007546232L496.9673105977381,124.82002308397676L497.0563739746842,125.26223563929787L497.2345007285766,126.147612622618L497.59075423636125,127.92190438513452L497.67981761330736,128.3661581056747L497.85794436719976,129.25541487564263L498.2141978749844,131.03665488593757L498.30326125193056,131.48247641977076L498.4813880058229,132.374665474125L498.83764151360754,134.16095582262454L498.9267048905537,134.607870147321L499.10483164444605,135.5020408594539L499.46108515223074,137.29147825545218L499.55014852917685,137.73900918421458L499.7282752830692,138.63420881606413L500.0845287908539,140.42488661568018L500.1735921678,140.8725573047201L500.3517189216924,141.76783202191046L500.707972429477,143.5578422596143L500.79703580642314,144.00517571622885L500.97516256031554,144.89957160438172L501.33141606810017,146.68700702592906L501.42047944504634,147.13352661673622L501.5986061989387,148.02609069786487L501.9548597067233,149.80904679247658L502.0439230836695,150.25427675126764L502.2220498375618,151.14405799917296L502.5783033453465,152.92063502878864L502.6673667222926,153.3641009634565L502.84549347618497,154.2501513170467L503.20174698396966,156.01845634049272L503.29081036091577,156.45968573849638L503.46893711480817,157.34106111194393L503.8251906225928,159.09921000186264L503.9142539995389,159.53773273368887L504.0923807534313,160.41349402235238L504.44863426121594,162.15961347273685L504.5376976381621,162.5949622928227L504.71582439205446,163.46417637386386L505.0720778998391,165.19640589606283L505.16114127678526,165.62811694064533L505.3392680306776,166.48985766726906L505.6955215384623,168.20635157233824L505.7845849154084,168.63396485370083L505.96271166930075,169.48731404196437L506.31896517708543,171.1862434072434L506.40802855403155,171.60930330383252L506.58615530792395,172.45335171096957L506.9424088157086,174.13290632880003L507.03147219265475,174.55096207068925L507.2095989465471,175.38481036390635L507.5658524543317,177.04320067040518L507.6549158312779,177.4558068195903L507.83304258517023,178.27856653430678L508.18929609295486,179.91402551614394L508.27835946990103,180.32074244115665L508.4564862237934,181.1315369276619L508.81273973157806,182.74232200481353L508.9018031085242,183.1427163491485L509.0799298624166,183.94068170667052L509.4361833702012,185.52507658913507L509.5252467471473,185.91872173299078L509.7033735010397,186.70300773018351L510.05962700882435,188.2593242466866L510.1486903857705,188.64580076152828L510.32681713966286,189.41557174239136L510.6830706474475,190.9421516391322L510.77213402439367,191.32104773459275L510.950260778286,192.0754835088613L511.3065142860707,193.57070021637955L511.3955776630168,193.94161217902186L511.57370441690915,194.67990889608032L511.92995792469384,196.1421692623646L512.0190213016399,196.50470188583688L512.1971480555324,197.22607289121973L512.553401563317,198.6538188792099L512.6424649402632,199.00758588533918L512.8205916941555,199.71126255891113L513.1768452019401,201.1029729065841L513.2659085788863,201.4475973569544L513.4440353327786,202.1328299318743L513.8002888405633,203.4870217731492L513.8893522175094,203.82213647072908L514.0674789714018,204.48819483232512L514.4237324791865,205.8034252770546L514.5127958561326,206.12867315744546L514.6909226100249,206.77484762115301L515.0471761178096,208.0497152925208L515.1362394947557,208.3647498044086L515.3143662486482,208.99035187193772L515.6706197564328,210.22349839962578L515.7596831333789,210.52798387403095L515.9378098872712,211.13234696696003L516.2940633950559,212.32245843449016L516.383126772002,212.61607044242294L516.5612535258945,213.19855061243868L516.917507033679,214.34435895714842L517.0065704106253,214.62678465528742L517.1846971645175,215.18676127031034L517.5409506723022,216.28704563447445L517.6300140492483,216.55798409850098L517.8081408031408,217.0948605039685L518.1643943109254,218.14844853561974L518.2534576878716,218.40761108085223L518.4315844417639,218.9208152354539L518.7878379495485,219.92658433752447L519.5003449651178,221.8543535748916L519.6784717190102,222.31859857750828L520.0347252267948,223.22556697515174L520.7472322423641,224.95232604676303L520.9253589962566,225.36563381397264L521.2816125040412,226.1699370409226L521.9941195196104,227.6883284664072L522.1722462735029,228.04893795126688L522.5284997812875,228.74714898327767L523.2410067968567,230.05070310784055L523.4191335507492,230.3570778034627L523.7753870585339,230.94622166038403L524.487894074103,232.0293842211048L525.9129081052417,233.81016642731882L528.7629361675191,235.7986778571738L531.339662907841,235.76391461369735L533.9807078479365,233.92227416410276L534.5160931340258,233.3285858022299L535.5868637062041,231.9217256524919L535.8545563492487,231.5246827398346L536.3899416353379,230.67673701329468L537.4607122075163,228.76781160674975L537.7284048505609,228.24674002069878L538.2637901366501,227.15269309126134L538.3976364581723,226.86844612841315L538.6653291012169,226.28716691264412L539.2007143873062,225.07387137981974L539.3345607088285,224.76006386772139L539.6022533518731,224.1199756556477L540.1376386379623,222.79035086632956L540.2714849594846,222.44773786667946L540.5391776025292,221.75038079381017L541.0745628886184,220.30762599821628L541.2084092101406,219.9370318824628L541.4761018531852,219.18408388063673L542.0114871392745,217.63167053449715L542.1453334607968,217.2339870002947L542.4130261038414,216.4272597603573L542.9484113899306,214.768923172141L543.0822577114529,214.34510709780878L543.3499503544975,213.48654171044868L543.8853356405867,211.72627205372476L544.0191819621091,211.27734319587296L544.2868746051537,210.36900548110557L544.8222598912429,208.511038193667L544.9561062127651,208.03807673352983L545.2237988558097,207.08215227006548L545.7591841418989,205.13095786291376L545.8930304634213,204.63510180729344L546.1607231064659,203.63389067375L546.227646267227,203.38162684127437L546.3614925887493,202.87476756589942L546.6291852317939,201.85180990200047L546.6961083925551,201.59416397446552L546.8299547140774,201.07660641753952L547.097647357122,200.0325176581545L547.1645705178831,199.7696446412793L547.2984168394054,199.2417001773374L547.56610948245,198.17710847028977L547.6330326432112,197.90916651453006L547.7668789647335,197.3711527671104L548.034571607778,196.28669859526798L548.1014947685393,196.01384890066953L548.2353410900615,195.46608955122295L548.5030337331061,194.36242534716936L548.5699568938672,194.08483206638755L548.7038032153896,193.52765665954254L548.9714958584342,192.4054464130597L549.0384190191953,192.12327655259926L549.1722653407177,191.55702029790223L549.4399579837623,190.41693915649677L549.5068811445234,190.1303624762393L549.6407274660457,189.55536604648245L549.9084201090903,188.39809990920384L549.9753432698515,188.10728882027428L550.1091895913738,187.52389814654117L550.3768822344184,186.35014325132687L550.4438053951795,186.05527271236778L550.5776517167018,185.46383877591234L550.8453443597464,184.27430128071606L550.9122675205076,183.9755486926295L551.0461138420299,183.3764273137166L551.3138064850745,182.17182287166833L551.3807296458357,181.8693679708855L551.5145759673579,181.2629195947233L551.7822686104025,180.04397292357388L551.8491917711636,179.7379976739225L551.983038092686,179.12458715380927L552.2507307357306,177.89203159992474L552.3176538964917,177.5827200831564L552.4515002180141,176.96271646097546L552.7191928610587,175.71729355813972L552.7861160218198,175.40483186318008L552.9199623433421,174.7786081473776L553.1876549863867,173.52106717066684L553.2545781471479,173.20564328166128L553.3884244686701,172.57357622283496L553.6561171117147,171.30467373783745L553.7230402724759,170.98647742105638L553.8568865939982,170.3489472852925L554.1245792370428,169.06944669294234L554.191502397804,168.7486693826112L554.3253487193263,168.1060597227102L554.5930413623709,166.81673080000542L554.659964523132,166.49356548313614L554.7938108446543,165.84626290785567L555.0615034876989,164.5478813447453L555.12842664846,164.22252244502846L555.2622729699824,163.57091638649314L555.529965613027,162.26426331920197L555.5968887737881,161.93690658003808L555.7307350953105,161.28138905944695L555.9984277383551,159.9672506005271L556.0653508991162,159.63809296726384L556.1991972206386,158.97905835904066L556.4668898636831,157.65822512442907L556.5338130244443,157.32746462587244L556.6676593459665,156.6653094204027L556.9353519890111,155.33857605376636L557.0022751497723,155.00641168304304L557.1361214712946,154.34153424813547L557.4038141143392,153.0096989427966L557.4707372751004,152.67633053763603L557.6045835966227,152.00913087885414L557.8722762396673,150.6729948975797L557.9391994004284,150.3386230200852L558.0730457219507,149.6695025400968L558.3407383649953,148.32986973303835L558.4076615257565,147.9946955490252L558.5415078472788,147.32405680610844L558.8092004903234,145.98173312718836L558.8761236510845,145.645958285159L559.0099699726069,144.97420475101282L559.2776626156515,143.62999777304495L559.3445857764126,143.2938242828701L559.4784320979348,142.62136009987893L559.7461247409794,141.27607852871182L559.8130479017407,140.93970864009947L559.9468942232629,140.26693837818905L560.2145868663075,138.9213915661726L560.2815100270687,138.58502764698747L560.415356348591,137.91235606022872L560.6830489916356,136.56735351928677L560.7499721523967,136.23119793380238L560.8838184739191,135.5590297169009L561.1515111169637,134.21538063151132L561.2184342777248,133.87963561866377L561.3522805992471,133.2083751634853L561.6199732422917,131.866887903857L561.6868964030529,131.53175545557144L561.8207427245752,130.86180660785234L562.0884353676198,129.52328824358904L562.1553585283809,129.1889699832577L562.2892048499032,128.5207357996412L562.5568974929479,127.18599161419087L562.623820653709,126.85268867537272L562.7576669752312,126.1865711809196L563.0253596182758,124.8564041870984L563.0922827790371,124.5243170925107L563.2261291005593,123.86071703883388L563.4938217436039,122.53592749571317L563.5607449043652,122.20525603659325L563.6945912258874,121.54457266075528L563.962283868932,120.22595759220832L564.0292070296931,119.89690070811565L564.1630533512155,119.23953149243764L564.4307459942601,117.9278842076327L564.4976691550212,117.60063986675999L564.6315154765435,116.94698029968933L564.8992081195881,115.64308991581433L564.9661312803493,115.31785499588787L565.0999776018716,114.6682983340607L565.3676702449162,113.37294930157475L565.4345934056773,113.04991947140593L565.5684397271996,112.40485650305709L565.8361323702442,111.11882813374493L565.9030555310054,110.79819773551242L566.0369018525276,110.15801654536745L566.3045944955722,108.88208254348817L566.3715176563335,108.56404447581815L566.5053639778557,107.92913021161144L566.7730566209003,106.6640582084215L566.8399797816614,106.34880381033351L566.9738261031838,105.71953845109658L567.2415187462284,104.46608954302309L567.3084419069895,104.15380847881693L567.4422882285119,103.53057060507021L567.7099808715565,102.28949889581881L567.7769040323176,101.98037904096913L567.91075035384,101.36354360695796L568.1784429968845,100.13559575382754L568.2453661576457,99.82982308195187L568.3792124791679,99.21976119006757L568.6469051222126,98.00567595474243L568.7138282829737,97.70343442571584L568.847674604496,97.10051310323087L569.1153672475406,95.90102090732526L569.1822904083018,95.60249235660712L569.316136729824,95.00707433486218L569.5838293728686,93.82289682048304L569.6507525336299,93.52826084971821L569.7845988551521,92.94070434589682L570.0522914981967,91.77255394148509L570.1192146589578,91.48198781045397L570.2530609804802,90.90264631206838L570.5207536235248,89.751225803788L570.5876767842859,89.46490432376092L570.7215231058083,88.89412637598795L570.9892157488529,87.76012848491149L571.056138909614,87.47822391347901L571.1899852311363,86.91635290946638L571.457677874181,85.80045987481904L571.5246010349421,85.52314181225876L571.6584473564643,84.97051578653102L571.9261399995089,83.87339895524059L571.9930631602701,83.60083424247995L572.1269094817924,83.05778566757081L572.394602124837,81.98010509036823L572.4615252855982,81.71245770861009L572.5953716071205,81.1793132950385L572.863064250165,80.12171732935701L572.9299874109262,79.85914830142559L573.0638337324485,79.33622880113825L573.3315263754931,78.29935372104751L573.3984495362542,78.04202101451162L573.5322958577766,77.52964102791299L573.7999885008212,76.51411064132023L574.3353737869104,74.52066327814666L574.4692201084326,74.03028057142606L574.7369127514773,73.05925926214513L575.2722980375665,71.1568573443329L575.4061443590888,70.68965184207798L575.6738370021334,69.76547601370208L576.2092222882226,67.95869696775443L576.3430686097449,67.51579282718399L576.6107612527895,66.6406861669847L577.1461465388787,64.9338773383356L577.2799928604011,64.51634024443007L577.5476855034457,63.69240837287748L578.0830707895349,62.08967656561191L578.2169171110571,61.69851116693815L578.4846097541017,60.9277365713026L579.0199950401909,59.43293816665323L579.1538413617133,59.06908565804838L579.4215340047579,58.35332292227923L579.956919290847,56.97005459967022L580.0907656123694,56.634390457604496L580.358458255414,55.97536179995981L580.8938435415032,54.70695188292905L581.0276898630254,54.400283758995585L581.29538250607,53.79957488816078L581.8307677921592,52.64907533597943L581.9646141136816,52.37214111358L582.2323067567262,51.831197413246116L582.7676920428154,50.80137647750871L583.8384626149938,48.9527605643751L584.1061552580384,48.53510501324263L584.6415405441276,47.753778629264815L585.7123111163058,46.409138911370064L587.8538522606626,44.605490746112736L589.8307538163494,44.003779019696964L591.7370929379776,44.3968219147975L592.0983358690474,44.57884028104593L592.8208217311868,45.04521123743092L594.2657934554658,46.384699026474266L594.6270363865355,46.80362848729544L595.3495222486749,47.741349389502915L595.5301437142098,47.99646296698114L595.8913866452796,48.53135301106681L596.613872507419,49.69909952097876L596.7944939729539,50.011294567991825L597.1557369040237,50.65980184110066L597.878222766163,52.0524580591661L598.058844231698,52.420366848653686L598.4200871627677,53.179650239261036L599.1425730249072,54.791114936094516L599.323194490442,55.21312565899109L599.6844374215118,56.07985874520307"/></g><g transform="translate(0, 140)" class="x-axis" fill="none" font-size="10" font-family="sans-serif" text-anchor="middle"><path class="domain" stroke="currentColor" d="M0 0.5L600 0.5"/><g class="tick" opacity="1" transform="translate(20.5,0)"><line stroke="currentColor" y2="8" transform="translate(0, -4)"/><text fill="currentColor" y="9" dy="0.71em" display="">0.000s</text></g><g class="tick" opacity="1" transform="translate(32.5,0)"><line stroke="currentColor" y2="4" transform="translate(0, -2)"/></g><g class="tick" opacity="1" transform="translate(44.5,0)"><line stroke="currentColor" y2="4" transform="translate(0, -2)"/></g><g class="tick" opacity="1" transform="translate(56.5,0)"><line stroke="currentColor" y2="4" transform="translate(0, -2)"/></g><g class="tick" opacity="1" transform="translate(68.5,0)"><line stroke="currentColor" y2="4" transform="translate(0, -2)"/></g><g class="tick" opacity="1" transform="translate(80.5,0)"><line stroke="currentColor" y2="8" transform="translate(0, -4)"/><text fill="currentColor" y="9" dy="0.71em" display="">0.010s</text></g><g class="tick" opacity="1" transform="translate(92.5,0)"><line stroke="currentColor" y2="4" transform="translate(0, -2)"/></g><g class="tick" opacity="1" transform="translate(104.5,0)"><line stroke="currentColor" y2="4" transform="translate(0, -2)"/></g><g class="tick" opacity="1" transform="translate(116.5,0)"><line stroke="currentColor" y2="4" transform="translate(0, -2)"/></g><g class="tick" opacity="1" transform="translate(128.5,0)"><line stroke="currentColor" y2="4" transform="translate(0, -2)"/></g><g class="tick" opacity="1" transform="translate(140.5,0)"><line stroke="currentColor" y2="8" transform="translate(0, -4)"/><text fill="currentColor" y="9" dy="0.71em" display="">0.020s</text></g><g class="tick" opacity="1" transform="translate(152.5,0)"><line stroke="currentColor" y2="4" transform="translate(0, -2)"/></g><g class="tick" opacity="1" transform="translate(164.5,0)"><line stroke="currentColor" y2="4" transform="translate(0, -2)"/></g><g class="tick" opacity="1" transform="translate(176.5,0)"><line stroke="currentColor" y2="4" transform="translate(0, -2)"/></g><g class="tick" opacity="1" transform="translate(188.5,0)"><line stroke="currentColor" y2="4" transform="translate(0, -2)"/></g><g class="tick" opacity="1" transform="translate(200.5,0)"><line stroke="currentColor" y2="8" transform="translate(0, -4)"/><text fill="currentColor" y="9" dy="0.71em" display="">0.030s</text></g><g class="tick" opacity="1" transform="translate(212.5,0)"><line stroke="currentColor" y2="4" transform="translate(0, -2)"/></g><g class="tick" opacity="1" transform="translate(224.50000000000003,0)"><line stroke="currentColor" y2="4" transform="translate(0, -2)"/></g><g class="tick" opacity="1" transform="translate(236.50000000000003,0)"><line stroke="currentColor" y2="4" transform="translate(0, -2)"/></g><g class="tick" opacity="1" transform="translate(248.5,0)"><line stroke="currentColor" y2="4" transform="translate(0, -2)"/></g><g class="tick" opacity="1" transform="translate(260.5,0)"><line stroke="currentColor" y2="8" transform="translate(0, -4)"/><text fill="currentColor" y="9" dy="0.71em" display="">0.040s</text></g><g class="tick" opacity="1" transform="translate(272.5,0)"><line stroke="currentColor" y2="4" transform="translate(0, -2)"/></g><g class="tick" opacity="1" transform="translate(284.5,0)"><line stroke="currentColor" y2="4" transform="translate(0, -2)"/></g><g class="tick" opacity="1" transform="translate(296.5,0)"><line stroke="currentColor" y2="4" transform="translate(0, -2)"/></g><g class="tick" opacity="1" transform="translate(308.5,0)"><line stroke="currentColor" y2="4" transform="translate(0, -2)"/></g><g class="tick" opacity="1" transform="translate(320.5,0)"><line stroke="currentColor" y2="8" transform="translate(0, -4)"/><text fill="currentColor" y="9" dy="0.71em" display="">0.050s</text></g><g class="tick" opacity="1" transform="translate(332.5,0)"><line stroke="currentColor" y2="4" transform="translate(0, -2)"/></g><g class="tick" opacity="1" transform="translate(344.5,0)"><line stroke="currentColor" y2="4" transform="translate(0, -2)"/></g><g class="tick" opacity="1" transform="translate(356.5,0)"><line stroke="currentColor" y2="4" transform="translate(0, -2)"/></g><g class="tick" opacity="1" transform="translate(368.5,0)"><line stroke="currentColor" y2="4" transform="translate(0, -2)"/></g><g class="tick" opacity="1" transform="translate(380.5,0)"><line stroke="currentColor" y2="8" transform="translate(0, -4)"/><text fill="currentColor" y="9" dy="0.71em" display="">0.060s</text></g><g class="tick" opacity="1" transform="translate(392.5,0)"><line stroke="currentColor" y2="4" transform="translate(0, -2)"/></g><g class="tick" opacity="1" transform="translate(404.5,0)"><line stroke="currentColor" y2="4" transform="translate(0, -2)"/></g><g class="tick" opacity="1" transform="translate(416.5,0)"><line stroke="currentColor" y2="4" transform="translate(0, -2)"/></g><g class="tick" opacity="1" transform="translate(428.50000000000006,0)"><line stroke="currentColor" y2="4" transform="translate(0, -2)"/></g><g class="tick" opacity="1" transform="translate(440.50000000000006,0)"><line stroke="currentColor" y2="8" transform="translate(0, -4)"/><text fill="currentColor" y="9" dy="0.71em" display="">0.070s</text></g><g class="tick" opacity="1" transform="translate(452.50000000000006,0)"><line stroke="currentColor" y2="4" transform="translate(0, -2)"/></g><g class="tick" opacity="1" transform="translate(464.5,0)"><line stroke="currentColor" y2="4" transform="translate(0, -2)"/></g><g class="tick" opacity="1" transform="translate(476.5,0)"><line stroke="currentColor" y2="4" transform="translate(0, -2)"/></g><g class="tick" opacity="1" transform="translate(488.5,0)"><line stroke="currentColor" y2="4" transform="translate(0, -2)"/></g><g class="tick" opacity="1" transform="translate(500.5,0)"><line stroke="currentColor" y2="8" transform="translate(0, -4)"/><text fill="currentColor" y="9" dy="0.71em" display="">0.080s</text></g><g class="tick" opacity="1" transform="translate(512.5,0)"><line stroke="currentColor" y2="4" transform="translate(0, -2)"/></g><g class="tick" opacity="1" transform="translate(524.5,0)"><line stroke="currentColor" y2="4" transform="translate(0, -2)"/></g><g class="tick" opacity="1" transform="translate(536.5,0)"><line stroke="currentColor" y2="4" transform="translate(0, -2)"/></g><g class="tick" opacity="1" transform="translate(548.5,0)"><line stroke="currentColor" y2="4" transform="translate(0, -2)"/></g><g class="tick" opacity="1" transform="translate(560.5,0)"><line stroke="currentColor" y2="8" transform="translate(0, -4)"/><text fill="currentColor" y="9" dy="0.71em" display="">0.090s</text></g><g class="tick" opacity="1" transform="translate(572.5,0)"><line stroke="currentColor" y2="4" transform="translate(0, -2)"/></g><g class="tick" opacity="1" transform="translate(584.5,0)"><line stroke="currentColor" y2="4" transform="translate(0, -2)"/></g><g class="tick" opacity="1" transform="translate(596.5,0)"><line stroke="currentColor" y2="4" transform="translate(0, -2)"/></g></g><g class="hide-rect-wrap"><rect x="0" y="0" height="20" width="600" class="hide-rect hide-rect-top"/><rect x="0" y="260" height="20" width="600" class="hide-rect hide-rect-bottom"/><rect x="0" y="0" height="280" width="20" class="hide-rect hide-rect-left"/><rect x="580" y="0" height="280" width="20" class="hide-rect hide-rect-right"/></g><g transform="translate(20, 0)" class="y-axis y-axis1" display="" fill="none" font-size="10" font-family="sans-serif" text-anchor="start"><path class="domain" stroke="currentColor" d="M0.5,260.5V20.5"/><g class="tick" opacity="1" transform="translate(0,260.5)"><line stroke="currentColor" x2="6"/><text fill="currentColor" x="9" dy="0.32em">-60V</text></g><g class="tick" opacity="1" transform="translate(0,220.5)"><line stroke="currentColor" x2="6"/><text fill="currentColor" x="9" dy="0.32em">-40V</text></g><g class="tick" opacity="1" transform="translate(0,180.5)"><line stroke="currentColor" x2="6"/><text fill="currentColor" x="9" dy="0.32em">-20V</text></g><g class="tick" opacity="1" transform="translate(0,140.5)"><line stroke="currentColor" x2="6"/><text fill="currentColor" x="9" dy="0.32em">0V</text></g><g class="tick" opacity="1" transform="translate(0,100.5)"><line stroke="currentColor" x2="6"/><text fill="currentColor" x="9" dy="0.32em">20V</text></g><g class="tick" opacity="1" transform="translate(0,60.5)"><line stroke="currentColor" x2="6"/><text fill="currentColor" x="9" dy="0.32em">40V</text></g><g class="tick" opacity="1" transform="translate(0,20.5)"><line stroke="currentColor" x2="6"/><text fill="currentColor" x="9" dy="0.32em">60V</text></g></g></svg>