<svg xmlns="http://www.w3.org/2000/svg" width="600" height="280" class="oscilloscope-svg" viewBox="0 0 600 280"><rect width="600" height="260" x="0" y="20" fill="white"/><style>.horizontal-line-wrap path, .vertical-line-wrap path {	stroke: #ddd;	stroke-dasharray: 4, 4;}.oscilloscope-svg.reverse {	background-color: #000;}.oscilloscope-svg .rod-text {	text-anchor: middle;	stroke: white;	dominant-baseline: ideographic;	font-size: 10px;}.oscilloscope-svg.reverse .rod-text {	stroke: #000;}.oscilloscope-svg.reverse .x-axis, .oscilloscope-svg.reverse .y-axis {	color: #fff;}.oscilloscope-svg.reverse .hide-rect-wrap {	fill: #000;}.oscilloscope-svg.reverse .rod-a {	fill: yellow;	stroke: yellow;}.oscilloscope-svg.reverse .rod-b {	fill: #4ef3bc;	stroke: #4ef3bc;}.oscilloscope-svg.reverse .rod-a .rod-a-caret {	fill: yellow;}.oscilloscope-svg.reverse .rod-b .rod-b-caret {	fill: #4ef3bc;}.hide-rect-wrap {	fill: #fff;}.oscilloscope-svg .rod-a-caret {	fill: red;	stroke: none;}.rod-a, .rod-b {	cursor: pointer;	stroke-width: 1px;}.rod-a {	stroke: red;}.rod-b {	stroke: blue;}.oscilloscope-svg .rod-b-caret {	fill: blue;	stroke: none;}.channel-a {	fill: none;	stroke: red;	stroke-width: 1;}.channel-b {	fill: none;	stroke: blue;	stroke-width: 1;}</style><g class="horizontal-line-wrap"><path d="M0 140.5L600 140.5"/><path d="M0 100.5L600 100.5"/><path d="M0 60.5L600 60.5"/><path d="M0 20.5L600 20.5"/><path d="M0 180.5L600 180.5"/><path d="M0 220.5L600 220.5"/></g><g class="vertical-line-wrap"><path d="M20,20L20,260"/><path d="M80,20L80,260"/><path d="M140,20L140,260"/><path d="M200,20L200,260"/><path d="M260,20L260,260"/><path d="M320,20L320,260"/><path d="M380,20L380,260"/><path d="M440,20L440,260"/><path d="M500,20L500,260"/><path d="M560,20L560,260"/></g><g class="channel-a" transform="translate(0, 0)"><path d="M20.00000599999983,140.00001507964282L20.00001199999966,140.0000301592856L20.00002399999932,140.0000603185712L20.000047999998642,140.0001206371424L20.000095999997285,140.0002412742848L20.00019199999457,140.00048254856964L20.00038399998914,140.00096509713921L20.00076799997828,140.00193019427803L20.00153599995656,140.00386038855294L20.003071999913118,140.00772077708095L20.006143999826236,140.01544155396215L20.01228799965247,140.0308831063262L20.024575999304943,140.06176619986803L20.049151998609887,140.12353229746083L20.098303997219773,140.24706377672086L20.196607994439546,140.49412100786805L20.393215988879092,140.98818965218703L20.786431977758184,141.97596042927597L21.572863955516368,143.94857092301163L21.769471949955914,144.44080800815976L22.162687938835006,145.4238182454714L22.94911991659319,147.38252584986185L23.145727911032736,147.87037642786066L23.53894389991183,148.84352382795657L24.325375877670012,150.77816190544993L24.52198387210956,151.25909379640953L24.91519986098865,152.2173272547353L25.701631838746835,154.11785410023796L25.89823983318638,154.58937103559248L26.29145582206547,155.52771685814753L27.077887799823657,157.3842678203187L27.274495794263203,157.84392239966468L27.667711783142295,158.7575101188739L28.45414376090048,160.5604488024259L28.650751755340025,161.00585519671117L29.043967744219117,161.88994285150176L29.8303997219773,163.62991113474104L30.027007716416847,164.05875746986868L30.42022370529594,164.9087562187361L31.206655683054123,166.57672282673028L31.40326367749367,166.9867831833007L31.79647966637276,167.79828112261018L32.582911644130945,169.3855885038625L32.77951963857049,169.77473447076918L33.17273562744958,170.54351953466434L33.95916760520777,172.04192879798325L34.15577559964731,172.40814051989332L34.548991588526405,173.13022234295036L35.33542356628459,174.53195602127013L35.532031560724135,174.8733326826481L35.92524754960323,175.5449633117977L36.71167952736141,176.84274573098517L36.90828752180096,177.15751542224274L37.30150351068005,177.7752087704548L38.087935488438234,178.96230381356864L38.28454348287778,179.24883272813042L38.67775947175687,179.80938266888796L39.464191449515056,180.8796287398758L41.037055405031424,182.8105086623014L41.430271393910516,183.2483549178624L42.2167033716687,184.0688731002387L43.78956732718507,185.4845091741684L46.935295238217805,187.38332407325194L49.14528917568856,187.9519362353313L51.48214058292474,187.8555279907182L54.212462510784306,186.83715729345167L54.7656325337019,186.51339234841274L55.87197257953709,185.7491135418084L58.084652671207486,183.76321172119887L58.637822694125084,183.17383944310117L59.74416273996028,181.88697057400574L60.02074775141908,181.54311830577686L60.57391777433668,180.8293500155255L61.68025782017188,179.2996918447477L61.956842831630674,178.89646723126063L62.51001285454827,178.06563178002142L63.61635290038347,176.3088905769785L63.89293791184227,175.85043385984804L64.44610793475987,174.91106212444546L65.55244798059506,172.945275808431L65.82903299205387,172.4362943430997L66.38220301497145,171.39803163242755L66.52049552070085,171.134316093878L66.79708053215965,170.6020016686852L67.35025055507725,169.51823193349344L67.48854306080665,169.24338456233028L67.76512807226544,168.6891044837448L68.31829809518305,167.56261150237833L68.45659060091245,167.27733827343667L68.73317561237124,166.70251626905457L69.28634563528884,165.53619355908032L69.42463814101825,165.24122722712463L69.70122315247704,164.64733978867298L70.25439317539464,163.4441831745708L70.39268568112404,163.14028139213633L70.66927069258284,162.52885398294626L71.22244071550043,161.29195390101387L71.36073322122984,160.9798972722948L71.63731823268864,160.3525004089862L72.19048825560623,159.08503396922316L72.32878076133562,158.7656240450077L72.60536577279444,158.12386926344942L73.15853579571203,156.82909208881085L73.29682830144142,156.50314930761223L73.57341331290023,155.84868502351986L74.12658333581783,154.52992288750113L74.26487584154722,154.19828446817357L74.54146085300603,153.53279174297785L75.09463087592363,152.19343202700983L75.23292338165302,151.85694981826265L75.50950839311182,151.18213804112344L76.06267841602941,149.82562103372163L76.20097092175882,149.4851593260547L76.47755593321762,148.80276182311235L77.03072595613521,147.43257188312825L77.16901846186462,147.0890051888095L77.44560347332342,146.4007747709515L77.998773496241,145.02043137762456L78.13706600197041,144.67464218441194L78.41365101342922,143.9823466449908L78.9668210363468,142.59539535779015L79.10511354207621,142.24827186216737L79.38169855353502,141.55368943623472L79.9348685764526,140.16369278771077L80.073161082182,139.81612661345991L80.34974609364079,139.12104141017957L80.9029161165584,137.73156975521874L81.0412086222878,137.38445366318916L81.3177936337466,136.69065108316232L81.8709636566642,135.3052734281489L82.0092561623936,134.95949902310565L82.28584117385239,134.2687611723788L82.83901119677,132.89103600782084L82.9773037024994,132.5474914482627L83.25388871395819,131.86159256079748L83.8070587368758,130.49505872096378L83.9453512426052,130.15462643779318L84.221936254064,129.4753283181573L84.7751062769816,128.12349589120356L84.913398782711,127.7870503211085L85.1899837941698,127.11609781909226L85.7431538170874,125.78243913102455L85.8814463228168,125.45084447039466L86.15803133427559,124.78996099917794L86.7112013571932,123.47790169481263L86.8494938629226,123.15200967995821L87.1260788743814,122.50289278933965L87.67924889729899,121.21580303316847L87.8175414030284,120.89645075254504L88.09412641448719,120.26076776860398L88.6472964374048,119.0019535881666L88.7855889431342,118.68996133222367L89.06217395459299,118.06934507461489L89.6153439775106,116.84203986861408L89.75363648324,116.53820902279145L90.03022149469881,115.93425361067366L90.58339151761635,114.74160984364514L90.72168402334573,114.44672082992884L90.9982690348046,113.86097758729915L91.55143905772213,112.70605869216976L91.68973156345155,112.42086896449479L91.96631657491034,111.85484243544741L92.51948659782794,110.74061494478036L92.65777910355735,110.46585704342928L92.93436411501614,109.92100112757319L93.48753413793375,108.85032705371219L93.62582664366313,108.58670672370732L93.90241165512194,108.06442094166985L94.45558167803954,107.0400504253547L95.56192172387473,105.07509082490955L95.83850673533354,104.6019085312854L96.39167675825115,103.67791305121312L97.49801680408635,101.92207794170997L97.77460181554514,101.50285769165157L98.32777183846274,100.68872467594667L99.43411188429793,99.16004267306505L99.71069689575674,98.79908894865756L100.26386691867434,98.10317777638289L101.37020696450953,96.81734512641438L101.64679197596834,96.51836413898727L102.19996199888594,95.94782030746433L103.30630204472114,94.91803972093064L105.51898213639154,93.31513449829166L107.35395283878098,92.45995286931213L109.36537654719163,92.02650204964263L111.56404884726038,92.16087157308067L114.34567164805459,93.23722696556553L114.90904237140063,93.5769246097878L116.03578381809267,94.37716319969314L116.3174691797657,94.60214785725901L116.88083990311173,95.08169218380289L118.00758134980377,96.15757584072097L118.28926671147674,96.45054081524125L118.85263743482281,97.06482483609989L119.97937888151486,98.40489575596848L120.26106424318785,98.76272106764475L120.82443496653386,99.50520286176169L121.95117641322591,101.09518973380233L122.23286177489895,101.51406466176033L122.79623249824495,102.37683704431856L123.92297394493698,104.19980703576243L124.20465930660998,104.67527070096537L124.76803002995605,105.64914543228306L124.90887271079252,105.89731773761699L125.19055807246556,106.39921257828081L125.75392879581159,107.42481896849685L125.89477147664809,107.68568451742308L126.17645683832113,108.2126733895538L126.73982756166716,109.28727902678872L126.88067024250363,109.56014282351589L127.16235560417667,110.11082172781286L127.7257263275227,111.2315636568072L127.86656900835919,111.51569873991343L128.14825437003225,112.0886005622925L128.71162509337825,113.25249291186813L128.85246777421477,113.54714229106571L129.13415313588774,114.14074071133209L129.69752385923377,115.34468264932491L129.8383665400703,115.64906132222723L130.12005190174335,116.26177488048495L130.68342262508935,117.50255887495587L130.82426530592588,117.81585591847426L131.10595066759885,118.44605222843819L131.66932139094487,119.72037259315238L131.8101640717814,120.04175332395056L132.09184943345446,120.68775342193618L132.65522015680045,121.99221512334469L132.79606283763698,122.32082332159499L133.07774819930995,122.9809061395992L133.64111892265598,124.31203384185852L133.7819616034925,124.64699403237555L134.06364696516556,125.31940098333172L134.62701768851156,126.67364830726405L134.76786036934809,127.01406809193827L135.04954573102106,127.69700775492876L135.61291645436708,129.0707667262556L135.7537591352036,129.41573916157296L136.03544449687666,130.1073920545178L136.59881522022266,131.49700271619463L136.7396579010592,131.84560872950752L137.02134326273216,132.544132156613L137.58471398607819,133.9458923196557L137.7255566669147,134.29720315776888L138.00724202858777,135.00073611882235L138.57061275193377,136.41091122564796L138.71145543277026,136.76399092919462L138.99314079444326,137.47065907762538L139.55651151778935,138.8854921516288L139.6973541986258,139.23940004864596L139.97903956029882,139.9473206851435L140.54241028364487,141.36304234000283L140.68325296448137,141.71683555206144L140.96493832615437,142.42412264044722L141.52830904950042,143.83696112249095L141.6691517303369,144.1896970767046L141.95083709200992,144.89446626869352L142.51420781535597,146.30065750557478L142.65505049619247,146.6513964457945L142.93673585786547,147.3517701012599L143.50010658121153,148.7475677301662L143.640949262048,149.09537522067083L143.92263462372102,149.78948741003722L144.48600534706708,151.17117275871868L144.62684802790358,151.51512217373062L144.90853338957663,152.20112364916758L145.47190411292263,153.56501564319205L145.6127467937591,153.90419063558585L145.89443215543213,154.5802537577585L146.45780287877818,155.92271872759895L146.59864555961468,156.25621567022557L146.8803309212877,156.92053927747585L147.44370164463373,158.23800063930202L147.5845443254703,158.5649310324246L147.86622968714323,159.21574523941095L148.42960041048926,160.50469302379383L148.57044309132579,160.8241858622212L148.8521284529988,161.45975677523205L149.41549917634484,162.71675697837475L149.55634185718137,163.0279610719862L149.83802721885434,163.646595408365L150.40139794220036,164.86829914094662L150.5422406230369,165.17038538242528L150.82392598470992,165.77043498179987L151.38729670805594,166.9535873910582L151.52813938889244,167.2457509647918L151.80982475056544,167.82561718008932L152.37319547391147,168.967066121372L152.514038154748,169.24852864763588L152.79572351642102,169.8066666041848L153.35909423976702,170.90337103886654L153.49993692060355,171.17338264757632L153.78162228227654,171.70830535894848L154.34499300562257,172.75734345634032L154.4858356864591,173.0151847848494L154.76752104813212,173.52546711447667L155.33089177147812,174.52404403614293L156.45763321817017,176.43024015565103L156.73931857984317,176.8872325208131L157.30268930318923,177.77704741648847L158.42943074988128,179.45732555315806L158.71111611155428,179.85616113675601L159.27448683490027,180.62773777296422L160.40122828159232,182.06420352200888L160.68291364326535,182.40063485737613L161.24628436661138,183.0457561988831L162.37302581330343,184.223111676569L164.6265087066875,186.11263529471466L166.97077596200683,187.39749030496546L169.1892287075856,187.9567497924317L171.49849833817032,187.85232319267115L174.239066870604,186.82248333934854L174.7942754561676,186.49556297927L175.90469262729488,185.7241594198272L176.18229692007668,185.50705093782517L176.73750550564034,185.04403877635298L177.8479226767676,184.00424538383925L178.1255269695494,183.72091260601178L178.68073555511302,183.12659784758145L179.79115272624026,181.8291698106115L180.06875701902206,181.48254341288725L180.62396560458572,180.76307340116287L181.734382775713,179.2214307735204L182.0119870684948,178.81509611459967L182.56719565405837,177.9779127469182L183.67761282518566,176.20800163612427L183.95521711796744,175.7461616720258L184.5104257035311,174.79992442351877L185.62084287465836,172.8200520509548L185.89844716744017,172.30748386139416L186.45365575300377,171.26198021499337L186.5924578993947,170.99644152525138L186.87006219217653,170.46046668253592L187.42527077774014,169.36932526162005L187.564072924131,169.09262555364884L187.84167721691287,168.53463092992055L188.39688580247648,167.40067513872225L188.53568794886738,167.11353039223977L188.81329224164918,166.5349598373537L189.36850082721284,165.36112386526338L189.50730297360374,165.06427708725025L189.78490726638555,164.4666276927129L190.34011585194918,163.25594892185975L190.4789179983401,162.9501682239772L190.75652229112188,162.33498644911828L191.3117308766855,161.0905975949326L191.45053302307642,160.7766742059804L191.72813731585825,160.14555187638146L192.28334590142185,158.87067288147657L192.42214804781275,158.54941910003305L192.69975234059456,157.90398928856865L193.25496092615822,156.60191899091495L193.39376307254912,156.27416608345862L193.67136736533092,155.61609888460669L194.22657595089458,154.29020648155955L194.3653780972855,153.95680253150874L194.6429823900673,153.28780073986496L195.1981909756309,151.94151707013273L195.33699312202182,151.60332478337105L195.61459741480365,150.92511948754975L196.16980600036723,149.56192815365966L196.30860814675813,149.21982262622492L196.58621243954,148.53416872954665L197.1414210251036,147.1575970837818L197.2802231714945,146.8124635374937L197.5578274642763,146.1211352170514L198.11303604983996,144.73474523418156L198.25183819623086,144.38747672606883L198.52944248901267,143.69226284192123L199.08465107457633,142.29964190234517L199.22345322096723,141.95113701379898L199.501057513749,141.25383648017055L200.0562660993126,139.85858808732075L200.1950682457036,139.50974859895217L200.47267253848537,138.81216572941815L201.02788112404897,137.41790018544492L201.16668327043988,137.06962874366542L201.44428756322176,136.37356858236478L201.99949614878534,134.98389364622844L202.13829829517624,134.63709142758964L202.41590258795804,133.94435507854786L202.9711111735217,132.56286663069235L203.1099133199126,132.2184310100286L203.3875176126944,131.53081097667618L203.94272619825804,130.16108371443806L204.08152834464894,129.81990594284738L204.35913263743078,129.13918148979246L204.91434122299435,127.78475967762336L205.05314336938525,127.4477225762927L205.3307476621671,126.77565512535034L205.88595624773072,125.44004342378676L206.02475839412162,125.10801909963115L206.30236268690342,124.44634767202209L206.85757127246708,123.13300206913217L206.99637341885798,122.80684965815763L207.2739777116398,122.1572863746697L207.82918629720345,120.86960524344468L207.96798844359435,120.55016868767362L208.24559273637615,119.9143943384309L208.8008013219398,118.65570964325838L208.9396034683307,118.34381550697157L209.2172077611125,117.72347520227251L209.77241634667618,116.49704387724745L209.91121849306708,116.19349920819099L210.18882278584886,115.59019812167165L210.7440313714125,114.3991936430528L210.88283351780333,114.10478388414651L211.16043781058525,113.52008309928223L211.71564639614883,112.36758727390196L211.85444854253973,112.08307423085091L212.1320528353215,111.51848670154396L212.68726142088516,110.40748169241937L212.82606356727607,110.13360156248865L213.1036678600579,109.59058819819546L213.65887644562153,108.52394880797368L213.79767859201243,108.26141027502723L214.07528288479423,107.74137616055333L214.6304914703578,106.72186239276041L215.7409086414851,104.76803703667929L216.01851293426697,104.29793535274246L216.57372151983057,103.38045825092703L217.6841386909578,101.63908850968551L217.96174298373964,101.22378179178085L218.5169515693033,100.41783135592829L219.62736874043054,98.9069292309006L219.90497303321231,98.5507132382782L220.46018161877595,97.86462588311659L221.57059878990322,96.59981951490252L221.84820308268502,96.30637879702755L222.40341166824865,95.7472511236355L223.51382883937595,94.74162314110072L225.73466318163037,93.1920953167459L227.6454541866395,92.36431606756653L229.4605231425656,92.01915288361431L231.59944137489242,92.168230082695L234.40322573093107,93.27006928026233L234.9709986857848,93.61675357541691L236.10654459549215,94.43274897188948L236.39043107291894,94.66203543218347L236.95820402777264,95.15060668846675L238.09374993747997,96.24618532691937L238.37763641490682,96.54440433835083L238.9454093697605,97.16957787454677L240.08095527946784,98.53288931601702L240.36484175689472,98.89681516199354L240.93261471174833,99.65182872428338L242.06816062145572,101.26812657042353L242.35204709888257,101.69382280962247L242.9198200537363,102.57050971619839L244.05536596344365,104.42231111520897L244.33925244087044,104.90517316049974L244.90702539572413,105.89405063731806L245.04896863443753,106.14601412605666L245.33285511186443,106.65553699058628L245.9006280667181,107.69657011315812L246.04257130543147,107.96132538901145L246.3264577828583,108.49613031344558L246.894230737712,109.58650206562697L247.03617397642537,109.86333270577416L247.32006045385225,110.42197251799757L247.88783340870594,111.5587323742364L248.02977664741934,111.8468892801468L248.31366312484624,112.42785231128408L248.88143607969988,113.60792422068681L249.02337931841328,113.90662764516668L249.30726579584012,114.5083418201298L249.87503875069382,115.72853253019781L250.0169819894072,116.03697418737161L250.30086846683406,116.65781127886581L250.86864142168778,117.91481897637675L251.01058466040115,118.23216422889342L251.294471137828,118.87044426336973L251.8622440926817,120.1608675090225L252.00418733139514,120.4862576265686L252.28807380882193,121.14025343020089L252.85584676367563,122.46060036284638L252.99779000238902,122.7931548458545L253.28167647981593,123.46109671823939L253.84944943466954,124.80779450379168L253.99139267338296,125.14661346605541L254.2752791508098,125.82669396898854L254.8430521056635,127.19609846844699L254.98499534437687,127.54026507219635L255.26888182180375,128.23064392056634L255.83665477665744,129.61904955098748L255.97859801537084,129.9676324878347L256.2624844927976,130.66644152940012L256.8302574476514,132.07009129113575L256.97220068636483,132.42214730217842L257.2560871637916,133.12749557275288L257.8238601186453,134.54259121582078L257.9658033573587,134.89716764408266L258.24968983478556,135.6071464844485L258.8174627896393,137.02985878652584L258.95940602835265,137.3859961548289L259.2432925057795,138.09868437553317L259.8110654606332,139.5251635037604L259.95300869934664,139.88189811105207L260.23689517677343,140.59536719110946L260.8046681316271,142.02175311966596L260.9466113703405,142.37811964877616L261.2304978477674,143.09043895421053L261.798270802621,144.5128719094722L261.94021404133446,144.8679060392435L262.2241005187613,145.5771480473473L262.791873473615,146.99177895236187L262.9338167123284,147.34451996708458L263.21770318975524,148.04876548225917L263.785476144609,149.4517663722763L263.92741938332233,149.801259761367L264.2113058607491,150.4986031084302L264.7790788156029,151.88617748930238L264.9210220543163,152.2314775301919L265.2049085317431,152.92003171109923L265.7726814865968,154.28842483252402L265.9146247253102,154.62859714976494L266.1985112027371,155.30649894979092L266.7662841575908,156.65200796559486L266.90822739630414,156.98613205926398L267.192113873731,157.65154708882653L267.7598868285847,158.97053107679764L267.90183006729814,159.29770281335146L268.1857165447249,159.94883047183563L268.7534894995786,161.23772028599078L268.895432738292,161.5570543448341L269.1793192157189,162.19213269298362L269.74709217057256,163.44744062161072L269.88903540928595,163.75807289075755L270.1729218867128,164.37538341844947L270.7406948415665,165.59371262179008L270.8826380802799,165.89480253613436L271.16652455770674,166.4926748126354L271.7342975125605,167.67072851466958L271.8762407512738,167.96146133053884L272.1601272287006,168.53827752465955L272.72790018355437,169.67286793412L272.8698434222678,169.9524569339563L273.1537298996946,170.50665619187205L273.7215028545483,171.5947131283477L273.8634460932617,171.86240174955077L274.1473325706886,172.39248441844296L274.7151055255422,173.43106362022957L275.8506514352496,175.41869922475553L276.1345379126764,175.89631467474143L276.7023108675301,176.82764877015774L277.8378567772375,178.59188669894422L278.1217432546643,179.01186875341284L278.689516209518,179.82588387147962L279.8250621192253,181.34764106361578L280.10894859665217,181.70544694350303L280.67672155150586,182.39333820601934L281.8122674612132,183.65615441840805L282.0961539386401,183.94791387963363L282.6639268934937,184.50224064004698L283.799472803201,185.49245649131612L286.07056462261573,186.9876323509093L288.0729488619302,187.75586222545144L290.21988065376,187.99681409243567L292.15803269106715,187.693895883269L295.31108110274585,186.15594074545788L295.9478568725074,185.69103468597086L297.22140841203066,184.60943180459466L297.53979629691145,184.3078412634813L298.1765720666731,183.66780697446563L299.45012360619637,182.2428865713776L299.76851149107716,181.8570516455399L300.4052872608388,181.05059508832593L301.678838800362,179.30173940935407L301.9972266852429,178.8369083550214L302.63400245500446,177.87499922251794L302.79319639744483,177.62790100146196L303.1115842823257,177.12587896598365L303.7483600520873,176.0910245983507L303.90755399452775,175.8259967898942L304.22594187940854,175.28849239516325L304.8627176491701,174.18421489841126L305.02191159161055,173.90215951936574L305.34029947649134,173.3310021507706L305.9770752462529,172.16105991113255L306.1362691886934,171.86293693130335L306.45465707357414,171.2600705114517L307.0914328433358,170.02844540379132L307.25062678577615,169.71526947873966L307.56901467065694,169.08274585135672L308.2057904404186,167.7936296869376L308.364984382859,167.4664667046207L308.68337226773986,166.80643865114075L309.32014803750144,165.46421891088085L309.4793419799418,165.12418236392378L309.79772986482266,164.4388962765416L310.4345056345842,163.0481411783104L310.5936995770246,162.6963883742564L310.9120874619055,161.98817661037688L311.54886323166704,160.55361956115775L311.70805717410747,160.19134768359518L312.02644505898826,159.46262062770165L312.66322082874996,157.98914411353647L312.82241477119027,157.6175861475089L313.1408026560711,156.870824007468L313.77757842583276,155.3634429760144L313.9367723682731,154.9838635115803L314.2551602531539,154.22160787730473L314.89193602291556,152.68545266956227L315.0511299653559,152.2991435977886L315.3695178502368,151.52398879098678L316.00629361999836,149.96428768028494L316.1654875624387,149.57256379632165L316.4838754473196,148.78714804077612L317.12065121708116,147.20920943845115L317.2798451595216,146.81340396665274L317.5982330444024,146.02040040907838L318.235008814164,144.4295947974021L318.3942027566044,144.03105485372504L318.71259064148524,143.2331624657682L319.3493664112468,141.6349041196201L319.5085603536872,141.23498612674064L319.82694823856804,140.43492051908368L320.4637240083297,138.8346490785746L320.6229179507701,138.434714149332L320.9413058356509,137.63519832916668L321.5780816054125,136.03836028593383L321.7372755478529,135.63976959080955L322.0556634327337,134.84352469413707L322.6924392024953,133.25555485431897L322.85163314493576,132.85966498872122L323.1700210298165,132.06940101902018L323.80679679957814,130.49570400600382L323.9659907420185,130.10386237312147L324.2843786268993,129.3222689779063L324.92115439666094,127.76820083779964L325.08034833910136,127.38174106274315L325.3987362239822,126.61147837940231L326.0355119937438,125.0823283518396L326.19470593618416,124.70256574267452L326.513093821065,123.94625534474682L327.14986959082654,122.44722786106774L327.309063533267,122.07545493219072L327.62745141814787,121.33567090689223L328.2642271879094,119.87186787696481L328.4234211303498,119.50934995005574L328.7418090152306,118.78861013742608L329.3785847849923,117.36501358539886L329.5377787274326,117.01298448292539L329.8561666123135,116.31374190640975L330.4929423820751,114.93519701449293L330.6521363245155,114.5948548604197L330.9705242093963,113.91948937805248L331.6072999791579,112.59068799603835L331.7664939215983,112.26319113803598L332.08488180647913,111.61400134264264L332.7216575762407,110.33946601928835L332.88085151868114,110.02592908632141L333.19923940356193,109.4051244823035L333.8360151733236,108.18919307292794L333.99520911576394,107.89068318163655L334.3135970006448,107.30037666496821L334.9503727704064,106.14718756764859L335.10956671284674,105.86472069043947L335.4279545977276,105.30692135746844L336.0647303674892,104.22039942808578L336.22392430992954,103.95493693529005L336.5423121948104,103.43154324481833L337.17908796457203,102.41538643888978L338.45263950409526,100.50948774110944L338.7710273889761,100.06012625357403L339.4078031587377,99.19482384514825L340.681354698261,97.60120175605687L340.99974258314177,97.2319848373121L341.63651835290347,96.52930696032735L342.91006989242663,95.26963846273796L345.45717297147314,93.35149295726077L347.3103761651433,92.47520175742L349.3556674830128,92.02731893338301L351.56043674867186,92.1601298152462L354.33979758959055,93.23389890620871L354.9027188409117,93.57288696155246L356.0285613435541,94.37152483225239L356.3100219692147,94.59607239094936L356.8729432205359,95.074699404504L357.99878572317823,96.14858122824285L358.2802463488388,96.44101207878512L358.84316760016,97.05418895455827L359.9690101028023,98.39189647133247L360.250470728463,98.74910128510444L360.8133919797841,99.49030829919269L361.9392344824265,101.07761807035428L362.22069510808706,101.49579879681806L362.7836163594082,102.35715491965544L363.9094588620506,104.17718956142483L364.1909194877112,104.65189981164102L364.7538407390324,105.62424650459809L364.89457105186267,105.87203262573723L365.17603167752327,106.37315038506665L365.73895292884447,107.39718496606079L365.87968324167474,107.65765414017119L366.1611438673353,108.18384646390533L366.7240651186566,109.25684505925511L366.8647954314868,109.5293044531636L367.1462560571474,110.07917169968033L367.7091773084686,111.1982801942138L367.84990762129894,111.48200508144524L368.1313682469595,112.05408463517583L368.6942894982807,113.21632626401461L368.83501981111095,113.51056195252295L369.11648043677155,114.103332114426L369.6794016880927,115.3056153810102L369.820132000923,115.60957922061664L370.1015926265836,116.22146325581127L370.6645138779048,117.46059015510446L370.8052441907351,117.77347361930171L371.0867048163957,118.40284395109242L371.64962606771684,119.67551847609278L371.79035638054717,119.99648931268041L372.07181700620777,120.64167185181805L372.6347382575289,121.9445087607495L372.77546857035924,122.27271320557682L373.0569291960198,122.93199180324106L373.619850447341,124.2615256241036L373.76058076017125,124.59609067203385L374.0420413858319,125.26771168469114L374.6049626371531,126.6204059332191L374.7456929499833,126.96044166027343L375.0271535756439,127.64261861426937L375.5900748269651,129.01487520077774L375.73080513979545,129.3594771312825L376.012265765456,130.05039547475954L376.5751870167772,131.43856427485855L376.71591732960746,131.7868157872983L376.99737795526806,132.48463771680082L377.56029920658926,133.88502628051828L377.70102951941954,134.23600104569806L377.9824901450802,134.93887039462425L378.54541139640133,136.34775376811257L378.6861417092316,136.7005182131399L378.9676023348922,137.4065653890398L379.53052358621335,138.82019602274104L379.67125389904373,139.17381181427697L379.9527145247043,139.88115877186178L380.5156357760254,141.29577648877614L380.65636608885575,141.64930302894865L380.93782671451635,142.3560682655845L381.5007479658375,143.76791026312696L381.6414782786678,144.12040719146728L381.9229389043284,144.82471075186476L382.4858601556496,146.23002161070585L382.6265904684799,146.58055130545398L382.90805109414043,147.28051978224255L383.47097234546163,148.67556145550986L383.61170265829196,149.02319152763556L383.8931632839525,149.71696304451984L384.4560845352737,151.09802480078997L384.596814848104,151.4418305740939L384.8782754737646,152.12755973833922L385.4411967250858,153.49096803197193L385.58192703791605,153.83003500267185L385.8633876635767,154.50589781374353L386.42630891489785,155.84802605630415L386.5670392277281,156.18145232556316L386.8484998533887,156.84565102686452L387.4114211047099,158.16292923364261L387.55215141754024,158.48982790656808L387.8336120432008,159.14059576737014L388.396533294522,160.4295200533357L388.53726360735226,160.74902159806962L388.81872423301286,161.38462761291464L389.381645484334,162.6417695128525L389.52237579716433,162.95302407347708L389.80383642282493,163.571777566554L390.36675767414613,164.79379315458638L390.5074879869764,165.09597281169178L390.788948612637,165.69622793393808L391.35186986395814,166.8798667181769L391.49260017678847,167.17216769108L391.774060802449,167.7523277980462L392.3369820537702,168.8944413667166L392.47771236660054,169.17608615147185L392.7591729922611,169.73460805030527L393.3220942435823,170.83215844634134L393.46282455641256,171.10239788385684L393.7442851820732,171.63779593810634L394.3072064333944,172.68786373994425L394.4479367462246,172.9459790087023L394.7293973718852,173.45682909002687L395.2923186232064,174.45662117709995L396.41816112584877,176.3655672550579L396.69962175150937,176.8233138047664L397.26254300283057,177.71471709659085L398.3883855054729,179.3984914449845L398.6698461311335,179.7982673827289L399.23276738245465,180.57180385823298L400.35860988509705,182.0125034146655L400.64007051075765,182.3500580440478L401.2029917620788,182.99750292429937L402.3288342647212,184.17980916697582L404.5805192700059,186.0804088033416L406.95590790233626,187.39157390953292L409.1708165450273,187.95476364419645L411.4916442173113,187.85367031935922L414.2279193672868,186.828642939413L414.7822738516759,186.5030463535199L415.89098282045404,185.7346316181152L418.1084007580104,183.73866019791012L418.6627552423995,183.14641839791153L419.7714642111777,181.85341881583003L420.0486414533723,181.50795582039854L420.60299593776136,180.79087690507754L421.7117049065396,179.2542598360019L421.98888214873415,178.84922927816467L422.54323663312323,178.0147076292379L423.65194560190145,176.25031837682747L423.929122844096,175.7898968548467L424.4834773284851,174.84653790121615L425.5921862972633,172.8725705126675L425.8693635394579,172.36150580591772L426.42371802384696,171.31903728612082L426.5623066449442,171.0542627648245L426.8394838871388,170.5198221409961L427.3938383715279,169.43177032888102L427.5324269926252,169.15584693860507L427.80960423481974,168.59940904937315L428.3639587192088,167.46858070098847L428.5025473403061,167.182220218172L428.77972458250065,166.60522045971322L429.3340790668898,165.4345326781519L429.47266768798704,165.13847380292682L429.7498449301816,164.54240061314826L430.3041994145707,163.33487332354167L430.44278803566795,163.02987977416967L430.7199652778625,162.41627079311036L431.27431976225165,161.17501895238047L431.41290838334885,160.8618774951534L431.6900856255435,160.23231559846278L432.24444010993255,158.9605411599291L432.3830287310298,158.6400595796135L432.6602059732244,157.9961687953401L433.21456045761346,156.6971524489091L433.3531490787107,156.37015746497175L433.63032632090534,155.71359878419463L434.1846808052944,154.39069149343845L434.3232694263917,154.05802662742747L434.60044666858624,153.3904937195361L435.1548011529753,152.04710807749342L435.2933897740726,151.70963147707636L435.5705670162672,151.032846320754L436.1249215006563,149.67244774674964L436.26351012175354,149.33102997202195L436.5406873639481,148.64673841320146L437.0950418483372,147.2728362133946L437.23363046943444,146.9283579911687L437.51080771162907,146.23832523942022L438.06516219601815,144.85446355414152L438.2037508171154,144.50781350600965L438.48092805931,143.81381958097745L439.03528254369905,142.42356824220735L439.1738711647963,142.07564059223904L439.4510484069909,141.37947573187407L440.00540289138,139.98642105444645L440.14399151247727,139.63811332243353L440.42116875467184,138.94157336486654L440.9755232390609,137.54930889515285L441.1141118601582,137.20151958135318L441.39128910235274,136.50640133232184L441.9456435867419,135.11851857826127L442.08423220783914,134.77214484561227L442.3614094500337,134.08024144339183L442.9157639344228,132.70032060977888L443.05435255552004,132.35625596956223L443.3315297977146,131.6693522593571L443.88588428210375,130.30095301228755L444.02447290320094,129.96008501921247L444.30165014539557,129.27995294894097L444.85600462978465,127.92660523323954L444.9945932508819,127.58981319589302L445.2717704930765,126.91820724524118L445.82612497746555,125.58340217855903L445.9647135985628,125.25155489112652L446.24189084075743,124.59020754566438L446.7962453251465,123.27738841273549L446.93483394624377,122.95134191384562L447.21201118843834,122.30195919587973L447.7663656728274,121.01451256616755L447.9049542939247,120.69510793064106L448.1821315361193,120.05936499833118L448.7364860205084,118.80061198997979L448.87507464160564,118.48867315917923L449.1522518838002,117.86820998527358L449.7066063681893,116.64139769789736L449.84519498928654,116.33772935427476L450.12237223148117,115.73414649560962L450.67672671587025,114.54243963402268L450.8153153369675,114.24782512534759L451.09249257916207,113.66267959402511L451.64684706355115,112.50915230451756L451.7854356846484,112.22435162314045L452.06261292684303,111.65915287003509L452.6169674112321,110.54678081025548L452.75555603232937,110.27252863261924L453.03273327452393,109.72873465357375L453.587087758913,108.66038731647461L453.72567638001027,108.39739110793141L454.00285362220484,107.87640468268734L454.557208106594,106.8548379943345L455.66591707537214,104.89631069935501L455.9430943175667,104.42490891513765L456.49744880195584,103.5046818000705L457.606157770734,101.75721287429127L457.88333501292857,101.34025673685602L458.4376894973177,100.53085840248173L459.54639846609587,99.01246741390167L459.82357570829043,98.65425649582457L460.3779301926795,97.96403330419244L461.48663916145773,96.6903776125871L461.7638164036523,96.39460571688866L462.3181708880414,95.83067511858815L463.4268798568196,94.81488841978657L465.644297794376,93.2429201944754L467.4940188030508,92.41261587167196L469.3965981668634,92.02395921980923L471.5756636499134,92.16326831347962L474.36455960670287,93.24795827607306L474.9293753843546,93.58994196541641L476.05900693965816,94.39533700185689L476.34141482848406,94.62172959553965L476.9062306061358,95.10422854437843L478.0358621614394,96.18655946341062L478.3182700502653,96.4812445614429L478.88308582791706,97.09909394536399L480.01271738322066,98.44677512764679L480.29512527204656,98.80659832566741L480.8599410496983,99.5531844855335L481.98957260500185,101.15178991690021L482.27198049382775,101.57289955131057L482.8367962714795,102.44023078800149L483.9664278267831,104.2726484801695L484.248835715609,104.75053685758371L484.81365149326075,105.72932897772168L484.9548554376737,105.97874400199788L485.2372633264996,106.483139368699L485.80207910415135,107.5138032709713L485.94328304856424,107.77594414053561L486.22569093739014,108.30549578958465L486.7905067150419,109.38527148653586L486.93171065945484,109.65943622132482L487.21411854828074,110.21272608044308L487.7789343259325,111.33872206944869L487.9201382703454,111.6241764910101L488.20254615917133,112.19972291999747L488.7673619368231,113.36892392634226L488.908565881236,113.66490362387151L489.1909737700619,114.2611653822513L489.7557895477136,115.47044043365301L489.89699349212657,115.77615281098909L490.17940138095247,116.39153318525496L490.7442171586042,117.63764399621161L490.8854211030171,117.95227039430912L491.167828991843,118.58512147372161L491.73264476949475,119.86473111723043L491.8738487139077,120.18742900642471L492.1562566027336,120.83605609590757L492.72107238038535,122.14573793933303L492.86227632479824,122.47564317552815L493.1446842136242,123.1383093338475L493.70949999127595,124.47455621500933L493.85070393568884,124.81078535374624L494.13311182451474,125.48571604481921L494.6979276021665,126.84494966372898L494.83913154657944,127.1866023259388L495.12153943540534,127.87199017081599L495.6863552130571,129.25057067191193L495.82755915747,129.59673195501585L496.1099670462959,130.29074157181407L496.6747828239476,131.68497729103288L496.8159867683606,132.03472021893643L497.0983946571865,132.73549313775857L497.6632104348382,134.14165048834468L497.8044143792511,134.49403849376193L498.08682226807707,135.19969813344437L498.6516380457288,136.6140116040226L498.7928419901417,136.96810103648488L499.0752498789676,137.67675772984416L499.64006565661936,139.09543996798251L499.7812696010323,139.4502826208149L500.0636774898582,140.160038674937L500.62849326750995,141.57929062919715L500.76969721192285,141.93393627869585L501.0521051007488,142.64289105671833L501.61692087840055,144.05891215003396L501.75812482281344,144.4124111000454L502.04053271163934,145.11866611082127L502.6053484892911,146.52766441796274L502.74655243370404,146.87907004304947L503.02896032252994,147.58073402506682L503.5937761001817,148.97893642693705L503.7349800445946,149.32730770732044L504.0173879334205,150.02250169326115L504.5822037110722,151.40616398083063L504.7234076554852,151.75056802232314L505.0058155443111,152.4374303706996L505.5706313219628,153.80284727152417L505.7118352663757,154.14236180370187L505.9942431552017,154.81905318409704L506.5590589328534,156.16256828456852L506.7002628772663,156.4962841304944L506.9826707660922,157.16099244905587L507.54748654374396,158.479007985815L507.6886904881569,158.80603149669972L507.9710983769828,159.45697674869797L508.53591415463455,160.7459632429887L508.67711809904745,161.0654186912689L508.95952598787335,161.70085772772433L509.5243417655251,162.95736343689157L509.66554570993804,163.26839536131772L509.94795359876395,163.88662655693273L510.5127693764157,165.10728671775206L510.6539733208286,165.40906221420516L510.93638120965454,166.00843002410159L511.5011969873063,167.18997586318957L511.6424009317192,167.48168681509262L511.9248088205451,168.06058620815136L512.4896245981968,169.19985369532634L512.6308285426098,169.48071893767872L512.9132364314357,170.03759969460978L513.4780522090874,171.13153801576436L513.6192561535004,171.40080542700264L513.9016640423263,171.93417629163616L514.466479819978,172.9798560184313L514.6076837643909,173.23680453451556L514.8900916532168,173.74523720719694L515.4549074308686,174.73985814170013L516.5845389861722,176.63711265269143L516.8669468749981,177.0916548137634L517.4317626526498,177.9763116182455L518.5613942079533,179.64524529709524L518.8438020967792,180.04103138062032L519.408617874431,180.80625440323644L520.5382494297346,182.22900244541145L520.8206573185605,182.56179582946234L521.3854730962123,183.19939387610066L522.5151046515159,184.36072672754773L524.7743677621229,186.21443290738495L527.018554079395,187.41630800064036L529.2483905917305,187.96282996666838L531.5205188205898,187.84795352342195L534.2748800358569,186.802586690022L534.8328317974762,186.47139767350512L535.9487353207147,185.69035813103295L536.2277112015244,185.47061705829543L536.7856629631435,185.00207837620283L537.9015664863821,183.95021746065618L538.1805423671917,183.66366332532863L538.738494128811,183.06266931249027L539.8543976520496,181.75097471754745L540.1333735328592,181.40060085174696L540.6913252944785,180.673429465655L541.807228817717,179.11560309638332L542.0862046985267,178.70506949037417L542.6441564601458,177.85931673191052L543.7600599833844,176.0716315752577L544.039035864194,175.60522664535125L544.5969876258133,174.64972721129018L545.7128911490519,172.6508573491659L545.9918670298615,172.13345314110904L546.5498187914808,171.07818813725657L546.6893067318856,170.81019205496705L546.9682826126952,170.2692838491491L547.5262343743145,169.16820902433687L547.6657223147193,168.88901367787952L547.944698195529,168.32601497367517L548.5026499571483,167.18200765266909L548.6421378975532,166.8923426343175L548.9211137783628,166.3087246579126L549.479065539982,165.1247743565225L549.6185534803869,164.82539661785924L549.8975293611966,164.2226844776473L550.4554811228159,163.00188509053595L550.5949690632207,162.69357696438917L550.8739449440303,162.0733456655638L551.4318967056496,160.8188873812918L551.5713846460544,160.5024545373459L551.850360526864,159.8663248661031L552.4083122884833,158.5814858305399L552.5478002288881,158.25775516996296L552.8267761096978,157.6073894580677L553.3847278713171,156.29552720795277L553.524215811722,155.9653447025408L553.8031916925316,155.30244248332872L554.3611434541509,153.96698517236797L554.5006313945557,153.63121365385484L554.7796072753654,152.95750722101718L555.3375590369847,151.60194466144492L555.4770469773895,151.2614615667531L555.7560228581991,150.57871144751323L556.3139746198184,149.20658599052695L556.4534625602232,148.8622810688529L556.7324384410329,148.17227142336293L557.2903902026521,146.7871687022639L557.4298781430571,146.43994168998853L557.7088540238666,145.74447564896835L558.2668057854859,144.35001520919792L558.4062937258908,144.000773478699L558.6852696067004,143.3016684315017L559.2432213683197,141.90149427205756L559.3827093087245,141.55115046056716L559.6616851895342,140.85023330598364L560.2196369511535,139.44800435693517L560.3591248915583,139.09747398163955L560.6381007723679,138.39657635385322L561.1960525339872,136.9959569148389L561.335540474392,136.64615598045185L561.6145163552017,135.9471094626188L562.1724681168209,134.55175962731118L562.3119560572259,134.2036022323742L562.5909319380355,133.50823357033673L563.1488836996547,132.12179966189882L563.2883716400596,131.77619561006236L563.5673475208692,131.08632193870284L564.1252992824885,129.7124269812299L564.2647872228933,129.37027940375722L564.543763103703,128.68770349846864L565.1017148653223,127.32993774931398L565.2412028057271,126.99214074502217L565.5201786865367,126.31864631070133L566.078130448156,124.98055787842964L566.2176183885608,124.64799417723327L566.4965942693705,123.98534118710975L567.0545460309897,122.670426759592L567.1940339713947,122.34396541575686L567.4730098522043,121.69388551223756L568.0309616138235,120.40558121911891L568.1704495542284,120.08607534025285L568.449425435038,119.45026730979944L569.0073771966573,118.19193974321794L569.1468651370622,117.88022426093261L569.4258410178718,117.26034959480009L569.9837927794911,116.03528701181943L570.1232807198959,115.73217649989039L570.4022566007055,115.12985505232328L570.9602083623248,113.94125878207237L571.0996963027296,113.64754532779733L571.3786721835393,113.06435108303259L571.9366239451585,111.91532716100312L572.0761118855635,111.63177829532276L572.3550877663731,111.06923525445995L572.9130395279924,109.96278630582574L573.0525274683972,109.69014299761426L573.3315033492069,109.1497211961013L573.8894551108261,108.08873858926921L574.028943051231,107.82771330903762L574.3079189320406,107.31082497517943L574.8658706936599,106.29808126607549L575.9817742168984,104.3597186395281L576.2607500977081,103.89388440587794L576.8187018593273,102.9854250133339L577.9346053825658,101.2640208092775L578.2135812633754,100.85410676011372L578.7715330249947,100.05942141169444L579.8874365482333,98.57295734407143L580.1664124290429,98.2232454238414L580.7243641906622,97.55063536836215L581.8402677139007,96.31463897660052L582.1192435947104,96.02878226091369L582.6771953563297,95.48527355395404L583.7930988795681,94.51265600296102L586.0249059260452,93.03594547272118L588.0162441891812,92.25870357939675L589.8911283260604,92.00078470157635L591.7595340457826,92.20356674825337L594.6635186200833,93.42389637100825L595.2511615558464,93.80294577843614L596.4264474273724,94.69184186604582L596.720268895254,94.94101225984895L597.307911831017,95.47128480448109L598.4831977025431,96.65774750024428L598.7770191704245,96.98019009668243L599.3646621061876,97.65554194059655"/></g><g transform="translate(0, 140)" class="x-axis" fill="none" font-size="10" font-family="sans-serif" text-anchor="middle"><path class="domain" stroke="currentColor" d="M0 0.5L600 0.5"/><g class="tick" opacity="1" transform="translate(20.5,0)"><line stroke="currentColor" y2="8" transform="translate(0, -4)"/><text fill="currentColor" y="9" dy="0.71em" display="">0.000s</text></g><g class="tick" opacity="1" transform="translate(32.5,0)"><line stroke="currentColor" y2="4" transform="translate(0, -2)"/></g><g class="tick" opacity="1" transform="translate(44.5,0)"><line stroke="currentColor" y2="4" transform="translate(0, -2)"/></g><g class="tick" opacity="1" transform="translate(56.5,0)"><line stroke="currentColor" y2="4" transform="translate(0, -2)"/></g><g class="tick" opacity="1" transform="translate(68.5,0)"><line stroke="currentColor" y2="4" transform="translate(0, -2)"/></g><g class="tick" opacity="1" transform="translate(80.5,0)"><line stroke="currentColor" y2="8" transform="translate(0, -4)"/><text fill="currentColor" y="9" dy="0.71em" display="">0.010s</text></g><g class="tick" opacity="1" transform="translate(92.5,0)"><line stroke="currentColor" y2="4" transform="translate(0, -2)"/></g><g class="tick" opacity="1" transform="translate(104.5,0)"><line stroke="currentColor" y2="4" transform="translate(0, -2)"/></g><g class="tick" opacity="1" transform="translate(116.5,0)"><line stroke="currentColor" y2="4" transform="translate(0, -2)"/></g><g class="tick" opacity="1" transform="translate(128.5,0)"><line stroke="currentColor" y2="4" transform="translate(0, -2)"/></g><g class="tick" opacity="1" transform="translate(140.5,0)"><line stroke="currentColor" y2="8" transform="translate(0, -4)"/><text fill="currentColor" y="9" dy="0.71em" display="">0.020s</text></g><g class="tick" opacity="1" transform="translate(152.5,0)"><line stroke="currentColor" y2="4" transform="translate(0, -2)"/></g><g class="tick" opacity="1" transform="translate(164.5,0)"><line stroke="currentColor" y2="4" transform="translate(0, -2)"/></g><g class="tick" opacity="1" transform="translate(176.5,0)"><line stroke="currentColor" y2="4" transform="translate(0, -2)"/></g><g class="tick" opacity="1" transform="translate(188.5,0)"><line stroke="currentColor" y2="4" transform="translate(0, -2)"/></g><g class="tick" opacity="1" transform="translate(200.5,0)"><line stroke="currentColor" y2="8" transform="translate(0, -4)"/><text fill="currentColor" y="9" dy="0.71em" display="">0.030s</text></g><g class="tick" opacity="1" transform="translate(212.5,0)"><line stroke="currentColor" y2="4" transform="translate(0, -2)"/></g><g class="tick" opacity="1" transform="translate(224.50000000000003,0)"><line stroke="currentColor" y2="4" transform="translate(0, -2)"/></g><g class="tick" opacity="1" transform="translate(236.50000000000003,0)"><line stroke="currentColor" y2="4" transform="translate(0, -2)"/></g><g class="tick" opacity="1" transform="translate(248.5,0)"><line stroke="currentColor" y2="4" transform="translate(0, -2)"/></g><g class="tick" opacity="1" transform="translate(260.5,0)"><line stroke="currentColor" y2="8" transform="translate(0, -4)"/><text fill="currentColor" y="9" dy="0.71em" display="">0.040s</text></g><g class="tick" opacity="1" transform="translate(272.5,0)"><line stroke="currentColor" y2="4" transform="translate(0, -2)"/></g><g class="tick" opacity="1" transform="translate(284.5,0)"><line stroke="currentColor" y2="4" transform="translate(0, -2)"/></g><g class="tick" opacity="1" transform="translate(296.5,0)"><line stroke="currentColor" y2="4" transform="translate(0, -2)"/></g><g class="tick" opacity="1" transform="translate(308.5,0)"><line stroke="currentColor" y2="4" transform="translate(0, -2)"/></g><g class="tick" opacity="1" transform="translate(320.5,0)"><line stroke="currentColor" y2="8" transform="translate(0, -4)"/><text fill="currentColor" y="9" dy="0.71em" display="">0.050s</text></g><g class="tick" opacity="1" transform="translate(332.5,0)"><line stroke="currentColor" y2="4" transform="translate(0, -2)"/></g><g class="tick" opacity="1" transform="translate(344.5,0)"><line stroke="currentColor" y2="4" transform="translate(0, -2)"/></g><g class="tick" opacity="1" transform="translate(356.5,0)"><line stroke="currentColor" y2="4" transform="translate(0, -2)"/></g><g class="tick" opacity="1" transform="translate(368.5,0)"><line stroke="currentColor" y2="4" transform="translate(0, -2)"/></g><g class="tick" opacity="1" transform="translate(380.5,0)"><line stroke="currentColor" y2="8" transform="translate(0, -4)"/><text fill="currentColor" y="9" dy="0.71em" display="">0.060s</text></g><g class="tick" opacity="1" transform="translate(392.5,0)"><line stroke="currentColor" y2="4" transform="translate(0, -2)"/></g><g class="tick" opacity="1" transform="translate(404.5,0)"><line stroke="currentColor" y2="4" transform="translate(0, -2)"/></g><g class="tick" opacity="1" transform="translate(416.5,0)"><line stroke="currentColor" y2="4" transform="translate(0, -2)"/></g><g class="tick" opacity="1" transform="translate(428.50000000000006,0)"><line stroke="currentColor" y2="4" transform="translate(0, -2)"/></g><g class="tick" opacity="1" transform="translate(440.50000000000006,0)"><line stroke="currentColor" y2="8" transform="translate(0, -4)"/><text fill="currentColor" y="9" dy="0.71em" display="">0.070s</text></g><g class="tick" opacity="1" transform="translate(452.50000000000006,0)"><line stroke="currentColor" y2="4" transform="translate(0, -2)"/></g><g class="tick" opacity="1" transform="translate(464.5,0)"><line stroke="currentColor" y2="4" transform="translate(0, -2)"/></g><g class="tick" opacity="1" transform="translate(476.5,0)"><line stroke="currentColor" y2="4" transform="translate(0, -2)"/></g><g class="tick" opacity="1" transform="translate(488.5,0)"><line stroke="currentColor" y2="4" transform="translate(0, -2)"/></g><g class="tick" opacity="1" transform="translate(500.5,0)"><line stroke="currentColor" y2="8" transform="translate(0, -4)"/><text fill="currentColor" y="9" dy="0.71em" display="">0.080s</text></g><g class="tick" opacity="1" transform="translate(512.5,0)"><line stroke="currentColor" y2="4" transform="translate(0, -2)"/></g><g class="tick" opacity="1" transform="translate(524.5,0)"><line stroke="currentColor" y2="4" transform="translate(0, -2)"/></g><g class="tick" opacity="1" transform="translate(536.5,0)"><line stroke="currentColor" y2="4" transform="translate(0, -2)"/></g><g class="tick" opacity="1" transform="translate(548.5,0)"><line stroke="currentColor" y2="4" transform="translate(0, -2)"/></g><g class="tick" opacity="1" transform="translate(560.5,0)"><line stroke="currentColor" y2="8" transform="translate(0, -4)"/><text fill="currentColor" y="9" dy="0.71em" display="">0.090s</text></g><g class="tick" opacity="1" transform="translate(572.5,0)"><line stroke="currentColor" y2="4" transform="translate(0, -2)"/></g><g class="tick" opacity="1" transform="translate(584.5,0)"><line stroke="currentColor" y2="4" transform="translate(0, -2)"/></g><g class="tick" opacity="1" transform="translate(596.5,0)"><line stroke="currentColor" y2="4" transform="translate(0, -2)"/></g></g><g class="hide-rect-wrap"><rect x="0" y="0" height="20" width="600" class="hide-rect hide-rect-top"/><rect x="0" y="260" height="20" width="600" class="hide-rect hide-rect-bottom"/><rect x="0" y="0" height="280" width="20" class="hide-rect hide-rect-left"/><rect x="580" y="0" height="280" width="20" class="hide-rect hide-rect-right"/></g><g transform="translate(20, 0)" class="y-axis y-axis1" display="" fill="none" font-size="10" font-family="sans-serif" text-anchor="start"><path class="domain" stroke="currentColor" d="M0.5,260.5V20.5"/><g class="tick" opacity="1" transform="translate(0,260.5)"><line stroke="currentColor" x2="6"/><text fill="currentColor" x="9" dy="0.32em">-60V</text></g><g class="tick" opacity="1" transform="translate(0,220.5)"><line stroke="currentColor" x2="6"/><text fill="currentColor" x="9" dy="0.32em">-40V</text></g><g class="tick" opacity="1" transform="translate(0,180.5)"><line stroke="currentColor" x2="6"/><text fill="currentColor" x="9" dy="0.32em">-20V</text></g><g class="tick" opacity="1" transform="translate(0,140.5)"><line stroke="currentColor" x2="6"/><text fill="currentColor" x="9" dy="0.32em">0V</text></g><g class="tick" opacity="1" transform="translate(0,100.5)"><line stroke="currentColor" x2="6"/><text fill="currentColor" x="9" dy="0.32em">20V</text></g><g class="tick" opacity="1" transform="translate(0,60.5)"><line stroke="currentColor" x2="6"/><text fill="currentColor" x="9" dy="0.32em">40V</text></g><g class="tick" opacity="1" transform="translate(0,20.5)"><line stroke="currentColor" x2="6"/><text fill="currentColor" x="9" dy="0.32em">60V</text></g></g></svg>