<svg xmlns="http://www.w3.org/2000/svg" xmlns:xlink="http://www.w3.org/1999/xlink" width="55.067mm" height="55.093mm" viewBox="3911.6 3133.6 216.8 216.9"><title></title><style type="text/css">
*[layerid="1"] {stroke:#000000;fill:#000000;}
*[layerid="2"] {stroke:#000000;fill:#000000;}
*[layerid="3"] {stroke:#000000;fill:#000000;}
*[layerid="4"] {stroke:#000000;fill:#000000;}
*[layerid="5"] {stroke:#000000;fill:#000000;}
*[layerid="6"] {stroke:#000000;fill:#000000;}
*[layerid="7"] {stroke:#000000;fill:#000000;}
*[layerid="8"] {stroke:#000000;fill:#000000;}
*[layerid="9"] {stroke:#000000;fill:#000000;}
*[layerid="10"] {stroke:#000000;fill:#000000;}
*[layerid="11"] {stroke:#000000;fill:#000000;}
*[layerid="12"] {stroke:#000000;fill:#000000;}
*[layerid="13"] {stroke:#000000;fill:#000000;}
*[layerid="14"] {stroke:#000000;fill:#000000;}
*[layerid="15"] {stroke:#000000;fill:#000000;}
*[layerid="19"] {stroke:#000000;fill:#000000;}
*[layerid="21"] {stroke:#000000;fill:#000000;}
*[layerid="22"] {stroke:#000000;fill:#000000;}
*[layerid="23"] {stroke:#000000;fill:#000000;}
*[layerid="24"] {stroke:#000000;fill:#000000;}
*[layerid="25"] {stroke:#000000;fill:#000000;}
*[layerid="26"] {stroke:#000000;fill:#000000;}
*[layerid="27"] {stroke:#000000;fill:#000000;}
*[layerid="28"] {stroke:#000000;fill:#000000;}
*[layerid="29"] {stroke:#000000;fill:#000000;}
*[layerid="30"] {stroke:#000000;fill:#000000;}
*[layerid="31"] {stroke:#000000;fill:#000000;}
*[layerid="32"] {stroke:#000000;fill:#000000;}
*[layerid="33"] {stroke:#000000;fill:#000000;}
*[layerid="34"] {stroke:#000000;fill:#000000;}
*[layerid="35"] {stroke:#000000;fill:#000000;}
*[layerid="36"] {stroke:#000000;fill:#000000;}
*[layerid="37"] {stroke:#000000;fill:#000000;}
*[layerid="38"] {stroke:#000000;fill:#000000;}
*[layerid="39"] {stroke:#000000;fill:#000000;}
*[layerid="40"] {stroke:#000000;fill:#000000;}
*[layerid="41"] {stroke:#000000;fill:#000000;}
*[layerid="42"] {stroke:#000000;fill:#000000;}
*[layerid="43"] {stroke:#000000;fill:#000000;}
*[layerid="44"] {stroke:#000000;fill:#000000;}
*[layerid="45"] {stroke:#000000;fill:#000000;}
*[layerid="46"] {stroke:#000000;fill:#000000;}
*[layerid="47"] {stroke:#000000;fill:#000000;}
*[layerid="48"] {stroke:#000000;fill:#000000;}
*[layerid="49"] {stroke:#000000;fill:#000000;}
*[layerid="50"] {stroke:#000000;fill:#000000;}
*[layerid="51"] {stroke:#000000;fill:#000000;}
*[layerid="52"] {stroke:#000000;fill:#000000;}
*[layerid="99"] {stroke:#000000;fill:#000000;}
*[layerid="100"] {stroke:#000000;fill:#000000;}
*[layerid="101"] {stroke:#000000;fill:#000000;}
*[layerid="Hole"] {stroke:#000000;fill:#000000;}
*[layerid="DRCError"] {stroke:#000000;fill:#000000;}
*[fill="none"] {fill: none;}
*[stroke="none"] {stroke: none;}
path, polyline, polygon, line {stroke-linecap:round;}
g[c_partid="part_pad"][layerid="1"] ellipse:not([c_etype="pad_outer"]) {fill:#000000;}
g[c_partid="part_pad"][layerid="1"] polygon:not([c_etype="pad_outer"]) {fill:#000000;}
g[c_partid="part_pad"][layerid="1"] polyline:not([c_etype="pad_outer"]) {stroke:#000000;}
g[c_partid="part_pad"][layerid="2"] ellipse:not([c_etype="pad_outer"]) {fill:#000000;}
g[c_partid="part_pad"][layerid="2"] polygon:not([c_etype="pad_outer"]) {fill:#000000;}
g[c_partid="part_pad"][layerid="2"] polyline:not([c_etype="pad_outer"]) {stroke:#000000;}
g[c_partid="part_pad"][layerid="11"] ellipse:not([c_etype="pad_outer"]) {fill:#000000;}
g[c_partid="part_pad"][layerid="11"] polygon:not([c_etype="pad_outer"]) {fill:#000000;}
g[c_partid="part_pad"][layerid="11"] polyline:not([c_etype="pad_outer"]) {stroke:#000000;}
g[c_partid="part_pad"][layerid="11"] circle {fill:#FFFFFF;}
g[c_partid="part_pad"][layerid="11"] > polyline:nth-of-type(2) {stroke:#FFFFFF;}
g[c_partid="part_pad"][layerid="11"][c_shape="ELLIPSE"]  polyline:nth-last-of-type(1) {stroke:#FFFFFF;}
g[c_partid="part_pad"][layerid="11"][c_shape="RECT"]  polyline:nth-last-of-type(1) {stroke:#FFFFFF;}
g[c_partid="part_pad"][layerid="11"][c_shape="POLYGON"]  polyline:nth-last-of-type(1) {stroke:#FFFFFF;}
g[c_partid="part_via"] > * + circle, #gCurParts g[c_partid="part_via"] > * + circle {fill:#FFFFFF;}
g[c_partid="part_pad"] > polygon[c_etype="pad_outer"], #gCurParts g[c_partid="part_pad"] > polygon[c_etype="pad_outer"] {stroke-linejoin: round;stroke-miterlimit: 100;}
g[c_partid="part_hole"] > circle {fill: #FFFFFF;}path, polyline, polygon {stroke-linejoin:round;}
rect, circle, ellipse, polyline, line, polygon, path {shape-rendering:crispEdges;}
</style>
<rect x="3911.6" y="3133.6" width="216.8" height="216.9" fill="#FFFFFF" stroke="none"/><polyline points="4039.5 3269 4028 3280.5 4028 3312.5" stroke-width="3.937"  stroke-linecap="round" fill="none" layerid="2" net="U4_1" id="gge3277" locked="0" /><polyline points="4033.5 3236.5 4025 3228 4025 3172" stroke-width="3.937"  stroke-linecap="round" fill="none" layerid="2" net="U5_1" id="gge3274" locked="0" /><polyline points="4018 3312.5 3984.3191 3312.5 3938.082 3266.2629 3938.082 3247.2449 3954 3231.3269" stroke-width="3.937"  stroke-linecap="round" fill="none" layerid="2" net="CN1_2" id="gge3271" locked="0" /><polyline points="4015 3172 4013.327 3172 3954 3231.327" stroke-width="3.937"  stroke-linecap="round" fill="none" layerid="2" net="CN1_2" id="gge3268" locked="0" /><polyline points="3999.5 3269 3988 3269 3974.5 3255.5" stroke-width="3.937"  stroke-linecap="round" fill="none" layerid="2" net="CN1_1" id="gge3265" locked="0" /><polyline points="3993.5 3236.5 3974.5 3255.5" stroke-width="3.937"  stroke-linecap="round" fill="none" layerid="2" net="CN1_1" id="gge3262" locked="0" /><polyline points="3974.5 3255.5 3970.327 3259.673 3954 3259.673" stroke-width="3.937"  stroke-linecap="round" fill="none" layerid="2" net="CN1_1" id="gge3259" locked="0" /><polyline points="3964.0334 3276.996 3964.0334 3282.1141 3943.7639 3282.1141 3943.7639 3277.1908 3943.9587 3276.996" stroke-width="1"  stroke-linecap="round" fill="none" layerid="4" net="" id="gge225" locked="0" /><polyline points="3937.8584 3208.8859 3970.1418 3208.8859 3970.1418 3276.996 3937.8584 3276.996 3937.8584 3208.8859" stroke-width="1"  stroke-linecap="round" fill="none" layerid="4" net="" id="gge228" locked="0" /><g c_partid="part_pcbtext" c_etype="" c_origin="3979,3245.673" c_rotation="270" c_mirror="1" id="gge201" locked="0" layerid="4" c_shapetype="group" display="none"><path c_fontsize="4.5" c_fontfamily="" c_text="XT60 FEMALE CONNECTOR" d="M 3983.5401 3245.6732 L 3979.2501 3242.8132 M 3983.5401 3242.8132 L 3979.2501 3245.6732 M 3983.5401 3240.0232 L 3979.2501 3240.0232 M 3983.5401 3241.4632 L 3983.5401 3238.5932 M 3982.9301 3234.7932 L 3983.3401 3234.9932 L 3983.5401 3235.6132 L 3983.5401 3236.0232 L 3983.3401 3236.6332 L 3982.7201 3237.0432 L 3981.7001 3237.2432 L 3980.6801 3237.2432 L 3979.8601 3237.0432 L 3979.4501 3236.6332 L 3979.2501 3236.0232 L 3979.2501 3235.8132 L 3979.4501 3235.2032 L 3979.8601 3234.7932 L 3980.4701 3234.5832 L 3980.6801 3234.5832 L 3981.2901 3234.7932 L 3981.7001 3235.2032 L 3981.9001 3235.8132 L 3981.9001 3236.0232 L 3981.7001 3236.6332 L 3981.2901 3237.0432 L 3980.6801 3237.2432 M 3983.5401 3232.0132 L 3983.3401 3232.6232 L 3982.7201 3233.0332 L 3981.7001 3233.2332 L 3981.0901 3233.2332 L 3980.0601 3233.0332 L 3979.4501 3232.6232 L 3979.2501 3232.0132 L 3979.2501 3231.6032 L 3979.4501 3230.9832 L 3980.0601 3230.5732 L 3981.0901 3230.3732 L 3981.7001 3230.3732 L 3982.7201 3230.5732 L 3983.3401 3230.9832 L 3983.5401 3231.6032 L 3983.5401 3232.0132 M 3983.5401 3225.8732 L 3979.2501 3225.8732 M 3983.5401 3225.8732 L 3983.5401 3223.2132 M 3981.5001 3225.8732 L 3981.5001 3224.2332 M 3983.5401 3221.8632 L 3979.2501 3221.8632 M 3983.5401 3221.8632 L 3983.5401 3219.2032 M 3981.5001 3221.8632 L 3981.5001 3220.2232 M 3979.2501 3221.8632 L 3979.2501 3219.2032 M 3983.5401 3217.8532 L 3979.2501 3217.8532 M 3983.5401 3217.8532 L 3979.2501 3216.2232 M 3983.5401 3214.5832 L 3979.2501 3216.2232 M 3983.5401 3214.5832 L 3979.2501 3214.5832 M 3983.5401 3211.5932 L 3979.2501 3213.2332 M 3983.5401 3211.5932 L 3979.2501 3209.9632 M 3980.6801 3212.6232 L 3980.6801 3210.5732 M 3983.5401 3208.6132 L 3979.2501 3208.6132 M 3979.2501 3208.6132 L 3979.2501 3206.1532 M 3983.5401 3204.8032 L 3979.2501 3204.8032 M 3983.5401 3204.8032 L 3983.5401 3202.1432 M 3981.5001 3204.8032 L 3981.5001 3203.1732 M 3979.2501 3204.8032 L 3979.2501 3202.1432 M 3982.5201 3194.5732 L 3982.9301 3194.7832 L 3983.3401 3195.1932 L 3983.5401 3195.6032 L 3983.5401 3196.4232 L 3983.3401 3196.8232 L 3982.9301 3197.2332 L 3982.5201 3197.4432 L 3981.9001 3197.6432 L 3980.8801 3197.6432 L 3980.2701 3197.4432 L 3979.8601 3197.2332 L 3979.4501 3196.8232 L 3979.2501 3196.4232 L 3979.2501 3195.6032 L 3979.4501 3195.1932 L 3979.8601 3194.7832 L 3980.2701 3194.5732 M 3983.5401 3192.0032 L 3983.3401 3192.4132 L 3982.9301 3192.8232 L 3982.5201 3193.0232 L 3981.9001 3193.2232 L 3980.8801 3193.2232 L 3980.2701 3193.0232 L 3979.8601 3192.8232 L 3979.4501 3192.4132 L 3979.2501 3192.0032 L 3979.2501 3191.1832 L 3979.4501 3190.7732 L 3979.8601 3190.3632 L 3980.2701 3190.1632 L 3980.8801 3189.9532 L 3981.9001 3189.9532 L 3982.5201 3190.1632 L 3982.9301 3190.3632 L 3983.3401 3190.7732 L 3983.5401 3191.1832 L 3983.5401 3192.0032 M 3983.5401 3188.6032 L 3979.2501 3188.6032 M 3983.5401 3188.6032 L 3979.2501 3185.7432 M 3983.5401 3185.7432 L 3979.2501 3185.7432 M 3983.5401 3184.3932 L 3979.2501 3184.3932 M 3983.5401 3184.3932 L 3979.2501 3181.5232 M 3983.5401 3181.5232 L 3979.2501 3181.5232 M 3983.5401 3180.1732 L 3979.2501 3180.1732 M 3983.5401 3180.1732 L 3983.5401 3177.5232 M 3981.5001 3180.1732 L 3981.5001 3178.5432 M 3979.2501 3180.1732 L 3979.2501 3177.5232 M 3982.5201 3173.1032 L 3982.9301 3173.3032 L 3983.3401 3173.7132 L 3983.5401 3174.1232 L 3983.5401 3174.9432 L 3983.3401 3175.3532 L 3982.9301 3175.7632 L 3982.5201 3175.9632 L 3981.9001 3176.1732 L 3980.8801 3176.1732 L 3980.2701 3175.9632 L 3979.8601 3175.7632 L 3979.4501 3175.3532 L 3979.2501 3174.9432 L 3979.2501 3174.1232 L 3979.4501 3173.7132 L 3979.8601 3173.3032 L 3980.2701 3173.1032 M 3983.5401 3170.3232 L 3979.2501 3170.3232 M 3983.5401 3171.7532 L 3983.5401 3168.8832 M 3983.5401 3166.3132 L 3983.3401 3166.7232 L 3982.9301 3167.1232 L 3982.5201 3167.3332 L 3981.9001 3167.5332 L 3980.8801 3167.5332 L 3980.2701 3167.3332 L 3979.8601 3167.1232 L 3979.4501 3166.7232 L 3979.2501 3166.3132 L 3979.2501 3165.4932 L 3979.4501 3165.0832 L 3979.8601 3164.6732 L 3980.2701 3164.4732 L 3980.8801 3164.2632 L 3981.9001 3164.2632 L 3982.5201 3164.4732 L 3982.9301 3164.6732 L 3983.3401 3165.0832 L 3983.5401 3165.4932 L 3983.5401 3166.3132 M 3983.5401 3162.9132 L 3979.2501 3162.9132 M 3983.5401 3162.9132 L 3983.5401 3161.0732 L 3983.3401 3160.4632 L 3983.1301 3160.2532 L 3982.7201 3160.0532 L 3982.3101 3160.0532 L 3981.9001 3160.2532 L 3981.7001 3160.4632 L 3981.5001 3161.0732 L 3981.5001 3162.9132 M 3981.5001 3161.4832 L 3979.2501 3160.0532" fill="none"  stroke-width="0.6" c_note="note_name" /></g><g c_partid="part_pcbtext" c_etype="" c_origin="3972,3245.673" c_rotation="270" c_mirror="1" id="gge207" locked="0" layerid="4" c_shapetype="group" ><path c_fontsize="4.5" c_fontfamily="" c_text="CN1" d="M 3975.5201 3242.6032 L 3975.9301 3242.8132 L 3976.3401 3243.2232 L 3976.5401 3243.6232 L 3976.5401 3244.4432 L 3976.3401 3244.8532 L 3975.9301 3245.2632 L 3975.5201 3245.4732 L 3974.9001 3245.6732 L 3973.8801 3245.6732 L 3973.2701 3245.4732 L 3972.8601 3245.2632 L 3972.4501 3244.8532 L 3972.2501 3244.4432 L 3972.2501 3243.6232 L 3972.4501 3243.2232 L 3972.8601 3242.8132 L 3973.2701 3242.6032 M 3976.5401 3241.2532 L 3972.2501 3241.2532 M 3976.5401 3241.2532 L 3972.2501 3238.3932 M 3976.5401 3238.3932 L 3972.2501 3238.3932 M 3975.7201 3237.0432 L 3975.9301 3236.6332 L 3976.5401 3236.0232 L 3972.2501 3236.0232" fill="none"  stroke-width="0.6" c_note="note_pre" /></g><g c_partid="part_pad" c_etype="pinpart" c_origin="3954,3259.673" layerid="11" number="1" net="CN1_1" plated ="Y"  id="gge240" locked="0" c_rotation="270" c_width="23.622" c_height="23.622" title="CN1_1" c_shape="ELLIPSE" pasteexpansion="0" solderexpansion="0.2"><ellipse c_etype="pad_shell" cx="3954" cy="3259.673" rx="11.811" ry="11.811" layerid="11" stroke-width="0"/><circle c_etype="pad_hole" cx="3954.0001" cy="3259.6732" r="8.6614" layerid="11" stroke-width="0"/></g><g c_partid="part_pad" c_etype="pinpart" c_origin="3954,3231.327" layerid="11" number="2" net="CN1_2" plated ="Y"  id="gge255" locked="0" c_rotation="270" c_width="23.622" c_height="23.622" title="CN1_2" c_shape="ELLIPSE" pasteexpansion="0" solderexpansion="0.2"><ellipse c_etype="pad_shell" cx="3954" cy="3231.327" rx="11.811" ry="11.811" layerid="11" stroke-width="0"/><circle c_etype="pad_hole" cx="3954.0001" cy="3231.3268" r="8.6614" layerid="11" stroke-width="0"/></g><g c_partid="part_pad" c_etype="pinpart" c_origin="4025,3172" layerid="11" number="A" net="U5_1" plated ="Y"  id="gge2314" locked="0" c_rotation="180" c_width="7.4" c_height="7.4" title="U5_1" c_shape="ELLIPSE" pasteexpansion="0" solderexpansion="0.2"><ellipse c_etype="pad_shell" cx="4025" cy="3172" rx="3.7" ry="3.7" layerid="11" stroke-width="0"/><circle c_etype="pad_hole" cx="4025" cy="3172" r="1.6" layerid="11" stroke-width="0"/></g><g c_partid="part_pad" c_etype="pinpart" c_origin="4015,3172" layerid="11" number="K" net="CN1_2" plated ="Y"  id="gge2329" locked="0" c_rotation="180" c_width="7.4" c_height="7.4" title="CN1_2" c_shape="ELLIPSE" pasteexpansion="0" solderexpansion="0.2"><ellipse c_etype="pad_shell" cx="4015" cy="3172" rx="3.7" ry="3.7" layerid="11" stroke-width="0"/><circle c_etype="pad_hole" cx="4015" cy="3172" r="1.6" layerid="11" stroke-width="0"/></g><g c_partid="part_pad" c_etype="pinpart" c_origin="4028,3312.5" layerid="11" number="A" net="U4_1" plated ="Y"  id="gge2389" locked="0" c_rotation="180" c_width="7.4" c_height="7.4" title="U4_1" c_shape="ELLIPSE" pasteexpansion="0" solderexpansion="0.2"><ellipse c_etype="pad_shell" cx="4028" cy="3312.5" rx="3.7" ry="3.7" layerid="11" stroke-width="0"/><circle c_etype="pad_hole" cx="4028" cy="3312.5" r="1.6" layerid="11" stroke-width="0"/></g><g c_partid="part_pad" c_etype="pinpart" c_origin="4018,3312.5" layerid="11" number="K" net="CN1_2" plated ="Y"  id="gge2404" locked="0" c_rotation="180" c_width="7.4" c_height="7.4" title="CN1_2" c_shape="ELLIPSE" pasteexpansion="0" solderexpansion="0.2"><ellipse c_etype="pad_shell" cx="4018" cy="3312.5" rx="3.7" ry="3.7" layerid="11" stroke-width="0"/><circle c_etype="pad_hole" cx="4018" cy="3312.5" r="1.6" layerid="11" stroke-width="0"/></g><g c_partid="part_pad" c_etype="pinpart" c_origin="4039.5,3269" layerid="11" number="1" net="U4_1" plated ="Y"  id="gge3037" locked="0" c_rotation="180" c_width="7.3622" c_height="7.3622" title="U4_1" c_shape="ELLIPSE" pasteexpansion="0" solderexpansion="0.2"><ellipse c_etype="pad_shell" cx="4039.5" cy="3269" rx="3.6811" ry="3.6811" layerid="11" stroke-width="0"/><circle c_etype="pad_hole" cx="4039.5003" cy="3269" r="1.378" layerid="11" stroke-width="0"/></g><g c_partid="part_pad" c_etype="pinpart" c_origin="3999.5,3269" layerid="11" number="2" net="CN1_1" plated ="Y"  id="gge3052" locked="0" c_rotation="180" c_width="7.0866" c_height="7.0866" title="CN1_1" c_shape="ELLIPSE" pasteexpansion="0" solderexpansion="0.2"><ellipse c_etype="pad_shell" cx="3999.5" cy="3269" rx="3.5433" ry="3.5433" layerid="11" stroke-width="0"/><circle c_etype="pad_hole" cx="3999.4997" cy="3269" r="1.378" layerid="11" stroke-width="0"/></g><g c_partid="part_pad" c_etype="pinpart" c_origin="4033.5,3236.5" layerid="11" number="1" net="U5_1" plated ="Y"  id="gge3142" locked="0" c_rotation="180" c_width="7.3622" c_height="7.3622" title="U5_1" c_shape="ELLIPSE" pasteexpansion="0" solderexpansion="0.2"><ellipse c_etype="pad_shell" cx="4033.5" cy="3236.5" rx="3.6811" ry="3.6811" layerid="11" stroke-width="0"/><circle c_etype="pad_hole" cx="4033.5003" cy="3236.5" r="1.378" layerid="11" stroke-width="0"/></g><g c_partid="part_pad" c_etype="pinpart" c_origin="3993.5,3236.5" layerid="11" number="2" net="CN1_1" plated ="Y"  id="gge3157" locked="0" c_rotation="180" c_width="7.0866" c_height="7.0866" title="CN1_1" c_shape="ELLIPSE" pasteexpansion="0" solderexpansion="0.2"><ellipse c_etype="pad_shell" cx="3993.5" cy="3236.5" rx="3.5433" ry="3.5433" layerid="11" stroke-width="0"/><circle c_etype="pad_hole" cx="3993.4997" cy="3236.5" r="1.378" layerid="11" stroke-width="0"/></g><polyline points="4010 3164.5 4010 3179.5" stroke-width="1"  stroke-linecap="round" fill="none" layerid="3" net="" id="gge2287" locked="0" /><polyline points="4013 3305 4013 3320" stroke-width="1"  stroke-linecap="round" fill="none" layerid="3" net="" id="gge2362" locked="0" /><polyline points="4032.1 3265.6 4032.1 3272.6" stroke-width="0.6"  stroke-linecap="round" fill="none" layerid="3" net="" id="gge2995" locked="0" /><polyline points="4031.1 3273.6 4029.6 3273.6 4029.1 3273.1 4010.1 3273.1 4009.6 3273.6 4008.1 3273.6" stroke-width="0.6"  stroke-linecap="round" fill="none" layerid="3" net="" id="gge2998" locked="0" /><polyline points="4031.1 3264.6 4029.6 3264.6 4029.1 3265.1 4010.1 3265.1 4009.6 3264.6 4008.1 3264.6" stroke-width="0.6"  stroke-linecap="round" fill="none" layerid="3" net="" id="gge3001" locked="0" /><polyline points="4007.1 3265.6 4007.1 3272.6" stroke-width="0.6"  stroke-linecap="round" fill="none" layerid="3" net="" id="gge3004" locked="0" /><polyline points="4026.1 3233.1 4026.1 3240.1" stroke-width="0.6"  stroke-linecap="round" fill="none" layerid="3" net="" id="gge3100" locked="0" /><polyline points="4025.1 3241.1 4023.6 3241.1 4023.1 3240.6 4004.1 3240.6 4003.6 3241.1 4002.1 3241.1" stroke-width="0.6"  stroke-linecap="round" fill="none" layerid="3" net="" id="gge3103" locked="0" /><polyline points="4025.1 3232.1 4023.6 3232.1 4023.1 3232.6 4004.1 3232.6 4003.6 3232.1 4002.1 3232.1" stroke-width="0.6"  stroke-linecap="round" fill="none" layerid="3" net="" id="gge3106" locked="0" /><polyline points="4001.1 3233.1 4001.1 3240.1" stroke-width="0.6"  stroke-linecap="round" fill="none" layerid="3" net="" id="gge3109" locked="0" /><g c_partid="part_pcbtext" c_etype="" c_origin="4022,3193" c_rotation="180" c_mirror="" id="gge2275" locked="0" layerid="3" c_shapetype="group" display="none"><path c_fontsize="4.5" c_fontfamily="" c_text="LED5MM" d="M 4022 3197.54 L 4022 3193.25 M 4022 3193.25 L 4019.55 3193.25 M 4018.2 3197.54 L 4018.2 3193.25 M 4018.2 3197.54 L 4015.54 3197.54 M 4018.2 3195.5 L 4016.56 3195.5 M 4018.2 3193.25 L 4015.54 3193.25 M 4014.19 3197.54 L 4014.19 3193.25 M 4014.19 3197.54 L 4012.75 3197.54 L 4012.14 3197.34 L 4011.73 3196.93 L 4011.53 3196.52 L 4011.32 3195.9 L 4011.32 3194.88 L 4011.53 3194.27 L 4011.73 3193.86 L 4012.14 3193.45 L 4012.75 3193.25 L 4014.19 3193.25 M 4007.52 3197.54 L 4009.56 3197.54 L 4009.77 3195.7 L 4009.56 3195.9 L 4008.95 3196.11 L 4008.34 3196.11 L 4007.72 3195.9 L 4007.31 3195.5 L 4007.11 3194.88 L 4007.11 3194.47 L 4007.31 3193.86 L 4007.72 3193.45 L 4008.34 3193.25 L 4008.95 3193.25 L 4009.56 3193.45 L 4009.77 3193.65 L 4009.97 3194.06 M 4005.76 3197.54 L 4005.76 3193.25 M 4005.76 3197.54 L 4004.12 3193.25 M 4002.49 3197.54 L 4004.12 3193.25 M 4002.49 3197.54 L 4002.49 3193.25 M 4001.14 3197.54 L 4001.14 3193.25 M 4001.14 3197.54 L 3999.5 3193.25 M 3997.86 3197.54 L 3999.5 3193.25 M 3997.86 3197.54 L 3997.86 3193.25" fill="none"  stroke-width="0.6" c_note="note_name" /></g><g c_partid="part_pcbtext" c_etype="" c_origin="4022,3186" c_rotation="180" c_mirror="" id="gge2281" locked="0" layerid="3" c_shapetype="group" ><path c_fontsize="4.5" c_fontfamily="" c_text="LED4" d="M 4022 3190.54 L 4022 3186.25 M 4022 3186.25 L 4019.55 3186.25 M 4018.2 3190.54 L 4018.2 3186.25 M 4018.2 3190.54 L 4015.54 3190.54 M 4018.2 3188.5 L 4016.56 3188.5 M 4018.2 3186.25 L 4015.54 3186.25 M 4014.19 3190.54 L 4014.19 3186.25 M 4014.19 3190.54 L 4012.75 3190.54 L 4012.14 3190.34 L 4011.73 3189.93 L 4011.53 3189.52 L 4011.32 3188.9 L 4011.32 3187.88 L 4011.53 3187.27 L 4011.73 3186.86 L 4012.14 3186.45 L 4012.75 3186.25 L 4014.19 3186.25 M 4007.93 3190.54 L 4009.97 3187.68 L 4006.9 3187.68 M 4007.93 3190.54 L 4007.93 3186.25" fill="none"  stroke-width="0.6" c_note="note_pre" /></g><g c_partid="part_pcbtext" c_etype="" c_origin="4025,3333.5" c_rotation="180" c_mirror="" id="gge2350" locked="0" layerid="3" c_shapetype="group" display="none"><path c_fontsize="4.5" c_fontfamily="" c_text="LED5MM" d="M 4025 3338.04 L 4025 3333.75 M 4025 3333.75 L 4022.55 3333.75 M 4021.2 3338.04 L 4021.2 3333.75 M 4021.2 3338.04 L 4018.54 3338.04 M 4021.2 3336 L 4019.56 3336 M 4021.2 3333.75 L 4018.54 3333.75 M 4017.19 3338.04 L 4017.19 3333.75 M 4017.19 3338.04 L 4015.75 3338.04 L 4015.14 3337.84 L 4014.73 3337.43 L 4014.53 3337.02 L 4014.32 3336.4 L 4014.32 3335.38 L 4014.53 3334.77 L 4014.73 3334.36 L 4015.14 3333.95 L 4015.75 3333.75 L 4017.19 3333.75 M 4010.52 3338.04 L 4012.56 3338.04 L 4012.77 3336.2 L 4012.56 3336.4 L 4011.95 3336.61 L 4011.34 3336.61 L 4010.72 3336.4 L 4010.31 3336 L 4010.11 3335.38 L 4010.11 3334.97 L 4010.31 3334.36 L 4010.72 3333.95 L 4011.34 3333.75 L 4011.95 3333.75 L 4012.56 3333.95 L 4012.77 3334.15 L 4012.97 3334.56 M 4008.76 3338.04 L 4008.76 3333.75 M 4008.76 3338.04 L 4007.12 3333.75 M 4005.49 3338.04 L 4007.12 3333.75 M 4005.49 3338.04 L 4005.49 3333.75 M 4004.14 3338.04 L 4004.14 3333.75 M 4004.14 3338.04 L 4002.5 3333.75 M 4000.86 3338.04 L 4002.5 3333.75 M 4000.86 3338.04 L 4000.86 3333.75" fill="none"  stroke-width="0.6" c_note="note_name" /></g><g c_partid="part_pcbtext" c_etype="" c_origin="4025,3326.5" c_rotation="180" c_mirror="" id="gge2356" locked="0" layerid="3" c_shapetype="group" ><path c_fontsize="4.5" c_fontfamily="" c_text="LED5" d="M 4025 3331.04 L 4025 3326.75 M 4025 3326.75 L 4022.55 3326.75 M 4021.2 3331.04 L 4021.2 3326.75 M 4021.2 3331.04 L 4018.54 3331.04 M 4021.2 3329 L 4019.56 3329 M 4021.2 3326.75 L 4018.54 3326.75 M 4017.19 3331.04 L 4017.19 3326.75 M 4017.19 3331.04 L 4015.75 3331.04 L 4015.14 3330.84 L 4014.73 3330.43 L 4014.53 3330.02 L 4014.32 3329.4 L 4014.32 3328.38 L 4014.53 3327.77 L 4014.73 3327.36 L 4015.14 3326.95 L 4015.75 3326.75 L 4017.19 3326.75 M 4010.52 3331.04 L 4012.56 3331.04 L 4012.77 3329.2 L 4012.56 3329.4 L 4011.95 3329.61 L 4011.34 3329.61 L 4010.72 3329.4 L 4010.31 3329 L 4010.11 3328.38 L 4010.11 3327.97 L 4010.31 3327.36 L 4010.72 3326.95 L 4011.34 3326.75 L 4011.95 3326.75 L 4012.56 3326.95 L 4012.77 3327.15 L 4012.97 3327.56" fill="none"  stroke-width="0.6" c_note="note_pre" /></g><g c_partid="part_pcbtext" c_etype="" c_origin="4020.5,3282" c_rotation="180" c_mirror="" id="gge2968" locked="0" layerid="3" c_shapetype="group" display="none"><path c_fontsize="4.5" c_fontfamily="" c_text="Resistors" d="M 4020.5 3286.54 L 4020.5 3282.25 M 4020.5 3286.54 L 4018.66 3286.54 L 4018.05 3286.34 L 4017.84 3286.13 L 4017.64 3285.72 L 4017.64 3285.31 L 4017.84 3284.9 L 4018.05 3284.7 L 4018.66 3284.5 L 4020.5 3284.5 M 4019.07 3284.5 L 4017.64 3282.25 M 4016.29 3283.88 L 4013.83 3283.88 L 4013.83 3284.29 L 4014.04 3284.7 L 4014.24 3284.9 L 4014.65 3285.11 L 4015.26 3285.11 L 4015.67 3284.9 L 4016.08 3284.5 L 4016.29 3283.88 L 4016.29 3283.47 L 4016.08 3282.86 L 4015.67 3282.45 L 4015.26 3282.25 L 4014.65 3282.25 L 4014.24 3282.45 L 4013.83 3282.86 M 4010.23 3284.5 L 4010.44 3284.9 L 4011.05 3285.11 L 4011.66 3285.11 L 4012.28 3284.9 L 4012.48 3284.5 L 4012.28 3284.09 L 4011.87 3283.88 L 4010.85 3283.68 L 4010.44 3283.47 L 4010.23 3283.06 L 4010.23 3282.86 L 4010.44 3282.45 L 4011.05 3282.25 L 4011.66 3282.25 L 4012.28 3282.45 L 4012.48 3282.86 M 4008.88 3286.54 L 4008.68 3286.34 L 4008.47 3286.54 L 4008.68 3286.75 L 4008.88 3286.54 M 4008.68 3285.11 L 4008.68 3282.25 M 4004.87 3284.5 L 4005.08 3284.9 L 4005.69 3285.11 L 4006.3 3285.11 L 4006.92 3284.9 L 4007.12 3284.5 L 4006.92 3284.09 L 4006.51 3283.88 L 4005.49 3283.68 L 4005.08 3283.47 L 4004.87 3283.06 L 4004.87 3282.86 L 4005.08 3282.45 L 4005.69 3282.25 L 4006.3 3282.25 L 4006.92 3282.45 L 4007.12 3282.86 M 4002.91 3286.54 L 4002.91 3283.06 L 4002.7 3282.45 L 4002.3 3282.25 L 4001.89 3282.25 M 4003.52 3285.11 L 4002.09 3285.11 M 3999.51 3285.11 L 3999.92 3284.9 L 4000.33 3284.5 L 4000.54 3283.88 L 4000.54 3283.47 L 4000.33 3282.86 L 3999.92 3282.45 L 3999.51 3282.25 L 3998.9 3282.25 L 3998.49 3282.45 L 3998.08 3282.86 L 3997.88 3283.47 L 3997.88 3283.88 L 3998.08 3284.5 L 3998.49 3284.9 L 3998.9 3285.11 L 3999.51 3285.11 M 3996.53 3285.11 L 3996.53 3282.25 M 3996.53 3283.88 L 3996.32 3284.5 L 3995.91 3284.9 L 3995.5 3285.11 L 3994.89 3285.11 M 3991.29 3284.5 L 3991.5 3284.9 L 3992.11 3285.11 L 3992.72 3285.11 L 3993.34 3284.9 L 3993.54 3284.5 L 3993.34 3284.09 L 3992.93 3283.88 L 3991.9 3283.68 L 3991.5 3283.47 L 3991.29 3283.06 L 3991.29 3282.86 L 3991.5 3282.45 L 3992.11 3282.25 L 3992.72 3282.25 L 3993.34 3282.45 L 3993.54 3282.86" fill="none"  stroke-width="0.6" c_note="note_name" /></g><g c_partid="part_pcbtext" c_etype="" c_origin="4020.5,3275" c_rotation="180" c_mirror="" id="gge2974" locked="0" layerid="3" c_shapetype="group" ><path c_fontsize="4.5" c_fontfamily="" c_text="U4" d="M 4020.5 3279.54 L 4020.5 3276.47 L 4020.3 3275.86 L 4019.89 3275.45 L 4019.27 3275.25 L 4018.86 3275.25 L 4018.25 3275.45 L 4017.84 3275.86 L 4017.64 3276.47 L 4017.64 3279.54 M 4014.24 3279.54 L 4016.29 3276.68 L 4013.22 3276.68 M 4014.24 3279.54 L 4014.24 3275.25" fill="none"  stroke-width="0.6" c_note="note_pre" /></g><g c_partid="part_pcbtext" c_etype="pinpart" c_origin="4026,3267.5" c_rotation="180" c_mirror="0" id="gge3031" locked="0" layerid="3" c_shapetype="group" ><path c_fontsize="2.9528" c_fontfamily="" c_text="2.2K Ohm" d="M 4025.87 3269.81 L 4025.87 3269.94 L 4025.73 3270.21 L 4025.6 3270.35 L 4025.33 3270.48 L 4024.79 3270.48 L 4024.52 3270.35 L 4024.39 3270.21 L 4024.26 3269.94 L 4024.26 3269.67 L 4024.39 3269.41 L 4024.66 3269 L 4026 3267.66 L 4024.12 3267.66 M 4023.1 3268.33 L 4023.24 3268.2 L 4023.1 3268.06 L 4022.97 3268.2 L 4023.1 3268.33 M 4021.95 3269.81 L 4021.95 3269.94 L 4021.81 3270.21 L 4021.68 3270.35 L 4021.41 3270.48 L 4020.87 3270.48 L 4020.6 3270.35 L 4020.47 3270.21 L 4020.34 3269.94 L 4020.34 3269.67 L 4020.47 3269.41 L 4020.74 3269 L 4022.08 3267.66 L 4020.2 3267.66 M 4019.32 3270.48 L 4019.32 3267.66 M 4017.44 3270.48 L 4019.32 3268.6 M 4018.64 3269.27 L 4017.44 3267.66 M 4013.68 3270.48 L 4013.95 3270.35 L 4014.22 3270.08 L 4014.35 3269.81 L 4014.48 3269.41 L 4014.48 3268.73 L 4014.35 3268.33 L 4014.22 3268.06 L 4013.95 3267.8 L 4013.68 3267.66 L 4013.14 3267.66 L 4012.87 3267.8 L 4012.61 3268.06 L 4012.47 3268.33 L 4012.34 3268.73 L 4012.34 3269.41 L 4012.47 3269.81 L 4012.61 3270.08 L 4012.87 3270.35 L 4013.14 3270.48 L 4013.68 3270.48 M 4011.45 3270.48 L 4011.45 3267.66 M 4011.45 3269 L 4011.05 3269.41 L 4010.78 3269.54 L 4010.38 3269.54 L 4010.11 3269.41 L 4009.97 3269 L 4009.97 3267.66 M 4009.09 3269.54 L 4009.09 3267.66 M 4009.09 3269 L 4008.69 3269.41 L 4008.42 3269.54 L 4008.02 3269.54 L 4007.75 3269.41 L 4007.61 3269 L 4007.61 3267.66 M 4007.61 3269 L 4007.21 3269.41 L 4006.94 3269.54 L 4006.54 3269.54 L 4006.27 3269.41 L 4006.14 3269 L 4006.14 3267.66" fill="none"  stroke-width="0.6299"  /></g><g c_partid="part_pcbtext" c_etype="" c_origin="4014.5,3249.5" c_rotation="180" c_mirror="" id="gge3073" locked="0" layerid="3" c_shapetype="group" display="none"><path c_fontsize="4.5" c_fontfamily="" c_text="Resistors" d="M 4014.5 3254.04 L 4014.5 3249.75 M 4014.5 3254.04 L 4012.66 3254.04 L 4012.05 3253.84 L 4011.84 3253.63 L 4011.64 3253.22 L 4011.64 3252.81 L 4011.84 3252.4 L 4012.05 3252.2 L 4012.66 3252 L 4014.5 3252 M 4013.07 3252 L 4011.64 3249.75 M 4010.29 3251.38 L 4007.83 3251.38 L 4007.83 3251.79 L 4008.04 3252.2 L 4008.24 3252.4 L 4008.65 3252.61 L 4009.26 3252.61 L 4009.67 3252.4 L 4010.08 3252 L 4010.29 3251.38 L 4010.29 3250.97 L 4010.08 3250.36 L 4009.67 3249.95 L 4009.26 3249.75 L 4008.65 3249.75 L 4008.24 3249.95 L 4007.83 3250.36 M 4004.23 3252 L 4004.44 3252.4 L 4005.05 3252.61 L 4005.66 3252.61 L 4006.28 3252.4 L 4006.48 3252 L 4006.28 3251.59 L 4005.87 3251.38 L 4004.85 3251.18 L 4004.44 3250.97 L 4004.23 3250.56 L 4004.23 3250.36 L 4004.44 3249.95 L 4005.05 3249.75 L 4005.66 3249.75 L 4006.28 3249.95 L 4006.48 3250.36 M 4002.88 3254.04 L 4002.68 3253.84 L 4002.47 3254.04 L 4002.68 3254.25 L 4002.88 3254.04 M 4002.68 3252.61 L 4002.68 3249.75 M 3998.87 3252 L 3999.08 3252.4 L 3999.69 3252.61 L 4000.3 3252.61 L 4000.92 3252.4 L 4001.12 3252 L 4000.92 3251.59 L 4000.51 3251.38 L 3999.49 3251.18 L 3999.08 3250.97 L 3998.87 3250.56 L 3998.87 3250.36 L 3999.08 3249.95 L 3999.69 3249.75 L 4000.3 3249.75 L 4000.92 3249.95 L 4001.12 3250.36 M 3996.91 3254.04 L 3996.91 3250.56 L 3996.7 3249.95 L 3996.3 3249.75 L 3995.89 3249.75 M 3997.52 3252.61 L 3996.09 3252.61 M 3993.51 3252.61 L 3993.92 3252.4 L 3994.33 3252 L 3994.54 3251.38 L 3994.54 3250.97 L 3994.33 3250.36 L 3993.92 3249.95 L 3993.51 3249.75 L 3992.9 3249.75 L 3992.49 3249.95 L 3992.08 3250.36 L 3991.88 3250.97 L 3991.88 3251.38 L 3992.08 3252 L 3992.49 3252.4 L 3992.9 3252.61 L 3993.51 3252.61 M 3990.53 3252.61 L 3990.53 3249.75 M 3990.53 3251.38 L 3990.32 3252 L 3989.91 3252.4 L 3989.5 3252.61 L 3988.89 3252.61 M 3985.29 3252 L 3985.5 3252.4 L 3986.11 3252.61 L 3986.72 3252.61 L 3987.34 3252.4 L 3987.54 3252 L 3987.34 3251.59 L 3986.93 3251.38 L 3985.9 3251.18 L 3985.5 3250.97 L 3985.29 3250.56 L 3985.29 3250.36 L 3985.5 3249.95 L 3986.11 3249.75 L 3986.72 3249.75 L 3987.34 3249.95 L 3987.54 3250.36" fill="none"  stroke-width="0.6" c_note="note_name" /></g><g c_partid="part_pcbtext" c_etype="" c_origin="4014.5,3242.5" c_rotation="180" c_mirror="" id="gge3079" locked="0" layerid="3" c_shapetype="group" ><path c_fontsize="4.5" c_fontfamily="" c_text="U5" d="M 4014.5 3247.04 L 4014.5 3243.97 L 4014.3 3243.36 L 4013.89 3242.95 L 4013.27 3242.75 L 4012.86 3242.75 L 4012.25 3242.95 L 4011.84 3243.36 L 4011.64 3243.97 L 4011.64 3247.04 M 4007.83 3247.04 L 4009.88 3247.04 L 4010.08 3245.2 L 4009.88 3245.4 L 4009.26 3245.61 L 4008.65 3245.61 L 4008.04 3245.4 L 4007.63 3245 L 4007.42 3244.38 L 4007.42 3243.97 L 4007.63 3243.36 L 4008.04 3242.95 L 4008.65 3242.75 L 4009.26 3242.75 L 4009.88 3242.95 L 4010.08 3243.15 L 4010.29 3243.56" fill="none"  stroke-width="0.6" c_note="note_pre" /></g><g c_partid="part_pcbtext" c_etype="pinpart" c_origin="4022,3235.5" c_rotation="180" c_mirror="0" id="gge3136" locked="0" layerid="3" c_shapetype="group" ><path c_fontsize="2.9528" c_fontfamily="" c_text="2.2K Ohm" d="M 4021.87 3237.81 L 4021.87 3237.94 L 4021.73 3238.21 L 4021.6 3238.35 L 4021.33 3238.48 L 4020.79 3238.48 L 4020.52 3238.35 L 4020.39 3238.21 L 4020.26 3237.94 L 4020.26 3237.67 L 4020.39 3237.41 L 4020.66 3237 L 4022 3235.66 L 4020.12 3235.66 M 4019.1 3236.33 L 4019.24 3236.2 L 4019.1 3236.06 L 4018.97 3236.2 L 4019.1 3236.33 M 4017.95 3237.81 L 4017.95 3237.94 L 4017.81 3238.21 L 4017.68 3238.35 L 4017.41 3238.48 L 4016.87 3238.48 L 4016.6 3238.35 L 4016.47 3238.21 L 4016.34 3237.94 L 4016.34 3237.67 L 4016.47 3237.41 L 4016.74 3237 L 4018.08 3235.66 L 4016.2 3235.66 M 4015.32 3238.48 L 4015.32 3235.66 M 4013.44 3238.48 L 4015.32 3236.6 M 4014.64 3237.27 L 4013.44 3235.66 M 4009.68 3238.48 L 4009.95 3238.35 L 4010.22 3238.08 L 4010.35 3237.81 L 4010.48 3237.41 L 4010.48 3236.73 L 4010.35 3236.33 L 4010.22 3236.06 L 4009.95 3235.8 L 4009.68 3235.66 L 4009.14 3235.66 L 4008.87 3235.8 L 4008.61 3236.06 L 4008.47 3236.33 L 4008.34 3236.73 L 4008.34 3237.41 L 4008.47 3237.81 L 4008.61 3238.08 L 4008.87 3238.35 L 4009.14 3238.48 L 4009.68 3238.48 M 4007.45 3238.48 L 4007.45 3235.66 M 4007.45 3237 L 4007.05 3237.41 L 4006.78 3237.54 L 4006.38 3237.54 L 4006.11 3237.41 L 4005.97 3237 L 4005.97 3235.66 M 4005.09 3237.54 L 4005.09 3235.66 M 4005.09 3237 L 4004.69 3237.41 L 4004.42 3237.54 L 4004.02 3237.54 L 4003.75 3237.41 L 4003.61 3237 L 4003.61 3235.66 M 4003.61 3237 L 4003.21 3237.41 L 4002.94 3237.54 L 4002.54 3237.54 L 4002.27 3237.41 L 4002.14 3237 L 4002.14 3235.66" fill="none"  stroke-width="0.6299"  /></g><path d="M 4010 3164.5 A 12.5 12.5 0 1 1 4010 3179.5" locked="0"  fill="none" stroke-width="1" c_helper_type="arc2" net="" layerid="3" id="gge2290" /><path d="M 4013 3305 A 12.5 12.5 0 1 1 4013 3320" locked="0"  fill="none" stroke-width="1" c_helper_type="arc2" net="" layerid="3" id="gge2365" /><path d="M 4008.1 3273.6 A 1 1 0 0 1 4007.1 3272.6" locked="0"  fill="none" stroke-width="0.6" c_helper_type="arc2" net="" layerid="3" id="gge3013" /><path d="M 4008.1 3264.6 A 1 1 0 0 0 4007.1 3265.6" locked="0"  fill="none" stroke-width="0.6" c_helper_type="arc2" net="" layerid="3" id="gge3016" /><path d="M 4032.1 3265.6 A 1 1 0 0 0 4031.1 3264.6" locked="0"  fill="none" stroke-width="0.6" c_helper_type="arc2" net="" layerid="3" id="gge3019" /><path d="M 4032.1 3272.6 A 1 1 0 0 1 4031.1 3273.6" locked="0"  fill="none" stroke-width="0.6" c_helper_type="arc2" net="" layerid="3" id="gge3022" /><path d="M 4002.1 3241.1 A 1 1 0 0 1 4001.1 3240.1" locked="0"  fill="none" stroke-width="0.6" c_helper_type="arc2" net="" layerid="3" id="gge3118" /><path d="M 4002.1 3232.1 A 1 1 0 0 0 4001.1 3233.1" locked="0"  fill="none" stroke-width="0.6" c_helper_type="arc2" net="" layerid="3" id="gge3121" /><path d="M 4026.1 3233.1 A 1 1 0 0 0 4025.1 3232.1" locked="0"  fill="none" stroke-width="0.6" c_helper_type="arc2" net="" layerid="3" id="gge3124" /><path d="M 4026.1 3240.1 A 1 1 0 0 1 4025.1 3241.1" locked="0"  fill="none" stroke-width="0.6" c_helper_type="arc2" net="" layerid="3" id="gge3127" /><circle cx="4020" cy="3172" r="10" stroke-width="1" fill="none" layerid="3" id="gge2293" locked="0"  /><circle cx="4023" cy="3312.5" r="10" stroke-width="1" fill="none" layerid="3" id="gge2368" locked="0"  /><path d="M 4035.5 3267.9 L 4032.1 3267.9 L 4032.1 3270.3 L 4035.5 3270.3 Z " stroke-width="0"   net="" type="solid" layerid="3" id="gge3007" locked="0" c_teardrop="" c_targetpad="" c_targetwire="" /><path d="M 4007.1 3267.9 L 4003.7 3267.9 L 4003.7 3270.3 L 4007.1 3270.3 Z " stroke-width="0"   net="" type="solid" layerid="3" id="gge3010" locked="0" c_teardrop="" c_targetpad="" c_targetwire="" /><path d="M 4029.5 3235.4 L 4026.1 3235.4 L 4026.1 3237.8 L 4029.5 3237.8 Z" stroke-width="0"   net="" type="solid" layerid="3" id="gge3112" locked="0" c_teardrop="" c_targetpad="" c_targetwire="" /><path d="M 4001.1 3235.4 L 3997.7 3235.4 L 3997.7 3237.8 L 4001.1 3237.8 Z" stroke-width="0"   net="" type="solid" layerid="3" id="gge3115" locked="0" c_teardrop="" c_targetpad="" c_targetwire="" /><circle cx="4020" cy="3242" r="98.425" stroke-width="1" fill="none" layerid="10" id="gge1701" locked="0"  net="" transformarc="circle_gge1704,circle_gge1707"/></svg>