<svg xmlns="http://www.w3.org/2000/svg" xmlns:xlink="http://www.w3.org/1999/xlink" width="164.541mm" height="87.986mm" viewBox="3973.3 3200.8 647.8 346.4"><title></title><style type="text/css">
*[layerid="1"] {stroke:#000000;fill:#000000;}
*[layerid="2"] {stroke:#000000;fill:#000000;}
*[layerid="3"] {stroke:#000000;fill:#000000;}
*[layerid="4"] {stroke:#000000;fill:#000000;}
*[layerid="5"] {stroke:#000000;fill:#000000;}
*[layerid="6"] {stroke:#000000;fill:#000000;}
*[layerid="7"] {stroke:#000000;fill:#000000;}
*[layerid="8"] {stroke:#000000;fill:#000000;}
*[layerid="9"] {stroke:#000000;fill:#000000;}
*[layerid="10"] {stroke:#000000;fill:#000000;}
*[layerid="11"] {stroke:#000000;fill:#000000;}
*[layerid="12"] {stroke:#000000;fill:#000000;}
*[layerid="13"] {stroke:#000000;fill:#000000;}
*[layerid="14"] {stroke:#000000;fill:#000000;}
*[layerid="15"] {stroke:#000000;fill:#000000;}
*[layerid="19"] {stroke:#000000;fill:#000000;}
*[layerid="21"] {stroke:#000000;fill:#000000;}
*[layerid="22"] {stroke:#000000;fill:#000000;}
*[layerid="23"] {stroke:#000000;fill:#000000;}
*[layerid="24"] {stroke:#000000;fill:#000000;}
*[layerid="25"] {stroke:#000000;fill:#000000;}
*[layerid="26"] {stroke:#000000;fill:#000000;}
*[layerid="27"] {stroke:#000000;fill:#000000;}
*[layerid="28"] {stroke:#000000;fill:#000000;}
*[layerid="29"] {stroke:#000000;fill:#000000;}
*[layerid="30"] {stroke:#000000;fill:#000000;}
*[layerid="31"] {stroke:#000000;fill:#000000;}
*[layerid="32"] {stroke:#000000;fill:#000000;}
*[layerid="33"] {stroke:#000000;fill:#000000;}
*[layerid="34"] {stroke:#000000;fill:#000000;}
*[layerid="35"] {stroke:#000000;fill:#000000;}
*[layerid="36"] {stroke:#000000;fill:#000000;}
*[layerid="37"] {stroke:#000000;fill:#000000;}
*[layerid="38"] {stroke:#000000;fill:#000000;}
*[layerid="39"] {stroke:#000000;fill:#000000;}
*[layerid="40"] {stroke:#000000;fill:#000000;}
*[layerid="41"] {stroke:#000000;fill:#000000;}
*[layerid="42"] {stroke:#000000;fill:#000000;}
*[layerid="43"] {stroke:#000000;fill:#000000;}
*[layerid="44"] {stroke:#000000;fill:#000000;}
*[layerid="45"] {stroke:#000000;fill:#000000;}
*[layerid="46"] {stroke:#000000;fill:#000000;}
*[layerid="47"] {stroke:#000000;fill:#000000;}
*[layerid="48"] {stroke:#000000;fill:#000000;}
*[layerid="49"] {stroke:#000000;fill:#000000;}
*[layerid="50"] {stroke:#000000;fill:#000000;}
*[layerid="51"] {stroke:#000000;fill:#000000;}
*[layerid="52"] {stroke:#000000;fill:#000000;}
*[layerid="99"] {stroke:#000000;fill:#000000;}
*[layerid="100"] {stroke:#000000;fill:#000000;}
*[layerid="101"] {stroke:#000000;fill:#000000;}
*[layerid="Hole"] {stroke:#000000;fill:#000000;}
*[layerid="DRCError"] {stroke:#000000;fill:#000000;}
*[fill="none"] {fill: none;}
*[stroke="none"] {stroke: none;}
path, polyline, polygon, line {stroke-linecap:round;}
g[c_partid="part_pad"][layerid="1"] ellipse:not([c_etype="pad_outer"]) {fill:#000000;}
g[c_partid="part_pad"][layerid="1"] polygon:not([c_etype="pad_outer"]) {fill:#000000;}
g[c_partid="part_pad"][layerid="1"] polyline:not([c_etype="pad_outer"]) {stroke:#000000;}
g[c_partid="part_pad"][layerid="2"] ellipse:not([c_etype="pad_outer"]) {fill:#000000;}
g[c_partid="part_pad"][layerid="2"] polygon:not([c_etype="pad_outer"]) {fill:#000000;}
g[c_partid="part_pad"][layerid="2"] polyline:not([c_etype="pad_outer"]) {stroke:#000000;}
g[c_partid="part_pad"][layerid="11"] ellipse:not([c_etype="pad_outer"]) {fill:#000000;}
g[c_partid="part_pad"][layerid="11"] polygon:not([c_etype="pad_outer"]) {fill:#000000;}
g[c_partid="part_pad"][layerid="11"] polyline:not([c_etype="pad_outer"]) {stroke:#000000;}
g[c_partid="part_pad"][layerid="11"] circle {fill:#FFFFFF;}
g[c_partid="part_pad"][layerid="11"] > polyline:nth-of-type(2) {stroke:#FFFFFF;}
g[c_partid="part_pad"][layerid="11"][c_shape="ELLIPSE"]  polyline:nth-last-of-type(1) {stroke:#FFFFFF;}
g[c_partid="part_pad"][layerid="11"][c_shape="RECT"]  polyline:nth-last-of-type(1) {stroke:#FFFFFF;}
g[c_partid="part_pad"][layerid="11"][c_shape="POLYGON"]  polyline:nth-last-of-type(1) {stroke:#FFFFFF;}
g[c_partid="part_via"] > * + circle, #gCurParts g[c_partid="part_via"] > * + circle {fill:#FFFFFF;}
g[c_partid="part_pad"] > polygon[c_etype="pad_outer"], #gCurParts g[c_partid="part_pad"] > polygon[c_etype="pad_outer"] {stroke-linejoin: round;stroke-miterlimit: 100;}
g[c_partid="part_hole"] > circle {fill: #FFFFFF;}path, polyline, polygon {stroke-linejoin:round;}
rect, circle, ellipse, polyline, line, polygon, path {shape-rendering:crispEdges;}
</style>
<rect x="3973.3" y="3200.8" width="647.8" height="346.4" fill="#FFFFFF" stroke="none"/><polyline points="4048.5 3389 4048.5 3408.7" stroke-width="3.937"  stroke-linecap="round" fill="none" layerid="1" net="U1_2" id="gge2953" locked="0" /><polyline points="4092.075 3427.87 4072.905 3408.7 4048.5 3408.7" stroke-width="3.937"  stroke-linecap="round" fill="none" layerid="1" net="U1_2" id="gge2950" locked="0" /><polyline points="4048.5 3369.3 4071.905 3369.3 4092.075 3349.13" stroke-width="3.937"  stroke-linecap="round" fill="none" layerid="1" net="U1_1" id="gge2947" locked="0" /><polyline points="4352.507 3376.5 4352.507 3370.865 4349.142 3367.5" stroke-width="3.937"  stroke-linecap="round" fill="none" layerid="1" net="VDC+" id="gge2079" locked="0" /><polyline points="4348.142 3420 4348.142 3413.602 4363.102 3398.642" stroke-width="3.937"  stroke-linecap="round" fill="none" layerid="1" net="VDC+" id="gge2076" locked="0" /><polyline points="4363.102 3398.642 4364.744 3397" stroke-width="3.937"  stroke-linecap="round" fill="none" layerid="1" net="VDC+" id="gge2073" locked="0" /><polyline points="4358.034 3376.5 4355.159 3376.5" stroke-width="3.937"  stroke-linecap="round" fill="none" layerid="1" net="VDC+" id="gge2070" locked="0" /><polyline points="4355.159 3376.5 4352.507 3376.5" stroke-width="3.937"  stroke-linecap="round" fill="none" layerid="1" net="VDC+" id="gge2067" locked="0" /><polyline points="4355.159 3376.5 4355.159 3387.415 4363.102 3395.358" stroke-width="3.937"  stroke-linecap="round" fill="none" layerid="1" net="VDC+" id="gge2064" locked="0" /><polyline points="4363.102 3395.358 4364.744 3397" stroke-width="3.937"  stroke-linecap="round" fill="none" layerid="1" net="VDC+" id="gge2061" locked="0" /><polyline points="4371.898 3398.642 4370.256 3397" stroke-width="3.937"  stroke-linecap="round" fill="none" layerid="1" net="VDC-" id="gge2058" locked="0" /><polyline points="4359.85 3350.106 4360.244 3350.5" stroke-width="3.937"  stroke-linecap="round" fill="none" layerid="1" net="VDC-" id="gge2055" locked="0" /><polyline points="4358.602 3348.858 4359.85 3348.858" stroke-width="3.937"  stroke-linecap="round" fill="none" layerid="1" net="VDC-" id="gge2052" locked="0" /><polyline points="4500.654 3287.5 4494.338 3281.184 4425.46 3281.184 4359.85 3346.794 4359.85 3348.858" stroke-width="3.937"  stroke-linecap="round" fill="none" layerid="1" net="VDC-" id="gge2049" locked="0" /><polyline points="4359.85 3348.858 4359.85 3350.106" stroke-width="3.937"  stroke-linecap="round" fill="none" layerid="1" net="VDC-" id="gge2046" locked="0" /><polyline points="4358.602 3348.858 4352.184 3348.858 4312.542 3388.5" stroke-width="3.937"  stroke-linecap="round" fill="none" layerid="1" net="VDC-" id="gge2043" locked="0" /><polyline points="4312.542 3388.5 4288.925 3388.5" stroke-width="3.937"  stroke-linecap="round" fill="none" layerid="1" net="VDC-" id="gge2040" locked="0" /><polyline points="4375.727 3402.47 4350.958 3427.239 4345.347 3427.239 4312.542 3394.434 4312.542 3388.5" stroke-width="3.937"  stroke-linecap="round" fill="none" layerid="1" net="VDC-" id="gge2037" locked="0" /><polyline points="4393.213 3414.323 4387.579 3414.323 4375.727 3402.47" stroke-width="3.937"  stroke-linecap="round" fill="none" layerid="1" net="VDC-" id="gge2034" locked="0" /><polyline points="4375.727 3402.47 4371.898 3398.642" stroke-width="3.937"  stroke-linecap="round" fill="none" layerid="1" net="VDC-" id="gge2031" locked="0" /><polyline points="4393.213 3329.678 4386.578 3329.678 4367.398 3348.858" stroke-width="3.937"  stroke-linecap="round" fill="none" layerid="1" net="DC+" id="gge2028" locked="0" /><polyline points="4367.398 3348.858 4365.756 3350.5" stroke-width="3.937"  stroke-linecap="round" fill="none" layerid="1" net="DC+" id="gge2025" locked="0" /><polyline points="4475.534 3287.5 4435.391 3287.5 4393.213 3329.678" stroke-width="3.937"  stroke-linecap="round" fill="none" layerid="1" net="DC+" id="gge2022" locked="0" /><polyline points="4363.966 3370.859 4365.764 3369.061 4365.764 3350.508" stroke-width="3.937"  stroke-linecap="round" fill="none" layerid="1" net="DC+" id="gge2019" locked="0" /><polyline points="4365.764 3350.508 4365.756 3350.5" stroke-width="3.937"  stroke-linecap="round" fill="none" layerid="1" net="DC+" id="gge2016" locked="0" /><polyline points="4363.966 3376.5 4363.966 3370.859" stroke-width="3.937"  stroke-linecap="round" fill="none" layerid="1" net="DC+" id="gge2013" locked="0" /><polyline points="4288.925 3349.13 4307.295 3367.5 4316.858 3367.5" stroke-width="3.937"  stroke-linecap="round" fill="none" layerid="1" net="U1_5" id="gge2010" locked="0" /><polyline points="4288.925 3427.87 4307.988 3427.87 4315.858 3420" stroke-width="3.937"  stroke-linecap="round" fill="none" layerid="1" net="U1_3" id="gge2007" locked="0" /><polyline points="4486.993 3287.5 4492.906 3293.413 4507.342 3293.413 4507.347 3293.408" stroke-width="3.937"  stroke-linecap="round" fill="none" layerid="1" net="R2_2" id="gge2004" locked="0" /><polyline points="4481.466 3287.5 4486.993 3287.5" stroke-width="3.937"  stroke-linecap="round" fill="none" layerid="1" net="R2_2" id="gge2001" locked="0" /><polyline points="4507.347 3287.5 4507.347 3293.408" stroke-width="3.937"  stroke-linecap="round" fill="none" layerid="1" net="R2_2" id="gge1998" locked="0" /><polyline points="4588.5 3355.327 4570.436 3355.327 4544.787 3329.678" stroke-width="3.937"  stroke-linecap="round" fill="none" layerid="1" net="U2_3" id="gge1986" locked="0" /><polyline points="4588.5 3383.673 4575.437 3383.673 4544.787 3414.323" stroke-width="3.937"  stroke-linecap="round" fill="none" layerid="1" net="U2_4" id="gge1983" locked="0" /><g c_partid="part_pad" c_etype="pinpart" c_origin="4364.744,3397" layerid="1" number="2" net="VDC+" plated ="Y"  id="gge69" locked="0" c_rotation="180" c_width="3.1496" c_height="3.5433" title="VDC+" c_shape="RECT" pasteexpansion="0.0000" solderexpansion="0.2000"><polygon  c_etype="pad_shell" points="4366.3189 3398.7717 4363.1693 3398.7717 4363.1693 3395.2283 4366.3189 3395.2283" layerid="1" stroke-width="0" /><circle c_etype="pad_hole" cx="4364.7445" cy="3397" r="0" layerid="1" stroke-width="0"/></g><g c_partid="part_pad" c_etype="pinpart" c_origin="4370.256,3397" layerid="1" number="1" net="VDC-" plated ="Y"  id="gge84" locked="0" c_rotation="180" c_width="3.1496" c_height="3.5433" title="VDC-" c_shape="RECT" pasteexpansion="0.0000" solderexpansion="0.2000"><polygon  c_etype="pad_shell" points="4371.8307 3398.7717 4368.6811 3398.7717 4368.6811 3395.2283 4371.8307 3395.2283" layerid="1" stroke-width="0" /><circle c_etype="pad_hole" cx="4370.2555" cy="3397" r="0" layerid="1" stroke-width="0"/></g><g c_partid="part_pad" c_etype="pinpart" c_origin="4365.756,3350.5" layerid="1" number="2" net="DC+" plated ="Y"  id="gge165" locked="0" c_rotation="0" c_width="3.1496" c_height="3.5433" title="DC+" c_shape="RECT" pasteexpansion="0.0000" solderexpansion="0.2000"><polygon  c_etype="pad_shell" points="4364.1811 3348.7283 4367.3307 3348.7283 4367.3307 3352.2717 4364.1811 3352.2717" layerid="1" stroke-width="0" /><circle c_etype="pad_hole" cx="4365.7555" cy="3350.5" r="0" layerid="1" stroke-width="0"/></g><g c_partid="part_pad" c_etype="pinpart" c_origin="4360.244,3350.5" layerid="1" number="1" net="VDC-" plated ="Y"  id="gge180" locked="0" c_rotation="0" c_width="3.1496" c_height="3.5433" title="VDC-" c_shape="RECT" pasteexpansion="0.0000" solderexpansion="0.2000"><polygon  c_etype="pad_shell" points="4358.6693 3348.7283 4361.8189 3348.7283 4361.8189 3352.2717 4358.6693 3352.2717" layerid="1" stroke-width="0" /><circle c_etype="pad_hole" cx="4360.2445" cy="3350.5" r="0" layerid="1" stroke-width="0"/></g><g c_partid="part_pad" c_etype="pinpart" c_origin="4363.966,3376.5" layerid="1" number="2" net="DC+" plated ="Y"  id="gge945" locked="0" c_rotation="0" c_width="3.1751" c_height="3.4016" title="DC+" c_shape="RECT" pasteexpansion="-393.7008" solderexpansion="0.2000"><polygon  c_etype="pad_shell" points="4362.378 3378.2008 4362.378 3374.7992 4365.5531 3374.7992 4365.5531 3378.2008" layerid="1" stroke-width="0" /><circle c_etype="pad_hole" cx="4363.9655" cy="3376.5" r="0" layerid="1" stroke-width="0"/></g><g c_partid="part_pad" c_etype="pinpart" c_origin="4358.034,3376.5" layerid="1" number="1" net="VDC+" plated ="Y"  id="gge957" locked="0" c_rotation="0" c_width="3.1751" c_height="3.4016" title="VDC+" c_shape="RECT" pasteexpansion="-393.7008" solderexpansion="0.2000"><polygon  c_etype="pad_shell" points="4359.622 3378.2008 4359.622 3374.7992 4356.4469 3374.7992 4356.4469 3378.2008" layerid="1" stroke-width="0" /><circle c_etype="pad_hole" cx="4358.0345" cy="3376.5" r="0" layerid="1" stroke-width="0"/></g><g c_partid="part_pad" c_etype="pinpart" c_origin="4481.466,3287.5" layerid="1" number="2" net="R2_2" plated ="Y"  id="gge1017" locked="0" c_rotation="0" c_width="3.1751" c_height="3.4016" title="R2_2" c_shape="RECT" pasteexpansion="-393.7008" solderexpansion="0.2000"><polygon  c_etype="pad_shell" points="4479.878 3289.2008 4479.878 3285.7992 4483.0531 3285.7992 4483.0531 3289.2008" layerid="1" stroke-width="0" /><circle c_etype="pad_hole" cx="4481.4655" cy="3287.5" r="0" layerid="1" stroke-width="0"/></g><g c_partid="part_pad" c_etype="pinpart" c_origin="4475.534,3287.5" layerid="1" number="1" net="DC+" plated ="Y"  id="gge1029" locked="0" c_rotation="0" c_width="3.1751" c_height="3.4016" title="DC+" c_shape="RECT" pasteexpansion="-393.7008" solderexpansion="0.2000"><polygon  c_etype="pad_shell" points="4477.122 3289.2008 4477.122 3285.7992 4473.9469 3285.7992 4473.9469 3289.2008" layerid="1" stroke-width="0" /><circle c_etype="pad_hole" cx="4475.5345" cy="3287.5" r="0" layerid="1" stroke-width="0"/></g><g c_partid="part_pad" c_etype="pinpart" c_origin="4316.858,3367.5" layerid="11" number="2" net="U1_5" plated ="Y"  id="gge336" locked="0" c_rotation="0" c_width="6.2992" c_height="6.2992" title="U1_5" c_shape="ELLIPSE" pasteexpansion="0" solderexpansion="0.2"><ellipse c_etype="pad_shell" cx="4316.858" cy="3367.5" rx="3.1496" ry="3.1496" layerid="11" stroke-width="0"/><circle c_etype="pad_hole" cx="4316.8583" cy="3367.5" r="1.5748" layerid="11" stroke-width="0"/></g><g c_partid="part_pad" c_etype="pinpart" c_origin="4349.142,3367.5" layerid="11" number="1" net="VDC+" plated ="Y"  id="gge351" locked="0" c_rotation="0" c_width="6.2992" c_height="6.2992" title="VDC+" c_shape="ELLIPSE" pasteexpansion="0" solderexpansion="0.2"><ellipse c_etype="pad_shell" cx="4349.142" cy="3367.5" rx="3.1496" ry="3.1496" layerid="11" stroke-width="0"/><circle c_etype="pad_hole" cx="4349.1417" cy="3367.5" r="1.5748" layerid="11" stroke-width="0"/></g><g c_partid="part_pad" c_etype="pinpart" c_origin="4315.858,3420" layerid="11" number="2" net="U1_3" plated ="Y"  id="gge432" locked="0" c_rotation="0" c_width="6.2992" c_height="6.2992" title="U1_3" c_shape="ELLIPSE" pasteexpansion="0" solderexpansion="0.2"><ellipse c_etype="pad_shell" cx="4315.858" cy="3420" rx="3.1496" ry="3.1496" layerid="11" stroke-width="0"/><circle c_etype="pad_hole" cx="4315.8583" cy="3420" r="1.5748" layerid="11" stroke-width="0"/></g><g c_partid="part_pad" c_etype="pinpart" c_origin="4348.142,3420" layerid="11" number="1" net="VDC+" plated ="Y"  id="gge447" locked="0" c_rotation="0" c_width="6.2992" c_height="6.2992" title="VDC+" c_shape="ELLIPSE" pasteexpansion="0" solderexpansion="0.2"><ellipse c_etype="pad_shell" cx="4348.142" cy="3420" rx="3.1496" ry="3.1496" layerid="11" stroke-width="0"/><circle c_etype="pad_hole" cx="4348.1417" cy="3420" r="1.5748" layerid="11" stroke-width="0"/></g><g c_partid="part_pad" c_etype="pinpart" c_origin="4092.075,3349.13" layerid="11" number="1" net="U1_1" plated ="Y"  id="gge1338" locked="0" c_rotation="0" c_width="11.811" c_height="11.811" title="U1_1" c_shape="ELLIPSE" pasteexpansion="0" solderexpansion="0.2"><ellipse c_etype="pad_shell" cx="4092.075" cy="3349.13" rx="5.9055" ry="5.9055" layerid="11" stroke-width="0"/><circle c_etype="pad_hole" cx="4092.075" cy="3349.13" r="2.3622" layerid="11" stroke-width="0"/></g><g c_partid="part_pad" c_etype="pinpart" c_origin="4092.075,3427.87" layerid="11" number="2" net="U1_2" plated ="Y"  id="gge1353" locked="0" c_rotation="0" c_width="11.811" c_height="11.811" title="U1_2" c_shape="ELLIPSE" pasteexpansion="0" solderexpansion="0.2"><ellipse c_etype="pad_shell" cx="4092.075" cy="3427.87" rx="5.9055" ry="5.9055" layerid="11" stroke-width="0"/><circle c_etype="pad_hole" cx="4092.075" cy="3427.87" r="2.3622" layerid="11" stroke-width="0"/></g><g c_partid="part_pad" c_etype="pinpart" c_origin="4288.925,3427.87" layerid="11" number="3" net="U1_3" plated ="Y"  id="gge1368" locked="0" c_rotation="0" c_width="11.811" c_height="11.811" title="U1_3" c_shape="ELLIPSE" pasteexpansion="0" solderexpansion="0.2"><ellipse c_etype="pad_shell" cx="4288.925" cy="3427.87" rx="5.9055" ry="5.9055" layerid="11" stroke-width="0"/><circle c_etype="pad_hole" cx="4288.925" cy="3427.87" r="2.3622" layerid="11" stroke-width="0"/></g><g c_partid="part_pad" c_etype="pinpart" c_origin="4288.925,3388.5" layerid="11" number="4" net="VDC-" plated ="Y"  id="gge1383" locked="0" c_rotation="0" c_width="11.811" c_height="11.811" title="VDC-" c_shape="ELLIPSE" pasteexpansion="0" solderexpansion="0.2"><ellipse c_etype="pad_shell" cx="4288.925" cy="3388.5" rx="5.9055" ry="5.9055" layerid="11" stroke-width="0"/><circle c_etype="pad_hole" cx="4288.925" cy="3388.5" r="2.3622" layerid="11" stroke-width="0"/></g><g c_partid="part_pad" c_etype="pinpart" c_origin="4288.925,3349.13" layerid="11" number="5" net="U1_5" plated ="Y"  id="gge1398" locked="0" c_rotation="0" c_width="11.811" c_height="11.811" title="U1_5" c_shape="ELLIPSE" pasteexpansion="0" solderexpansion="0.2"><ellipse c_etype="pad_shell" cx="4288.925" cy="3349.13" rx="5.9055" ry="5.9055" layerid="11" stroke-width="0"/><circle c_etype="pad_hole" cx="4288.925" cy="3349.13" r="2.3622" layerid="11" stroke-width="0"/></g><g c_partid="part_pad" c_etype="pinpart" c_origin="4393.213,3329.678" layerid="11" number="1" net="DC+" plated ="Y"  id="gge1467" locked="0" c_rotation="0" c_width="7.874" c_height="7.874" title="DC+" c_shape="ELLIPSE" pasteexpansion="0" solderexpansion="0.2"><ellipse c_etype="pad_shell" cx="4393.213" cy="3329.678" rx="3.937" ry="3.937" layerid="11" stroke-width="0"/><circle c_etype="pad_hole" cx="4393.2126" cy="3329.6771" r="1.8" layerid="11" stroke-width="0"/></g><g c_partid="part_pad" c_etype="pinpart" c_origin="4393.213,3414.323" layerid="11" number="2" net="VDC-" plated ="Y"  id="gge1482" locked="0" c_rotation="0" c_width="7.874" c_height="7.874" title="VDC-" c_shape="ELLIPSE" pasteexpansion="0" solderexpansion="0.2"><ellipse c_etype="pad_shell" cx="4393.213" cy="3414.323" rx="3.937" ry="3.937" layerid="11" stroke-width="0"/><circle c_etype="pad_hole" cx="4393.2126" cy="3414.3229" r="1.8" layerid="11" stroke-width="0"/></g><g c_partid="part_pad" c_etype="pinpart" c_origin="4544.787,3329.678" layerid="11" number="3" net="U2_3" plated ="Y"  id="gge1497" locked="0" c_rotation="0" c_width="7.874" c_height="7.874" title="U2_3" c_shape="ELLIPSE" pasteexpansion="0" solderexpansion="0.2"><ellipse c_etype="pad_shell" cx="4544.787" cy="3329.678" rx="3.937" ry="3.937" layerid="11" stroke-width="0"/><circle c_etype="pad_hole" cx="4544.7874" cy="3329.6771" r="1.8" layerid="11" stroke-width="0"/></g><g c_partid="part_pad" c_etype="pinpart" c_origin="4544.787,3414.323" layerid="11" number="4" net="U2_4" plated ="Y"  id="gge1512" locked="0" c_rotation="0" c_width="7.874" c_height="7.874" title="U2_4" c_shape="ELLIPSE" pasteexpansion="0" solderexpansion="0.2"><ellipse c_etype="pad_shell" cx="4544.787" cy="3414.323" rx="3.937" ry="3.937" layerid="11" stroke-width="0"/><circle c_etype="pad_hole" cx="4544.7873" cy="3414.323" r="1.8" layerid="11" stroke-width="0"/></g><g c_partid="part_pad" c_etype="pinpart" c_origin="4588.5,3355.327" layerid="11" number="1" net="U2_3" plated ="Y"  id="gge1596" locked="0" c_rotation="270" c_width="22.8346" c_height="22.8346" title="U2_3" c_shape="ELLIPSE" pasteexpansion="0" solderexpansion="0.19685"><ellipse c_etype="pad_shell" cx="4588.5" cy="3355.327" rx="11.4173" ry="11.4173" layerid="11" stroke-width="0"/><circle c_etype="pad_hole" cx="4588.5" cy="3355.3268" r="8.6614" layerid="11" stroke-width="0"/></g><g c_partid="part_pad" c_etype="pinpart" c_origin="4588.5,3383.673" layerid="11" number="2" net="U2_4" plated ="Y"  id="gge1611" locked="0" c_rotation="270" c_width="22.8346" c_height="22.8346" title="U2_4" c_shape="ELLIPSE" pasteexpansion="0" solderexpansion="0.19685"><ellipse c_etype="pad_shell" cx="4588.5" cy="3383.673" rx="11.4173" ry="11.4173" layerid="11" stroke-width="0"/><circle c_etype="pad_hole" cx="4588.5" cy="3383.6732" r="8.6614" layerid="11" stroke-width="0"/></g><g c_partid="part_pad" c_etype="pinpart" c_origin="4048.5,3408.7" layerid="11" number="1" net="U1_2" plated ="Y"  id="gge2458" locked="0" c_rotation="90" c_width="9.5" c_height="9.5" title="U1_2" c_shape="RECT" pasteexpansion="0" solderexpansion="0.2"><polygon  c_etype="pad_shell" points="4043.75 3413.45 4043.75 3403.95 4053.25 3403.95 4053.25 3413.45" layerid="11" stroke-width="0" /><circle c_etype="pad_hole" cx="4048.5" cy="3408.7" r="2.56" layerid="11" stroke-width="0"/></g><g c_partid="part_pad" c_etype="pinpart" c_origin="4048.5,3389" layerid="11" number="2" net="U1_2" plated ="Y"  id="gge2473" locked="0" c_rotation="90" c_width="9.5" c_height="9.5" title="U1_2" c_shape="ELLIPSE" pasteexpansion="0" solderexpansion="0.2"><ellipse c_etype="pad_shell" cx="4048.5" cy="3389" rx="4.75" ry="4.75" layerid="11" stroke-width="0"/><circle c_etype="pad_hole" cx="4048.5" cy="3389" r="2.56" layerid="11" stroke-width="0"/></g><g c_partid="part_pad" c_etype="pinpart" c_origin="4048.5,3369.3" layerid="11" number="3" net="U1_1" plated ="Y"  id="gge2488" locked="0" c_rotation="90" c_width="9.5" c_height="9.5" title="U1_1" c_shape="ELLIPSE" pasteexpansion="0" solderexpansion="0.2"><ellipse c_etype="pad_shell" cx="4048.5" cy="3369.3" rx="4.75" ry="4.75" layerid="11" stroke-width="0"/><circle c_etype="pad_hole" cx="4048.5" cy="3369.3" r="2.56" layerid="11" stroke-width="0"/></g><g c_partid="part_hole" c_etype="pinpart" c_shapetype="group" c_origin="4190.5,3250.705" layerid="11" id="gge1278" locked="0" ><circle cx="4190.5" cy="3250.705" r="5.9055"  stroke-width="1" fill-opacity="0" /></g><g c_partid="part_hole" c_etype="pinpart" c_shapetype="group" c_origin="4190.5,3526.295" layerid="11" id="gge1290" locked="0" ><circle cx="4190.5" cy="3526.295" r="5.9055"  stroke-width="1" fill-opacity="0" /></g><polyline points="4368.6031 3394.2064 4371.7526 3394.2064" stroke-width="1"  stroke-linecap="round" fill="none" layerid="3" net="" id="gge30" locked="0" /><polyline points="4366.3966 3394.2046 4363.2471 3394.2046" stroke-width="1"  stroke-linecap="round" fill="none" layerid="3" net="" id="gge33" locked="0" /><polyline points="4368.6031 3399.7957 4371.7526 3399.7957" stroke-width="1"  stroke-linecap="round" fill="none" layerid="3" net="" id="gge36" locked="0" /><polyline points="4366.3966 3399.7938 4363.2471 3399.7938" stroke-width="1"  stroke-linecap="round" fill="none" layerid="3" net="" id="gge39" locked="0" /><polyline points="4372.9721 3395.4262 4372.9721 3398.576" stroke-width="1"  stroke-linecap="round" fill="none" layerid="3" net="" id="gge42" locked="0" /><polyline points="4362.0275 3398.5739 4362.0275 3395.4242" stroke-width="1"  stroke-linecap="round" fill="none" layerid="3" net="" id="gge45" locked="0" /><polyline points="4361.8969 3353.2936 4358.7474 3353.2936" stroke-width="1"  stroke-linecap="round" fill="none" layerid="3" net="" id="gge126" locked="0" /><polyline points="4364.1034 3353.2954 4367.2529 3353.2954" stroke-width="1"  stroke-linecap="round" fill="none" layerid="3" net="" id="gge129" locked="0" /><polyline points="4361.8969 3347.7043 4358.7474 3347.7043" stroke-width="1"  stroke-linecap="round" fill="none" layerid="3" net="" id="gge132" locked="0" /><polyline points="4364.1034 3347.7062 4367.2529 3347.7062" stroke-width="1"  stroke-linecap="round" fill="none" layerid="3" net="" id="gge135" locked="0" /><polyline points="4357.5279 3352.0738 4357.5279 3348.924" stroke-width="1"  stroke-linecap="round" fill="none" layerid="3" net="" id="gge138" locked="0" /><polyline points="4368.4725 3348.9261 4368.4725 3352.0758" stroke-width="1"  stroke-linecap="round" fill="none" layerid="3" net="" id="gge141" locked="0" /><polyline points="4341.6614 3371.8307 4324.3386 3371.8307" stroke-width="1"  stroke-linecap="round" fill="none" layerid="3" net="" id="gge306" locked="0" /><polyline points="4341.6614 3363.1693 4324.3386 3363.1693" stroke-width="1"  stroke-linecap="round" fill="none" layerid="3" net="" id="gge309" locked="0" /><polyline points="4341.6614 3371.8307 4341.6614 3363.1693" stroke-width="1"  stroke-linecap="round" fill="none" layerid="3" net="" id="gge312" locked="0" /><polyline points="4324.3386 3371.8307 4324.3386 3363.1693" stroke-width="1"  stroke-linecap="round" fill="none" layerid="3" net="" id="gge315" locked="0" /><polyline points="4337.963 3371.8307 4337.963 3363.1693" stroke-width="1"  stroke-linecap="round" fill="none" layerid="3" net="" id="gge318" locked="0" /><polyline points="4340.6614 3424.3307 4323.3386 3424.3307" stroke-width="1"  stroke-linecap="round" fill="none" layerid="3" net="" id="gge402" locked="0" /><polyline points="4340.6614 3415.6693 4323.3386 3415.6693" stroke-width="1"  stroke-linecap="round" fill="none" layerid="3" net="" id="gge405" locked="0" /><polyline points="4340.6614 3424.3307 4340.6614 3415.6693" stroke-width="1"  stroke-linecap="round" fill="none" layerid="3" net="" id="gge408" locked="0" /><polyline points="4323.3386 3424.3307 4323.3386 3415.6693" stroke-width="1"  stroke-linecap="round" fill="none" layerid="3" net="" id="gge411" locked="0" /><polyline points="4336.963 3424.3307 4336.963 3415.6693" stroke-width="1"  stroke-linecap="round" fill="none" layerid="3" net="" id="gge414" locked="0" /><polyline points="4362.678 3379.1008 4366.4531 3379.1008 4366.4531 3373.8992 4362.678 3373.8992" stroke-width="0.6"  stroke-linecap="round" fill="none" layerid="3" net="" id="gge933" locked="0" /><polyline points="4359.322 3379.1008 4355.5469 3379.1008 4355.5469 3373.8992 4359.322 3373.8992" stroke-width="0.6"  stroke-linecap="round" fill="none" layerid="3" net="" id="gge936" locked="0" /><polyline points="4480.178 3290.1008 4483.9531 3290.1008 4483.9531 3284.8992 4480.178 3284.8992" stroke-width="0.6"  stroke-linecap="round" fill="none" layerid="3" net="" id="gge1005" locked="0" /><polyline points="4476.822 3290.1008 4473.0469 3290.1008 4473.0469 3284.8992 4476.822 3284.8992" stroke-width="0.6"  stroke-linecap="round" fill="none" layerid="3" net="" id="gge1008" locked="0" /><polyline points="4200.5 3288.5002 4200.5 3488.4998" stroke-width="3.937"  stroke-linecap="round" fill="none" layerid="3" net="" id="gge1203" locked="0" /><polyline points="4180.5 3288.5002 4180.5 3488.4998" stroke-width="3.937"  stroke-linecap="round" fill="none" layerid="3" net="" id="gge1206" locked="0" /><polyline points="4130.5001 3488.4998 4160.5001 3488.4998" stroke-width="3.937"  stroke-linecap="round" fill="none" layerid="3" net="" id="gge1209" locked="0" /><polyline points="4098.8613 3428.4999 4130.5001 3428.4999 4130.5001 3488.4998" stroke-width="3.937"  stroke-linecap="round" fill="none" layerid="3" net="" id="gge1212" locked="0" /><polyline points="4098.8613 3348.5001 4130.5001 3348.5001 4130.5001 3288.5002 4160.5001 3288.5002" stroke-width="3.937"  stroke-linecap="round" fill="none" layerid="3" net="" id="gge1215" locked="0" /><polyline points="4220.4999 3448.4999 4250.4999 3448.4999 4250.4999 3428.4999 4282.1387 3428.4999" stroke-width="1"  stroke-linecap="round" fill="none" layerid="3" net="" id="gge1218" locked="0" /><polyline points="4220.4999 3328.5001 4250.4999 3328.5001 4250.4999 3348.5001 4282.1387 3348.5001" stroke-width="1"  stroke-linecap="round" fill="none" layerid="3" net="" id="gge1221" locked="0" /><polyline points="4282.1095 3388.5 4220.4999 3388.5" stroke-width="1"  stroke-linecap="round" fill="none" layerid="3" net="" id="gge1224" locked="0" /><polyline points="4112 3270.5 4269.48 3270.5 4269.48 3506.72 4112 3506.72 4112 3270.5" stroke-width="1.9685"  stroke-linecap="round" fill="none" layerid="3" net="" id="gge1227" locked="0" /><polyline points="4388.0941 3323.7716 4553.4481 3323.7716 4553.4481 3420.2286 4388.0941 3420.2286 4388.0941 3323.7716" stroke-width="1"  stroke-linecap="round" fill="none" layerid="3" net="" id="gge1431" locked="0" /><polyline points="4418.8031 3402.5116 4442.4251 3402.5116 4442.4251 3412.3546 4418.8031 3412.3546 4418.8031 3402.5116" stroke-width="1"  stroke-linecap="round" fill="none" layerid="3" net="" id="gge1434" locked="0" /><polyline points="4428.6461 3345.4256 4466.0481 3345.4256 4466.0481 3382.8276 4428.6461 3382.8276 4428.6461 3345.4256" stroke-width="1"  stroke-linecap="round" fill="none" layerid="3" net="" id="gge1437" locked="0" /><polyline points="4487.7011 3367.0786 4515.2601 3367.0786 4515.2601 3402.5116 4487.7011 3402.5116 4487.7011 3367.0786" stroke-width="1"  stroke-linecap="round" fill="none" layerid="3" net="" id="gge1440" locked="0" /><polyline points="4491.6381 3349.3626 4492.0321 3349.3626 4492.0321 3367.0796 4491.6381 3367.0796 4491.6381 3349.3626" stroke-width="1"  stroke-linecap="round" fill="none" layerid="3" net="" id="gge1443" locked="0" /><polyline points="4495.5751 3349.3626 4495.9691 3349.3626 4495.9691 3367.0796 4495.5751 3367.0796 4495.5751 3349.3626" stroke-width="1"  stroke-linecap="round" fill="none" layerid="3" net="" id="gge1446" locked="0" /><polyline points="4499.1181 3349.3626 4499.5121 3349.3626 4499.5121 3367.0796 4499.1181 3367.0796 4499.1181 3349.3626" stroke-width="1"  stroke-linecap="round" fill="none" layerid="3" net="" id="gge1449" locked="0" /><polyline points="4502.6611 3349.3626 4503.0551 3349.3626 4503.0551 3367.0796 4502.6611 3367.0796 4502.6611 3349.3626" stroke-width="1"  stroke-linecap="round" fill="none" layerid="3" net="" id="gge1452" locked="0" /><polyline points="4506.5981 3349.3626 4506.9921 3349.3626 4506.9921 3367.0796 4506.5981 3367.0796 4506.5981 3349.3626" stroke-width="1"  stroke-linecap="round" fill="none" layerid="3" net="" id="gge1455" locked="0" /><polyline points="4510.5351 3349.3626 4510.9291 3349.3626 4510.9291 3367.0796 4510.5351 3367.0796 4510.5351 3349.3626" stroke-width="1"  stroke-linecap="round" fill="none" layerid="3" net="" id="gge1458" locked="0" /><polyline points="4604.64 3345.48 4604.64 3338.7914 4572.752 3338.7914 4572.752 3345.8807" stroke-width="1"  stroke-linecap="round" fill="none" layerid="3" net="" id="gge1584" locked="0" /><polyline points="4604.64 3349.03 4604.64 3345.48 4598.34 3339.19 4578.66 3339.19 4572.75 3345.09 4572.75 3400.21 4604.64 3400.21 4604.64 3348.63" stroke-width="1"  stroke-linecap="round" fill="none" layerid="3" net="" id="gge1587" locked="0" /><polyline points="4032 3420.9 4032 3357.1" stroke-width="1"  stroke-linecap="round" fill="none" layerid="3" net="" id="gge2416" locked="0" /><polyline points="4032 3357.1 4057.6 3357.1" stroke-width="1"  stroke-linecap="round" fill="none" layerid="3" net="" id="gge2419" locked="0" /><polyline points="4057.6 3357.1 4061.5 3357.1" stroke-width="1"  stroke-linecap="round" fill="none" layerid="3" net="" id="gge2422" locked="0" /><polyline points="4061.5 3357.1 4061.5 3420.9" stroke-width="1"  stroke-linecap="round" fill="none" layerid="3" net="" id="gge2425" locked="0" /><polyline points="4061.5 3420.9 4057.6 3420.9" stroke-width="1"  stroke-linecap="round" fill="none" layerid="3" net="" id="gge2428" locked="0" /><polyline points="4057.6 3420.9 4032 3420.9" stroke-width="1"  stroke-linecap="round" fill="none" layerid="3" net="" id="gge2431" locked="0" /><polyline points="4057.6 3357.1 4057.6 3420.9" stroke-width="1"  stroke-linecap="round" fill="none" layerid="3" net="" id="gge2434" locked="0" /><g c_partid="part_pcbtext" c_etype="" c_origin="4367.5,3408" c_rotation="180" c_mirror="0" id="gge9" locked="0" layerid="3" c_shapetype="group" display="none"><path c_fontsize="4.5" c_fontfamily="" c_text="1000u" d="M 4367.5 3411.72 L 4367.09 3411.93 L 4366.48 3412.54 L 4366.48 3408.25 M 4363.9 3412.54 L 4364.51 3412.34 L 4364.92 3411.72 L 4365.13 3410.7 L 4365.13 3410.09 L 4364.92 3409.06 L 4364.51 3408.45 L 4363.9 3408.25 L 4363.49 3408.25 L 4362.88 3408.45 L 4362.47 3409.06 L 4362.26 3410.09 L 4362.26 3410.7 L 4362.47 3411.72 L 4362.88 3412.34 L 4363.49 3412.54 L 4363.9 3412.54 M 4359.69 3412.54 L 4360.3 3412.34 L 4360.71 3411.72 L 4360.91 3410.7 L 4360.91 3410.09 L 4360.71 3409.06 L 4360.3 3408.45 L 4359.69 3408.25 L 4359.28 3408.25 L 4358.66 3408.45 L 4358.25 3409.06 L 4358.05 3410.09 L 4358.05 3410.7 L 4358.25 3411.72 L 4358.66 3412.34 L 4359.28 3412.54 L 4359.69 3412.54 M 4355.47 3412.54 L 4356.09 3412.34 L 4356.5 3411.72 L 4356.7 3410.7 L 4356.7 3410.09 L 4356.5 3409.06 L 4356.09 3408.45 L 4355.47 3408.25 L 4355.06 3408.25 L 4354.45 3408.45 L 4354.04 3409.06 L 4353.84 3410.09 L 4353.84 3410.7 L 4354.04 3411.72 L 4354.45 3412.34 L 4355.06 3412.54 L 4355.47 3412.54 M 4352.49 3411.11 L 4352.49 3409.06 L 4352.28 3408.45 L 4351.87 3408.25 L 4351.26 3408.25 L 4350.85 3408.45 L 4350.24 3409.06 M 4350.24 3411.11 L 4350.24 3408.25" fill="none"  stroke-width="0.6" c_note="note_name" /></g><g c_partid="part_pcbtext" c_etype="" c_origin="4367.5,3401" c_rotation="180" c_mirror="0" id="gge15" locked="0" layerid="3" c_shapetype="group" ><path c_fontsize="4.5" c_fontfamily="" c_text="C1" d="M 4364.43 3404.52 L 4364.64 3404.93 L 4365.05 3405.34 L 4365.45 3405.54 L 4366.27 3405.54 L 4366.68 3405.34 L 4367.09 3404.93 L 4367.3 3404.52 L 4367.5 3403.9 L 4367.5 3402.88 L 4367.3 3402.27 L 4367.09 3401.86 L 4366.68 3401.45 L 4366.27 3401.25 L 4365.45 3401.25 L 4365.05 3401.45 L 4364.64 3401.86 L 4364.43 3402.27 M 4363.08 3404.72 L 4362.67 3404.93 L 4362.06 3405.54 L 4362.06 3401.25" fill="none"  stroke-width="0.6" c_note="note_pre" /></g><g c_partid="part_pcbtext" c_etype="" c_origin="4363,3339.5" c_rotation="0" c_mirror="0" id="gge105" locked="0" layerid="3" c_shapetype="group" display="none"><path c_fontsize="4.5" c_fontfamily="" c_text="318u" d="M 4363.41 3334.96 L 4365.66 3334.96 L 4364.43 3336.6 L 4365.05 3336.6 L 4365.45 3336.8 L 4365.66 3337 L 4365.86 3337.62 L 4365.86 3338.03 L 4365.66 3338.64 L 4365.25 3339.05 L 4364.64 3339.25 L 4364.02 3339.25 L 4363.41 3339.05 L 4363.2 3338.85 L 4363 3338.44 M 4367.21 3335.78 L 4367.62 3335.57 L 4368.24 3334.96 L 4368.24 3339.25 M 4370.61 3334.96 L 4370 3335.16 L 4369.79 3335.57 L 4369.79 3335.98 L 4370 3336.39 L 4370.4 3336.6 L 4371.22 3336.8 L 4371.84 3337 L 4372.25 3337.41 L 4372.45 3337.82 L 4372.45 3338.44 L 4372.25 3338.85 L 4372.04 3339.05 L 4371.43 3339.25 L 4370.61 3339.25 L 4370 3339.05 L 4369.79 3338.85 L 4369.59 3338.44 L 4369.59 3337.82 L 4369.79 3337.41 L 4370.2 3337 L 4370.81 3336.8 L 4371.63 3336.6 L 4372.04 3336.39 L 4372.25 3335.98 L 4372.25 3335.57 L 4372.04 3335.16 L 4371.43 3334.96 L 4370.61 3334.96 M 4373.8 3336.39 L 4373.8 3338.44 L 4374 3339.05 L 4374.41 3339.25 L 4375.03 3339.25 L 4375.44 3339.05 L 4376.05 3338.44 M 4376.05 3336.39 L 4376.05 3339.25" fill="none"  stroke-width="0.6" c_note="note_name" /></g><g c_partid="part_pcbtext" c_etype="" c_origin="4363,3346.5" c_rotation="0" c_mirror="0" id="gge111" locked="0" layerid="3" c_shapetype="group" ><path c_fontsize="4.5" c_fontfamily="" c_text="C2" d="M 4366.07 3342.98 L 4365.86 3342.57 L 4365.45 3342.16 L 4365.05 3341.96 L 4364.23 3341.96 L 4363.82 3342.16 L 4363.41 3342.57 L 4363.2 3342.98 L 4363 3343.6 L 4363 3344.62 L 4363.2 3345.23 L 4363.41 3345.64 L 4363.82 3346.05 L 4364.23 3346.25 L 4365.05 3346.25 L 4365.45 3346.05 L 4365.86 3345.64 L 4366.07 3345.23 M 4367.62 3342.98 L 4367.62 3342.78 L 4367.83 3342.37 L 4368.03 3342.16 L 4368.44 3341.96 L 4369.26 3341.96 L 4369.67 3342.16 L 4369.87 3342.37 L 4370.08 3342.78 L 4370.08 3343.19 L 4369.87 3343.6 L 4369.46 3344.21 L 4367.42 3346.25 L 4370.28 3346.25" fill="none"  stroke-width="0.6" c_note="note_pre" /></g><g c_partid="part_pcbtext" c_etype="" c_origin="4334,3380.5" c_rotation="180" c_mirror="0" id="gge276" locked="0" layerid="3" c_shapetype="group" display="none"><path c_fontsize="4.5" c_fontfamily="" c_text="1N4148" d="M 4334 3384.22 L 4333.59 3384.43 L 4332.98 3385.04 L 4332.98 3380.75 M 4331.63 3385.04 L 4331.63 3380.75 M 4331.63 3385.04 L 4328.76 3380.75 M 4328.76 3385.04 L 4328.76 3380.75 M 4325.37 3385.04 L 4327.41 3382.18 L 4324.35 3382.18 M 4325.37 3385.04 L 4325.37 3380.75 M 4323 3384.22 L 4322.59 3384.43 L 4321.97 3385.04 L 4321.97 3380.75 M 4318.58 3385.04 L 4320.62 3382.18 L 4317.55 3382.18 M 4318.58 3385.04 L 4318.58 3380.75 M 4315.18 3385.04 L 4315.8 3384.84 L 4316 3384.43 L 4316 3384.02 L 4315.8 3383.61 L 4315.39 3383.4 L 4314.57 3383.2 L 4313.95 3383 L 4313.55 3382.59 L 4313.34 3382.18 L 4313.34 3381.56 L 4313.55 3381.15 L 4313.75 3380.95 L 4314.36 3380.75 L 4315.18 3380.75 L 4315.8 3380.95 L 4316 3381.15 L 4316.2 3381.56 L 4316.2 3382.18 L 4316 3382.59 L 4315.59 3383 L 4314.98 3383.2 L 4314.16 3383.4 L 4313.75 3383.61 L 4313.55 3384.02 L 4313.55 3384.43 L 4313.75 3384.84 L 4314.36 3385.04 L 4315.18 3385.04" fill="none"  stroke-width="0.6" c_note="note_name" /></g><g c_partid="part_pcbtext" c_etype="" c_origin="4334,3373.5" c_rotation="180" c_mirror="0" id="gge282" locked="0" layerid="3" c_shapetype="group" ><path c_fontsize="4.5" c_fontfamily="" c_text="D1" d="M 4334 3378.04 L 4334 3373.75 M 4334 3378.04 L 4332.57 3378.04 L 4331.95 3377.84 L 4331.55 3377.43 L 4331.34 3377.02 L 4331.14 3376.4 L 4331.14 3375.38 L 4331.34 3374.77 L 4331.55 3374.36 L 4331.95 3373.95 L 4332.57 3373.75 L 4334 3373.75 M 4329.79 3377.22 L 4329.38 3377.43 L 4328.76 3378.04 L 4328.76 3373.75" fill="none"  stroke-width="0.6" c_note="note_pre" /></g><g c_partid="part_pcbtext" c_etype="" c_origin="4333,3433" c_rotation="180" c_mirror="0" id="gge372" locked="0" layerid="3" c_shapetype="group" display="none"><path c_fontsize="4.5" c_fontfamily="" c_text="1N4148" d="M 4333 3436.72 L 4332.59 3436.93 L 4331.98 3437.54 L 4331.98 3433.25 M 4330.63 3437.54 L 4330.63 3433.25 M 4330.63 3437.54 L 4327.76 3433.25 M 4327.76 3437.54 L 4327.76 3433.25 M 4324.37 3437.54 L 4326.41 3434.68 L 4323.35 3434.68 M 4324.37 3437.54 L 4324.37 3433.25 M 4322 3436.72 L 4321.59 3436.93 L 4320.97 3437.54 L 4320.97 3433.25 M 4317.58 3437.54 L 4319.62 3434.68 L 4316.55 3434.68 M 4317.58 3437.54 L 4317.58 3433.25 M 4314.18 3437.54 L 4314.8 3437.34 L 4315 3436.93 L 4315 3436.52 L 4314.8 3436.11 L 4314.39 3435.9 L 4313.57 3435.7 L 4312.95 3435.5 L 4312.55 3435.09 L 4312.34 3434.68 L 4312.34 3434.06 L 4312.55 3433.65 L 4312.75 3433.45 L 4313.36 3433.25 L 4314.18 3433.25 L 4314.8 3433.45 L 4315 3433.65 L 4315.2 3434.06 L 4315.2 3434.68 L 4315 3435.09 L 4314.59 3435.5 L 4313.98 3435.7 L 4313.16 3435.9 L 4312.75 3436.11 L 4312.55 3436.52 L 4312.55 3436.93 L 4312.75 3437.34 L 4313.36 3437.54 L 4314.18 3437.54" fill="none"  stroke-width="0.6" c_note="note_name" /></g><g c_partid="part_pcbtext" c_etype="" c_origin="4333,3426" c_rotation="180" c_mirror="0" id="gge378" locked="0" layerid="3" c_shapetype="group" ><path c_fontsize="4.5" c_fontfamily="" c_text="D2" d="M 4333 3430.54 L 4333 3426.25 M 4333 3430.54 L 4331.57 3430.54 L 4330.95 3430.34 L 4330.55 3429.93 L 4330.34 3429.52 L 4330.14 3428.9 L 4330.14 3427.88 L 4330.34 3427.27 L 4330.55 3426.86 L 4330.95 3426.45 L 4331.57 3426.25 L 4333 3426.25 M 4328.58 3429.52 L 4328.58 3429.72 L 4328.38 3430.13 L 4328.17 3430.34 L 4327.76 3430.54 L 4326.95 3430.54 L 4326.54 3430.34 L 4326.33 3430.13 L 4326.13 3429.72 L 4326.13 3429.31 L 4326.33 3428.9 L 4326.74 3428.29 L 4328.79 3426.25 L 4325.92 3426.25" fill="none"  stroke-width="0.6" c_note="note_pre" /></g><g c_partid="part_pcbtext" c_etype="" c_origin="4361,3365.5" c_rotation="0" c_mirror="0" id="gge903" locked="0" layerid="3" c_shapetype="group" display="none"><path c_fontsize="4.5" c_fontfamily="" c_text="100" d="M 4361 3361.78 L 4361.41 3361.57 L 4362.02 3360.96 L 4362.02 3365.25 M 4364.6 3360.96 L 4363.99 3361.16 L 4363.58 3361.78 L 4363.37 3362.8 L 4363.37 3363.41 L 4363.58 3364.44 L 4363.99 3365.05 L 4364.6 3365.25 L 4365.01 3365.25 L 4365.62 3365.05 L 4366.03 3364.44 L 4366.24 3363.41 L 4366.24 3362.8 L 4366.03 3361.78 L 4365.62 3361.16 L 4365.01 3360.96 L 4364.6 3360.96 M 4368.81 3360.96 L 4368.2 3361.16 L 4367.79 3361.78 L 4367.59 3362.8 L 4367.59 3363.41 L 4367.79 3364.44 L 4368.2 3365.05 L 4368.81 3365.25 L 4369.22 3365.25 L 4369.84 3365.05 L 4370.25 3364.44 L 4370.45 3363.41 L 4370.45 3362.8 L 4370.25 3361.78 L 4369.84 3361.16 L 4369.22 3360.96 L 4368.81 3360.96" fill="none"  stroke-width="0.6" c_note="note_name" /></g><g c_partid="part_pcbtext" c_etype="" c_origin="4361,3372.5" c_rotation="0" c_mirror="0" id="gge909" locked="0" layerid="3" c_shapetype="group" ><path c_fontsize="4.5" c_fontfamily="" c_text="R1" d="M 4361 3367.96 L 4361 3372.25 M 4361 3367.96 L 4362.84 3367.96 L 4363.45 3368.16 L 4363.66 3368.37 L 4363.86 3368.78 L 4363.86 3369.19 L 4363.66 3369.6 L 4363.45 3369.8 L 4362.84 3370 L 4361 3370 M 4362.43 3370 L 4363.86 3372.25 M 4365.21 3368.78 L 4365.62 3368.57 L 4366.24 3367.96 L 4366.24 3372.25" fill="none"  stroke-width="0.6" c_note="note_pre" /></g><g c_partid="part_pcbtext" c_etype="" c_origin="4478.5,3276.5" c_rotation="0" c_mirror="0" id="gge975" locked="0" layerid="3" c_shapetype="group" display="none"><path c_fontsize="4.5" c_fontfamily="" c_text="1k" d="M 4478.5 3272.78 L 4478.91 3272.57 L 4479.52 3271.96 L 4479.52 3276.25 M 4480.87 3271.96 L 4480.87 3276.25 M 4482.92 3273.39 L 4480.87 3275.44 M 4481.69 3274.62 L 4483.12 3276.25" fill="none"  stroke-width="0.6" c_note="note_name" /></g><g c_partid="part_pcbtext" c_etype="" c_origin="4478.5,3283.5" c_rotation="0" c_mirror="0" id="gge981" locked="0" layerid="3" c_shapetype="group" ><path c_fontsize="4.5" c_fontfamily="" c_text="R2" d="M 4478.5 3278.96 L 4478.5 3283.25 M 4478.5 3278.96 L 4480.34 3278.96 L 4480.95 3279.16 L 4481.16 3279.37 L 4481.36 3279.78 L 4481.36 3280.19 L 4481.16 3280.6 L 4480.95 3280.8 L 4480.34 3281 L 4478.5 3281 M 4479.93 3281 L 4481.36 3283.25 M 4482.92 3279.98 L 4482.92 3279.78 L 4483.12 3279.37 L 4483.33 3279.16 L 4483.74 3278.96 L 4484.55 3278.96 L 4484.96 3279.16 L 4485.17 3279.37 L 4485.37 3279.78 L 4485.37 3280.19 L 4485.17 3280.6 L 4484.76 3281.21 L 4482.71 3283.25 L 4485.58 3283.25" fill="none"  stroke-width="0.6" c_note="note_pre" /></g><g c_partid="part_pcbtext" c_etype="" c_origin="4189.5,3235.5" c_rotation="0" c_mirror="0" id="gge1191" locked="0" layerid="3" c_shapetype="group" display="none"><path c_fontsize="4.5" c_fontfamily="" c_text="Step_Down_Transformer" d="M 4192.36 3231.57 L 4191.95 3231.16 L 4191.34 3230.96 L 4190.52 3230.96 L 4189.91 3231.16 L 4189.5 3231.57 L 4189.5 3231.98 L 4189.7 3232.39 L 4189.91 3232.6 L 4190.32 3232.8 L 4191.55 3233.21 L 4191.95 3233.41 L 4192.16 3233.62 L 4192.36 3234.03 L 4192.36 3234.64 L 4191.95 3235.05 L 4191.34 3235.25 L 4190.52 3235.25 L 4189.91 3235.05 L 4189.5 3234.64 M 4194.33 3230.96 L 4194.33 3234.44 L 4194.53 3235.05 L 4194.94 3235.25 L 4195.35 3235.25 M 4193.71 3232.39 L 4195.15 3232.39 M 4196.7 3233.62 L 4199.15 3233.62 L 4199.15 3233.21 L 4198.95 3232.8 L 4198.75 3232.6 L 4198.34 3232.39 L 4197.72 3232.39 L 4197.31 3232.6 L 4196.9 3233 L 4196.7 3233.62 L 4196.7 3234.03 L 4196.9 3234.64 L 4197.31 3235.05 L 4197.72 3235.25 L 4198.34 3235.25 L 4198.75 3235.05 L 4199.15 3234.64 M 4200.5 3232.39 L 4200.5 3236.69 M 4200.5 3233 L 4200.91 3232.6 L 4201.32 3232.39 L 4201.94 3232.39 L 4202.35 3232.6 L 4202.75 3233 L 4202.96 3233.62 L 4202.96 3234.03 L 4202.75 3234.64 L 4202.35 3235.05 L 4201.94 3235.25 L 4201.32 3235.25 L 4200.91 3235.05 L 4200.5 3234.64 M 4204.31 3236.69 L 4207.99 3236.69 M 4209.34 3230.96 L 4209.34 3235.25 M 4209.34 3230.96 L 4210.77 3230.96 L 4211.39 3231.16 L 4211.8 3231.57 L 4212 3231.98 L 4212.2 3232.6 L 4212.2 3233.62 L 4212 3234.23 L 4211.8 3234.64 L 4211.39 3235.05 L 4210.77 3235.25 L 4209.34 3235.25 M 4214.58 3232.39 L 4214.17 3232.6 L 4213.76 3233 L 4213.55 3233.62 L 4213.55 3234.03 L 4213.76 3234.64 L 4214.17 3235.05 L 4214.58 3235.25 L 4215.19 3235.25 L 4215.6 3235.05 L 4216.01 3234.64 L 4216.21 3234.03 L 4216.21 3233.62 L 4216.01 3233 L 4215.6 3232.6 L 4215.19 3232.39 L 4214.58 3232.39 M 4217.56 3232.39 L 4218.38 3235.25 M 4219.2 3232.39 L 4218.38 3235.25 M 4219.2 3232.39 L 4220.02 3235.25 M 4220.84 3232.39 L 4220.02 3235.25 M 4222.19 3232.39 L 4222.19 3235.25 M 4222.19 3233.21 L 4222.8 3232.6 L 4223.21 3232.39 L 4223.82 3232.39 L 4224.23 3232.6 L 4224.44 3233.21 L 4224.44 3235.25 M 4225.79 3236.69 L 4229.47 3236.69 M 4232.25 3230.96 L 4232.25 3235.25 M 4230.82 3230.96 L 4233.68 3230.96 M 4235.03 3232.39 L 4235.03 3235.25 M 4235.03 3233.62 L 4235.24 3233 L 4235.65 3232.6 L 4236.05 3232.39 L 4236.67 3232.39 M 4240.47 3232.39 L 4240.47 3235.25 M 4240.47 3233 L 4240.06 3232.6 L 4239.65 3232.39 L 4239.04 3232.39 L 4238.63 3232.6 L 4238.22 3233 L 4238.02 3233.62 L 4238.02 3234.03 L 4238.22 3234.64 L 4238.63 3235.05 L 4239.04 3235.25 L 4239.65 3235.25 L 4240.06 3235.05 L 4240.47 3234.64 M 4241.82 3232.39 L 4241.82 3235.25 M 4241.82 3233.21 L 4242.44 3232.6 L 4242.85 3232.39 L 4243.46 3232.39 L 4243.87 3232.6 L 4244.07 3233.21 L 4244.07 3235.25 M 4247.67 3233 L 4247.47 3232.6 L 4246.85 3232.39 L 4246.24 3232.39 L 4245.63 3232.6 L 4245.42 3233 L 4245.63 3233.41 L 4246.04 3233.62 L 4247.06 3233.82 L 4247.47 3234.03 L 4247.67 3234.44 L 4247.67 3234.64 L 4247.47 3235.05 L 4246.85 3235.25 L 4246.24 3235.25 L 4245.63 3235.05 L 4245.42 3234.64 M 4250.66 3230.96 L 4250.25 3230.96 L 4249.84 3231.16 L 4249.64 3231.78 L 4249.64 3235.25 M 4249.02 3232.39 L 4250.45 3232.39 M 4253.03 3232.39 L 4252.62 3232.6 L 4252.21 3233 L 4252.01 3233.62 L 4252.01 3234.03 L 4252.21 3234.64 L 4252.62 3235.05 L 4253.03 3235.25 L 4253.65 3235.25 L 4254.05 3235.05 L 4254.46 3234.64 L 4254.67 3234.03 L 4254.67 3233.62 L 4254.46 3233 L 4254.05 3232.6 L 4253.65 3232.39 L 4253.03 3232.39 M 4256.02 3232.39 L 4256.02 3235.25 M 4256.02 3233.62 L 4256.22 3233 L 4256.63 3232.6 L 4257.04 3232.39 L 4257.65 3232.39 M 4259 3232.39 L 4259 3235.25 M 4259 3233.21 L 4259.62 3232.6 L 4260.03 3232.39 L 4260.64 3232.39 L 4261.05 3232.6 L 4261.25 3233.21 L 4261.25 3235.25 M 4261.25 3233.21 L 4261.87 3232.6 L 4262.28 3232.39 L 4262.89 3232.39 L 4263.3 3232.6 L 4263.5 3233.21 L 4263.5 3235.25 M 4264.85 3233.62 L 4267.31 3233.62 L 4267.31 3233.21 L 4267.1 3232.8 L 4266.9 3232.6 L 4266.49 3232.39 L 4265.88 3232.39 L 4265.47 3232.6 L 4265.06 3233 L 4264.85 3233.62 L 4264.85 3234.03 L 4265.06 3234.64 L 4265.47 3235.05 L 4265.88 3235.25 L 4266.49 3235.25 L 4266.9 3235.05 L 4267.31 3234.64 M 4268.66 3232.39 L 4268.66 3235.25 M 4268.66 3233.62 L 4268.86 3233 L 4269.27 3232.6 L 4269.68 3232.39 L 4270.3 3232.39" fill="none"  stroke-width="0.6" c_note="note_name" /></g><g c_partid="part_pcbtext" c_etype="" c_origin="4189.5,3242.5" c_rotation="0" c_mirror="0" id="gge1197" locked="0" layerid="3" c_shapetype="group" ><path c_fontsize="4.5" c_fontfamily="" c_text="U1" d="M 4189.5 3237.96 L 4189.5 3241.03 L 4189.7 3241.64 L 4190.11 3242.05 L 4190.73 3242.25 L 4191.14 3242.25 L 4191.75 3242.05 L 4192.16 3241.64 L 4192.36 3241.03 L 4192.36 3237.96 M 4193.71 3238.78 L 4194.12 3238.57 L 4194.74 3237.96 L 4194.74 3242.25" fill="none"  stroke-width="0.6" c_note="note_pre" /></g><g c_partid="part_pcbtext" c_etype="pinpart" c_origin="4140.5,3358.5" c_rotation="270" c_mirror="0" id="gge1302" locked="0" layerid="3" c_shapetype="group" ><path c_fontsize="11.811" c_fontfamily="" c_text="Primary" d="M 4152.4201 3358.5 L 4141.1401 3358.5 M 4152.4201 3358.5 L 4152.4201 3363.33 L 4151.8801 3364.94 L 4151.3401 3365.48 L 4150.2701 3366.02 L 4148.6601 3366.02 L 4147.5901 3365.48 L 4147.0501 3364.94 L 4146.5101 3363.33 L 4146.5101 3358.5 M 4148.6601 3369.56 L 4141.1401 3369.56 M 4145.4401 3369.56 L 4147.0501 3370.1 L 4148.1201 3371.17 L 4148.6601 3372.24 L 4148.6601 3373.85 M 4152.4201 3377.4 L 4151.8801 3377.93 L 4152.4201 3378.47 L 4152.9601 3377.93 L 4152.4201 3377.4 M 4148.6601 3377.93 L 4141.1401 3377.93 M 4148.6601 3382.01 L 4141.1401 3382.01 M 4146.5101 3382.01 L 4148.1201 3383.63 L 4148.6601 3384.7 L 4148.6601 3386.31 L 4148.1201 3387.38 L 4146.5101 3387.92 L 4141.1401 3387.92 M 4146.5101 3387.92 L 4148.1201 3389.53 L 4148.6601 3390.6 L 4148.6601 3392.22 L 4148.1201 3393.29 L 4146.5101 3393.83 L 4141.1401 3393.83 M 4148.6601 3403.81 L 4141.1401 3403.81 M 4147.0501 3403.81 L 4148.1201 3402.74 L 4148.6601 3401.66 L 4148.6601 3400.05 L 4148.1201 3398.98 L 4147.0501 3397.91 L 4145.4401 3397.37 L 4144.3701 3397.37 L 4142.7501 3397.91 L 4141.6801 3398.98 L 4141.1401 3400.05 L 4141.1401 3401.66 L 4141.6801 3402.74 L 4142.7501 3403.81 M 4148.6601 3407.35 L 4141.1401 3407.35 M 4145.4401 3407.35 L 4147.0501 3407.89 L 4148.1201 3408.97 L 4148.6601 3410.04 L 4148.6601 3411.65 M 4148.6601 3415.73 L 4141.1401 3418.95 M 4148.6601 3422.17 L 4141.1401 3418.95 L 4139.0001 3417.88 L 4137.9201 3416.8 L 4137.3901 3415.73 L 4137.3901 3415.19" fill="none"  stroke-width="0.8"  /></g><g c_partid="part_pcbtext" c_etype="pinpart" c_origin="4090.5,3338.5" c_rotation="0" c_mirror="0" id="gge1308" locked="0" layerid="3" c_shapetype="group" ><path c_fontsize="8" c_fontfamily="" c_text="IN1" d="M 4090.4999 3330.4301 L 4090.4999 3338.0601 M 4092.8999 3330.4301 L 4092.8999 3338.0601 M 4092.8999 3330.4301 L 4097.9899 3338.0601 M 4097.9899 3330.4301 L 4097.9899 3338.0601 M 4100.3899 3331.8801 L 4101.1199 3331.5201 L 4102.2099 3330.4301 L 4102.2099 3338.0601" fill="none"  stroke-width="0.8"  /></g><g c_partid="part_pcbtext" c_etype="pinpart" c_origin="4090.5,3448.5" c_rotation="0" c_mirror="0" id="gge1314" locked="0" layerid="3" c_shapetype="group" ><path c_fontsize="8" c_fontfamily="" c_text="IN2" d="M 4090.4999 3440.43 L 4090.4999 3448.06 M 4092.8999 3440.43 L 4092.8999 3448.06 M 4092.8999 3440.43 L 4097.9899 3448.06 M 4097.9899 3440.43 L 4097.9899 3448.06 M 4100.7499 3442.25 L 4100.7499 3441.88 L 4101.1199 3441.15 L 4101.4799 3440.79 L 4102.2099 3440.43 L 4103.6599 3440.43 L 4104.3899 3440.79 L 4104.7499 3441.15 L 4105.1199 3441.88 L 4105.1199 3442.61 L 4104.7499 3443.34 L 4104.0299 3444.43 L 4100.3899 3448.06 L 4105.4799 3448.06" fill="none"  stroke-width="0.8"  /></g><g c_partid="part_pcbtext" c_etype="pinpart" c_origin="4280.5,3338.5" c_rotation="0" c_mirror="0" id="gge1320" locked="0" layerid="3" c_shapetype="group" ><path c_fontsize="8" c_fontfamily="" c_text="T1" d="M 4283.0501 3330.43 L 4283.0501 3338.06 M 4280.5001 3330.43 L 4285.5901 3330.43 M 4287.9901 3331.88 L 4288.7201 3331.52 L 4289.8101 3330.43 L 4289.8101 3338.06" fill="none"  stroke-width="0.8"  /></g><g c_partid="part_pcbtext" c_etype="pinpart" c_origin="4280.5,3378.5" c_rotation="0" c_mirror="0" id="gge1326" locked="0" layerid="3" c_shapetype="group" ><path c_fontsize="8" c_fontfamily="" c_text="T2" d="M 4283.0502 3370.43 L 4283.0502 3378.06 M 4280.5002 3370.43 L 4285.5902 3370.43 M 4288.3502 3372.25 L 4288.3502 3371.88 L 4288.7202 3371.15 L 4289.0802 3370.79 L 4289.8102 3370.43 L 4291.2602 3370.43 L 4291.9902 3370.79 L 4292.3502 3371.15 L 4292.7202 3371.88 L 4292.7202 3372.61 L 4292.3502 3373.34 L 4291.6302 3374.43 L 4287.9902 3378.06 L 4293.0802 3378.06" fill="none"  stroke-width="0.8"  /></g><g c_partid="part_pcbtext" c_etype="pinpart" c_origin="4280.5,3418.5" c_rotation="0" c_mirror="0" id="gge1332" locked="0" layerid="3" c_shapetype="group" ><path c_fontsize="8" c_fontfamily="" c_text="T3" d="M 4283.0502 3410.4301 L 4283.0502 3418.0601 M 4280.5002 3410.4301 L 4285.5902 3410.4301 M 4288.7202 3410.4301 L 4292.7202 3410.4301 L 4290.5402 3413.3401 L 4291.6302 3413.3401 L 4292.3502 3413.7001 L 4292.7202 3414.0601 L 4293.0802 3415.1501 L 4293.0802 3415.8801 L 4292.7202 3416.9701 L 4291.9902 3417.7001 L 4290.9002 3418.0601 L 4289.8102 3418.0601 L 4288.7202 3417.7001 L 4288.3502 3417.3401 L 4287.9902 3416.6101" fill="none"  stroke-width="0.8"  /></g><g c_partid="part_pcbtext" c_etype="" c_origin="4470.307,3315.772" c_rotation="0" c_mirror="0" id="gge1419" locked="0" layerid="3" c_shapetype="group" display="none"><path c_fontsize="4.5" c_fontfamily="" c_text="BUCKCONVERTER" d="M 4470.3071 3311.2316 L 4470.3071 3315.5216 M 4470.3071 3311.2316 L 4472.1471 3311.2316 L 4472.7571 3311.4316 L 4472.9671 3311.6416 L 4473.1671 3312.0516 L 4473.1671 3312.4616 L 4472.9671 3312.8716 L 4472.7571 3313.0716 L 4472.1471 3313.2716 M 4470.3071 3313.2716 L 4472.1471 3313.2716 L 4472.7571 3313.4816 L 4472.9671 3313.6816 L 4473.1671 3314.0916 L 4473.1671 3314.7116 L 4472.9671 3315.1216 L 4472.7571 3315.3216 L 4472.1471 3315.5216 L 4470.3071 3315.5216 M 4474.5171 3311.2316 L 4474.5171 3314.3016 L 4474.7271 3314.9116 L 4475.1371 3315.3216 L 4475.7471 3315.5216 L 4476.1571 3315.5216 L 4476.7671 3315.3216 L 4477.1771 3314.9116 L 4477.3871 3314.3016 L 4477.3871 3311.2316 M 4481.8071 3312.2516 L 4481.5971 3311.8416 L 4481.1871 3311.4316 L 4480.7771 3311.2316 L 4479.9571 3311.2316 L 4479.5571 3311.4316 L 4479.1471 3311.8416 L 4478.9371 3312.2516 L 4478.7371 3312.8716 L 4478.7371 3313.8916 L 4478.9371 3314.5016 L 4479.1471 3314.9116 L 4479.5571 3315.3216 L 4479.9571 3315.5216 L 4480.7771 3315.5216 L 4481.1871 3315.3216 L 4481.5971 3314.9116 L 4481.8071 3314.5016 M 4483.1571 3311.2316 L 4483.1571 3315.5216 M 4486.0171 3311.2316 L 4483.1571 3314.0916 M 4484.1771 3313.0716 L 4486.0171 3315.5216 M 4490.4371 3312.2516 L 4490.2271 3311.8416 L 4489.8171 3311.4316 L 4489.4071 3311.2316 L 4488.5971 3311.2316 L 4488.1871 3311.4316 L 4487.7771 3311.8416 L 4487.5671 3312.2516 L 4487.3671 3312.8716 L 4487.3671 3313.8916 L 4487.5671 3314.5016 L 4487.7771 3314.9116 L 4488.1871 3315.3216 L 4488.5971 3315.5216 L 4489.4071 3315.5216 L 4489.8171 3315.3216 L 4490.2271 3314.9116 L 4490.4371 3314.5016 M 4493.0071 3311.2316 L 4492.6071 3311.4316 L 4492.1971 3311.8416 L 4491.9871 3312.2516 L 4491.7871 3312.8716 L 4491.7871 3313.8916 L 4491.9871 3314.5016 L 4492.1971 3314.9116 L 4492.6071 3315.3216 L 4493.0071 3315.5216 L 4493.8271 3315.5216 L 4494.2371 3315.3216 L 4494.6471 3314.9116 L 4494.8571 3314.5016 L 4495.0571 3313.8916 L 4495.0571 3312.8716 L 4494.8571 3312.2516 L 4494.6471 3311.8416 L 4494.2371 3311.4316 L 4493.8271 3311.2316 L 4493.0071 3311.2316 M 4496.4071 3311.2316 L 4496.4071 3315.5216 M 4496.4071 3311.2316 L 4499.2671 3315.5216 M 4499.2671 3311.2316 L 4499.2671 3315.5216 M 4500.6171 3311.2316 L 4502.2571 3315.5216 M 4503.8971 3311.2316 L 4502.2571 3315.5216 M 4505.2471 3311.2316 L 4505.2471 3315.5216 M 4505.2471 3311.2316 L 4507.9071 3311.2316 M 4505.2471 3313.2716 L 4506.8771 3313.2716 M 4505.2471 3315.5216 L 4507.9071 3315.5216 M 4509.2571 3311.2316 L 4509.2571 3315.5216 M 4509.2571 3311.2316 L 4511.0971 3311.2316 L 4511.7071 3311.4316 L 4511.9071 3311.6416 L 4512.1171 3312.0516 L 4512.1171 3312.4616 L 4511.9071 3312.8716 L 4511.7071 3313.0716 L 4511.0971 3313.2716 L 4509.2571 3313.2716 M 4510.6871 3313.2716 L 4512.1171 3315.5216 M 4514.8971 3311.2316 L 4514.8971 3315.5216 M 4513.4671 3311.2316 L 4516.3271 3311.2316 M 4517.6771 3311.2316 L 4517.6771 3315.5216 M 4517.6771 3311.2316 L 4520.3371 3311.2316 M 4517.6771 3313.2716 L 4519.3171 3313.2716 M 4517.6771 3315.5216 L 4520.3371 3315.5216 M 4521.6871 3311.2316 L 4521.6871 3315.5216 M 4521.6871 3311.2316 L 4523.5271 3311.2316 L 4524.1471 3311.4316 L 4524.3471 3311.6416 L 4524.5571 3312.0516 L 4524.5571 3312.4616 L 4524.3471 3312.8716 L 4524.1471 3313.0716 L 4523.5271 3313.2716 L 4521.6871 3313.2716 M 4523.1171 3313.2716 L 4524.5571 3315.5216" fill="none"  stroke-width="0.6" c_note="note_name" /></g><g c_partid="part_pcbtext" c_etype="" c_origin="4470.307,3322.772" c_rotation="0" c_mirror="0" id="gge1425" locked="0" layerid="3" c_shapetype="group" ><path c_fontsize="4.5" c_fontfamily="" c_text="U2" d="M 4470.3071 3318.2316 L 4470.3071 3321.3016 L 4470.5071 3321.9116 L 4470.9171 3322.3216 L 4471.5371 3322.5216 L 4471.9471 3322.5216 L 4472.5571 3322.3216 L 4472.9671 3321.9116 L 4473.1671 3321.3016 L 4473.1671 3318.2316 M 4474.7271 3319.2516 L 4474.7271 3319.0516 L 4474.9271 3318.6416 L 4475.1371 3318.4316 L 4475.5471 3318.2316 L 4476.3571 3318.2316 L 4476.7671 3318.4316 L 4476.9771 3318.6416 L 4477.1771 3319.0516 L 4477.1771 3319.4616 L 4476.9771 3319.8716 L 4476.5671 3320.4816 L 4474.5171 3322.5216 L 4477.3871 3322.5216" fill="none"  stroke-width="0.6" c_note="note_pre" /></g><g c_partid="part_pcbtext" c_etype="" c_origin="4397.15,3410.386" c_rotation="0" c_mirror="0" id="gge1527" locked="0" layerid="3" c_shapetype="group" ><path c_fontsize="8" c_fontfamily="NotoSansCJKjp-DemiLight" c_text="In-" d="M 4397.1271 3409.6771 L 4397.7871 3409.6771 L 4397.7871 3403.8171 L 4397.1271 3403.8171 Z  M 4399.3671 3409.6771 L 4400.0071 3409.6771 L 4400.0071 3406.5171 C 4400.4571 3406.0571 4400.7871 3405.8171 4401.2471 3405.8171 C 4401.8471 3405.8171 4402.0971 3406.1771 4402.0971 3407.0171 L 4402.0971 3409.6771 L 4402.7571 3409.6771 L 4402.7571 3406.9371 C 4402.7571 3405.8271 4402.3371 3405.2471 4401.4371 3405.2471 C 4400.8471 3405.2471 4400.3971 3405.5771 4399.9771 3405.9871 L 4399.9571 3405.9871 L 4399.8871 3405.3571 L 4399.3671 3405.3571 Z  M 4403.8071 3407.6971 L 4405.8371 3407.6971 L 4405.8371 3407.1871 L 4403.8071 3407.1871 Z "  stroke="none" stroke-width="0.8"  /></g><g c_partid="part_pcbtext" c_etype="" c_origin="4397.15,3339.52" c_rotation="0" c_mirror="0" id="gge1533" locked="0" layerid="3" c_shapetype="group" ><path c_fontsize="8" c_fontfamily="NotoSansCJKjp-DemiLight" c_text="In+" d="M 4397.1271 3338.7714 L 4397.7871 3338.7714 L 4397.7871 3332.9114 L 4397.1271 3332.9114 Z  M 4399.3671 3338.7714 L 4400.0071 3338.7714 L 4400.0071 3335.6114 C 4400.4571 3335.1514 4400.7871 3334.9114 4401.2471 3334.9114 C 4401.8471 3334.9114 4402.0971 3335.2714 4402.0971 3336.1114 L 4402.0971 3338.7714 L 4402.7571 3338.7714 L 4402.7571 3336.0314 C 4402.7571 3334.9214 4402.3371 3334.3414 4401.4371 3334.3414 C 4400.8471 3334.3414 4400.3971 3334.6714 4399.9771 3335.0814 L 4399.9571 3335.0814 L 4399.8871 3334.4514 L 4399.3671 3334.4514 Z  M 4405.3671 3337.8314 L 4405.9071 3337.8314 L 4405.9071 3336.0714 L 4407.5271 3336.0714 L 4407.5271 3335.5914 L 4405.9071 3335.5914 L 4405.9071 3333.8314 L 4405.3671 3333.8314 L 4405.3671 3335.5914 L 4403.7471 3335.5914 L 4403.7471 3336.0714 L 4405.3671 3336.0714 Z "  stroke="none" stroke-width="0.8"  /></g><g c_partid="part_pcbtext" c_etype="" c_origin="4528.194,3410.386" c_rotation="0" c_mirror="0" id="gge1539" locked="0" layerid="3" c_shapetype="group" ><path c_fontsize="8" c_fontfamily="NotoSansCJKjp-DemiLight" c_text="Out-" d="M 4530.2446 3409.777 C 4531.7046 3409.777 4532.7246 3408.597 4532.7246 3406.727 C 4532.7246 3404.857 4531.7046 3403.717 4530.2446 3403.717 C 4528.8046 3403.717 4527.7746 3404.857 4527.7746 3406.727 C 4527.7746 3408.597 4528.8046 3409.777 4530.2446 3409.777 Z  M 4530.2446 3409.197 C 4529.1646 3409.197 4528.4546 3408.227 4528.4546 3406.727 C 4528.4546 3405.227 4529.1646 3404.297 4530.2446 3404.297 C 4531.3346 3404.297 4532.0446 3405.227 4532.0446 3406.727 C 4532.0446 3408.227 4531.3346 3409.197 4530.2446 3409.197 Z  M 4535.2046 3409.777 C 4535.8046 3409.777 4536.2446 3409.457 4536.6446 3408.987 L 4536.6746 3408.987 L 4536.7246 3409.677 L 4537.2646 3409.677 L 4537.2646 3405.357 L 4536.6146 3405.357 L 4536.6146 3408.457 C 4536.1846 3408.977 4535.8546 3409.217 4535.4046 3409.217 C 4534.7946 3409.217 4534.5446 3408.857 4534.5446 3408.017 L 4534.5446 3405.357 L 4533.8946 3405.357 L 4533.8946 3408.097 C 4533.8946 3409.207 4534.3046 3409.777 4535.2046 3409.777 Z  M 4540.0846 3409.777 C 4540.3246 3409.777 4540.6146 3409.697 4540.8546 3409.617 L 4540.7246 3409.137 C 4540.5846 3409.187 4540.3846 3409.247 4540.2246 3409.247 C 4539.7046 3409.247 4539.5446 3408.927 4539.5446 3408.397 L 4539.5446 3405.897 L 4540.7346 3405.897 L 4540.7346 3405.357 L 4539.5446 3405.357 L 4539.5446 3404.137 L 4538.9946 3404.137 L 4538.9246 3405.357 L 4538.2446 3405.397 L 4538.2446 3405.897 L 4538.8946 3405.897 L 4538.8946 3408.377 C 4538.8946 3409.217 4539.1846 3409.777 4540.0846 3409.777 Z  M 4541.1146 3407.697 L 4543.1346 3407.697 L 4543.1346 3407.187 L 4541.1146 3407.187 Z "  stroke="none" stroke-width="0.8"  /></g><g c_partid="part_pcbtext" c_etype="" c_origin="4529.039,3339.52" c_rotation="0" c_mirror="0" id="gge1545" locked="0" layerid="3" c_shapetype="group" ><path c_fontsize="8" c_fontfamily="NotoSansCJKjp-DemiLight" c_text="Out+" d="M 4531.0896 3338.8714 C 4532.5496 3338.8714 4533.5696 3337.6914 4533.5696 3335.8214 C 4533.5696 3333.9514 4532.5496 3332.8114 4531.0896 3332.8114 C 4529.6496 3332.8114 4528.6196 3333.9514 4528.6196 3335.8214 C 4528.6196 3337.6914 4529.6496 3338.8714 4531.0896 3338.8714 Z  M 4531.0896 3338.2914 C 4530.0096 3338.2914 4529.2996 3337.3214 4529.2996 3335.8214 C 4529.2996 3334.3214 4530.0096 3333.3914 4531.0896 3333.3914 C 4532.1796 3333.3914 4532.8896 3334.3214 4532.8896 3335.8214 C 4532.8896 3337.3214 4532.1796 3338.2914 4531.0896 3338.2914 Z  M 4536.0496 3338.8714 C 4536.6496 3338.8714 4537.0896 3338.5514 4537.4896 3338.0814 L 4537.5196 3338.0814 L 4537.5696 3338.7714 L 4538.1096 3338.7714 L 4538.1096 3334.4514 L 4537.4596 3334.4514 L 4537.4596 3337.5514 C 4537.0296 3338.0714 4536.6996 3338.3114 4536.2496 3338.3114 C 4535.6396 3338.3114 4535.3896 3337.9514 4535.3896 3337.1114 L 4535.3896 3334.4514 L 4534.7396 3334.4514 L 4534.7396 3337.1914 C 4534.7396 3338.3014 4535.1496 3338.8714 4536.0496 3338.8714 Z  M 4540.9296 3338.8714 C 4541.1696 3338.8714 4541.4596 3338.7914 4541.6996 3338.7114 L 4541.5696 3338.2314 C 4541.4296 3338.2814 4541.2296 3338.3414 4541.0696 3338.3414 C 4540.5496 3338.3414 4540.3896 3338.0214 4540.3896 3337.4914 L 4540.3896 3334.9914 L 4541.5796 3334.9914 L 4541.5796 3334.4514 L 4540.3896 3334.4514 L 4540.3896 3333.2314 L 4539.8396 3333.2314 L 4539.7696 3334.4514 L 4539.0896 3334.4914 L 4539.0896 3334.9914 L 4539.7396 3334.9914 L 4539.7396 3337.4714 C 4539.7396 3338.3114 4540.0296 3338.8714 4540.9296 3338.8714 Z  M 4543.7396 3337.8314 L 4544.2796 3337.8314 L 4544.2796 3336.0714 L 4545.8996 3336.0714 L 4545.8996 3335.5914 L 4544.2796 3335.5914 L 4544.2796 3333.8314 L 4543.7396 3333.8314 L 4543.7396 3335.5914 L 4542.1196 3335.5914 L 4542.1196 3336.0714 L 4543.7396 3336.0714 Z "  stroke="none" stroke-width="0.8"  /></g><g c_partid="part_pcbtext" c_etype="" c_origin="4613.5,3369.5" c_rotation="270" c_mirror="0" id="gge1557" locked="0" layerid="3" c_shapetype="group" display="none"><path c_fontsize="4.5" c_fontfamily="" c_text="XT60" d="M 4618.04 3369.5 L 4613.75 3372.36 M 4618.04 3372.36 L 4613.75 3369.5 M 4618.04 3375.15 L 4613.75 3375.15 M 4618.04 3373.71 L 4618.04 3376.58 M 4617.43 3380.38 L 4617.84 3380.18 L 4618.04 3379.56 L 4618.04 3379.15 L 4617.84 3378.54 L 4617.22 3378.13 L 4616.2 3377.93 L 4615.18 3377.93 L 4614.36 3378.13 L 4613.95 3378.54 L 4613.75 3379.15 L 4613.75 3379.36 L 4613.95 3379.97 L 4614.36 3380.38 L 4614.97 3380.59 L 4615.18 3380.59 L 4615.79 3380.38 L 4616.2 3379.97 L 4616.4 3379.36 L 4616.4 3379.15 L 4616.2 3378.54 L 4615.79 3378.13 L 4615.18 3377.93 M 4618.04 3383.16 L 4617.84 3382.55 L 4617.22 3382.14 L 4616.2 3381.94 L 4615.59 3381.94 L 4614.56 3382.14 L 4613.95 3382.55 L 4613.75 3383.16 L 4613.75 3383.57 L 4613.95 3384.19 L 4614.56 3384.6 L 4615.59 3384.8 L 4616.2 3384.8 L 4617.22 3384.6 L 4617.84 3384.19 L 4618.04 3383.57 L 4618.04 3383.16" fill="none"  stroke-width="0.6" c_note="note_name" /></g><g c_partid="part_pcbtext" c_etype="" c_origin="4606.5,3369.5" c_rotation="270" c_mirror="0" id="gge1563" locked="0" layerid="3" c_shapetype="group" ><path c_fontsize="4.5" c_fontfamily="" c_text="U3" d="M 4611.04 3369.5 L 4607.97 3369.5 L 4607.36 3369.7 L 4606.95 3370.11 L 4606.75 3370.73 L 4606.75 3371.14 L 4606.95 3371.75 L 4607.36 3372.16 L 4607.97 3372.36 L 4611.04 3372.36 M 4611.04 3374.12 L 4611.04 3376.37 L 4609.4 3375.15 L 4609.4 3375.76 L 4609.2 3376.17 L 4609 3376.37 L 4608.38 3376.58 L 4607.97 3376.58 L 4607.36 3376.37 L 4606.95 3375.96 L 4606.75 3375.35 L 4606.75 3374.74 L 4606.95 3374.12 L 4607.15 3373.92 L 4607.56 3373.71" fill="none"  stroke-width="0.6" c_note="note_pre" /></g><g c_partid="part_pcbtext" c_etype="" c_origin="4023.5,3389.7" c_rotation="90" c_mirror="0" id="gge2404" locked="0" layerid="3" c_shapetype="group" display="none"><path c_fontsize="4.5" c_fontfamily="" c_text="M03-SCREW-5MM" d="M 4018.96 3389.7 L 4023.25 3389.7 M 4018.96 3389.7 L 4023.25 3388.06 M 4018.96 3386.43 L 4023.25 3388.06 M 4018.96 3386.43 L 4023.25 3386.43 M 4018.96 3383.85 L 4019.16 3384.46 L 4019.78 3384.87 L 4020.8 3385.08 L 4021.41 3385.08 L 4022.44 3384.87 L 4023.05 3384.46 L 4023.25 3383.85 L 4023.25 3383.44 L 4023.05 3382.83 L 4022.44 3382.42 L 4021.41 3382.21 L 4020.8 3382.21 L 4019.78 3382.42 L 4019.16 3382.83 L 4018.96 3383.44 L 4018.96 3383.85 M 4018.96 3380.45 L 4018.96 3378.2 L 4020.6 3379.43 L 4020.6 3378.82 L 4020.8 3378.41 L 4021 3378.2 L 4021.62 3378 L 4022.03 3378 L 4022.64 3378.2 L 4023.05 3378.61 L 4023.25 3379.23 L 4023.25 3379.84 L 4023.05 3380.45 L 4022.85 3380.66 L 4022.44 3380.86 M 4021.41 3376.65 L 4021.41 3372.97 M 4019.57 3368.75 L 4019.16 3369.16 L 4018.96 3369.78 L 4018.96 3370.6 L 4019.16 3371.21 L 4019.57 3371.62 L 4019.98 3371.62 L 4020.39 3371.41 L 4020.6 3371.21 L 4020.8 3370.8 L 4021.21 3369.57 L 4021.41 3369.16 L 4021.62 3368.96 L 4022.03 3368.75 L 4022.64 3368.75 L 4023.05 3369.16 L 4023.25 3369.78 L 4023.25 3370.6 L 4023.05 3371.21 L 4022.64 3371.62 M 4019.98 3364.34 L 4019.57 3364.54 L 4019.16 3364.95 L 4018.96 3365.36 L 4018.96 3366.18 L 4019.16 3366.59 L 4019.57 3367 L 4019.98 3367.2 L 4020.6 3367.4 L 4021.62 3367.4 L 4022.23 3367.2 L 4022.64 3367 L 4023.05 3366.59 L 4023.25 3366.18 L 4023.25 3365.36 L 4023.05 3364.95 L 4022.64 3364.54 L 4022.23 3364.34 M 4018.96 3362.99 L 4023.25 3362.99 M 4018.96 3362.99 L 4018.96 3361.15 L 4019.16 3360.53 L 4019.37 3360.33 L 4019.78 3360.12 L 4020.19 3360.12 L 4020.6 3360.33 L 4020.8 3360.53 L 4021 3361.15 L 4021 3362.99 M 4021 3361.55 L 4023.25 3360.12 M 4018.96 3358.77 L 4023.25 3358.77 M 4018.96 3358.77 L 4018.96 3356.11 M 4021 3358.77 L 4021 3357.14 M 4023.25 3358.77 L 4023.25 3356.11 M 4018.96 3354.76 L 4023.25 3353.74 M 4018.96 3352.72 L 4023.25 3353.74 M 4018.96 3352.72 L 4023.25 3351.7 M 4018.96 3350.67 L 4023.25 3351.7 M 4021.41 3349.32 L 4021.41 3345.64 M 4018.96 3341.84 L 4018.96 3343.88 L 4020.8 3344.09 L 4020.6 3343.88 L 4020.39 3343.27 L 4020.39 3342.65 L 4020.6 3342.04 L 4021 3341.63 L 4021.62 3341.43 L 4022.03 3341.43 L 4022.64 3341.63 L 4023.05 3342.04 L 4023.25 3342.65 L 4023.25 3343.27 L 4023.05 3343.88 L 4022.85 3344.09 L 4022.44 3344.29 M 4018.96 3340.08 L 4023.25 3340.08 M 4018.96 3340.08 L 4023.25 3338.44 M 4018.96 3336.8 L 4023.25 3338.44 M 4018.96 3336.8 L 4023.25 3336.8 M 4018.96 3335.45 L 4023.25 3335.45 M 4018.96 3335.45 L 4023.25 3333.82 M 4018.96 3332.18 L 4023.25 3333.82 M 4018.96 3332.18 L 4023.25 3332.18" fill="none"  stroke-width="0.6" c_note="note_name" /></g><g c_partid="part_pcbtext" c_etype="" c_origin="4030.5,3389.7" c_rotation="90" c_mirror="0" id="gge2410" locked="0" layerid="3" c_shapetype="group" ><path c_fontsize="4.5" c_fontfamily="" c_text="JP1" d="M 4025.96 3387.65 L 4029.23 3387.65 L 4029.85 3387.86 L 4030.05 3388.06 L 4030.25 3388.47 L 4030.25 3388.88 L 4030.05 3389.29 L 4029.85 3389.5 L 4029.23 3389.7 L 4028.82 3389.7 M 4025.96 3386.3 L 4030.25 3386.3 M 4025.96 3386.3 L 4025.96 3384.46 L 4026.16 3383.85 L 4026.37 3383.65 L 4026.78 3383.44 L 4027.39 3383.44 L 4027.8 3383.65 L 4028 3383.85 L 4028.21 3384.46 L 4028.21 3386.3 M 4026.78 3382.09 L 4026.57 3381.68 L 4025.96 3381.07 L 4030.25 3381.07" fill="none"  stroke-width="0.6" c_note="note_pre" /></g><path d="M 4363.2473 3399.7938 A 1.2198 1.2198 0 0 1 4362.0275 3398.5739" locked="0"  fill="none" stroke-width="1" c_helper_type="arc2" net="" layerid="3" id="gge48" /><path d="M 4362.0275 3395.4244 A 1.2198 1.2198 0 0 1 4363.2473 3394.2046" locked="0"  fill="none" stroke-width="1" c_helper_type="arc2" net="" layerid="3" id="gge51" /><path d="M 4371.7524 3394.2064 A 1.2198 1.2198 0 0 1 4372.9721 3395.4262" locked="0"  fill="none" stroke-width="1" c_helper_type="arc2" net="" layerid="3" id="gge54" /><path d="M 4372.9721 3398.5757 A 1.2198 1.2198 0 0 1 4371.7524 3399.7957" locked="0"  fill="none" stroke-width="1" c_helper_type="arc2" net="" layerid="3" id="gge57" /><path d="M 4367.2527 3347.7062 A 1.2198 1.2198 0 0 1 4368.4725 3348.9261" locked="0"  fill="none" stroke-width="1" c_helper_type="arc2" net="" layerid="3" id="gge144" /><path d="M 4368.4725 3352.0756 A 1.2198 1.2198 0 0 1 4367.2527 3353.2954" locked="0"  fill="none" stroke-width="1" c_helper_type="arc2" net="" layerid="3" id="gge147" /><path d="M 4358.7476 3353.2936 A 1.2198 1.2198 0 0 1 4357.5279 3352.0738" locked="0"  fill="none" stroke-width="1" c_helper_type="arc2" net="" layerid="3" id="gge150" /><path d="M 4357.5279 3348.9243 A 1.2198 1.2198 0 0 1 4358.7476 3347.7043" locked="0"  fill="none" stroke-width="1" c_helper_type="arc2" net="" layerid="3" id="gge153" /><path d="M 4160.5001 3328.5001 A 10 10 0 0 0 4160.5001 3308.5001" locked="0"  fill="none" stroke-width="3.937" c_helper_type="arc2" net="" layerid="3" id="gge1230" /><path d="M 4160.5001 3348.5001 A 10 10 0 0 0 4160.5001 3328.5001" locked="0"  fill="none" stroke-width="3.937" c_helper_type="arc2" net="" layerid="3" id="gge1233" /><path d="M 4160.5001 3368.5001 A 10 10 0 0 0 4160.5001 3348.5001" locked="0"  fill="none" stroke-width="3.937" c_helper_type="arc2" net="" layerid="3" id="gge1236" /><path d="M 4160.5001 3388.5 A 10 10 0 0 0 4160.5001 3368.5" locked="0"  fill="none" stroke-width="3.937" c_helper_type="arc2" net="" layerid="3" id="gge1239" /><path d="M 4160.5001 3408.5 A 10 10 0 0 0 4160.5001 3388.5" locked="0"  fill="none" stroke-width="3.937" c_helper_type="arc2" net="" layerid="3" id="gge1242" /><path d="M 4160.5001 3428.4999 A 10 10 0 0 0 4160.5001 3408.4999" locked="0"  fill="none" stroke-width="3.937" c_helper_type="arc2" net="" layerid="3" id="gge1245" /><path d="M 4160.5001 3448.4999 A 10 10 0 0 0 4160.5001 3428.4999" locked="0"  fill="none" stroke-width="3.937" c_helper_type="arc2" net="" layerid="3" id="gge1248" /><path d="M 4160.5001 3468.4999 A 10 10 0 0 0 4160.5001 3448.4999" locked="0"  fill="none" stroke-width="3.937" c_helper_type="arc2" net="" layerid="3" id="gge1251" /><path d="M 4160.5001 3488.4998 A 10 10 0 0 0 4160.5001 3468.4998" locked="0"  fill="none" stroke-width="3.937" c_helper_type="arc2" net="" layerid="3" id="gge1254" /><path d="M 4220.4999 3328.5001 A 10 10 0 0 0 4220.4999 3348.5001" locked="0"  fill="none" stroke-width="1" c_helper_type="arc2" net="" layerid="3" id="gge1257" /><path d="M 4220.4999 3348.5001 A 10 10 0 0 0 4220.4999 3368.5001" locked="0"  fill="none" stroke-width="1" c_helper_type="arc2" net="" layerid="3" id="gge1260" /><path d="M 4220.4999 3368.5 A 10 10 0 0 0 4220.4999 3388.5" locked="0"  fill="none" stroke-width="1" c_helper_type="arc2" net="" layerid="3" id="gge1263" /><path d="M 4220.4999 3388.5 A 10 10 0 0 0 4220.4999 3408.5" locked="0"  fill="none" stroke-width="1" c_helper_type="arc2" net="" layerid="3" id="gge1266" /><path d="M 4220.4999 3408.4999 A 10 10 0 0 0 4220.4999 3428.4999" locked="0"  fill="none" stroke-width="1" c_helper_type="arc2" net="" layerid="3" id="gge1269" /><path d="M 4220.4999 3428.4999 A 10 10 0 0 0 4220.4999 3448.4999" locked="0"  fill="none" stroke-width="1" c_helper_type="arc2" net="" layerid="3" id="gge1272" /><path d="M 4160.5001 3308.5002 A 10 10 0 0 0 4160.5001 3288.5002" locked="0"  fill="none" stroke-width="3.937" c_helper_type="arc2" net="" layerid="3" id="gge1275" /><circle cx="4408.567" cy="3371.016" r="11.024" stroke-width="1" fill="none" layerid="3" id="gge1461" locked="0"  /><circle cx="4536.913" cy="3379.678" r="11.024" stroke-width="1" fill="none" layerid="3" id="gge1464" locked="0"  /><polyline points="4571.18 3537.275 4059.37 3537.275" stroke-width="1"  stroke-linecap="round" fill="none" layerid="10" net="" id="gge1713" locked="0" /><polyline points="4020 3497.905 4020 3281.37" stroke-width="1"  stroke-linecap="round" fill="none" layerid="10" net="" id="gge1719" locked="0" /><polyline points="4610.55 3281.37 4610.55 3497.905" stroke-width="1"  stroke-linecap="round" fill="none" layerid="10" net="" id="gge1707" locked="0" /><polyline points="4059.37 3242 4571.18 3242" stroke-width="1"  stroke-linecap="round" fill="none" layerid="10" net="" id="gge1701" locked="0" /><path d="M4571.18 3242A39.37 39.37 0 0 1 4610.55 3281.37" locked="0"  fill="none" stroke-width="1" c_helper_type="arc2" net="" layerid="10" id="gge1704" /><path d="M4059.37 3537.275A39.37 39.37 0 0 1 4020 3497.905" locked="0"  fill="none" stroke-width="1" c_helper_type="arc2" net="" layerid="10" id="gge1716" /><path d="M4020 3281.37A39.37 39.37 0 0 1 4059.37 3242" locked="0"  fill="none" stroke-width="1" c_helper_type="arc2" net="" layerid="10" id="gge1722" /><path d="M4610.55 3497.905A39.37 39.37 0 0 1 4571.18 3537.275" locked="0"  fill="none" stroke-width="1" c_helper_type="arc2" net="" layerid="10" id="gge1710" /></svg>