<svg xmlns="http://www.w3.org/2000/svg" xmlns:xlink="http://www.w3.org/1999/xlink" width="165.075mm" height="165.075mm" viewBox="3758.1 2925 649.9 649.9"><title></title><style type="text/css">
*[layerid="1"] {stroke:#000000;fill:#000000;}
*[layerid="2"] {stroke:#000000;fill:#000000;}
*[layerid="3"] {stroke:#000000;fill:#000000;}
*[layerid="4"] {stroke:#000000;fill:#000000;}
*[layerid="5"] {stroke:#000000;fill:#000000;}
*[layerid="6"] {stroke:#000000;fill:#000000;}
*[layerid="7"] {stroke:#000000;fill:#000000;}
*[layerid="8"] {stroke:#000000;fill:#000000;}
*[layerid="9"] {stroke:#000000;fill:#000000;}
*[layerid="10"] {stroke:#000000;fill:#000000;}
*[layerid="11"] {stroke:#000000;fill:#000000;}
*[layerid="12"] {stroke:#000000;fill:#000000;}
*[layerid="13"] {stroke:#000000;fill:#000000;}
*[layerid="14"] {stroke:#000000;fill:#000000;}
*[layerid="15"] {stroke:#000000;fill:#000000;}
*[layerid="19"] {stroke:#000000;fill:#000000;}
*[layerid="21"] {stroke:#000000;fill:#000000;}
*[layerid="22"] {stroke:#000000;fill:#000000;}
*[layerid="23"] {stroke:#000000;fill:#000000;}
*[layerid="24"] {stroke:#000000;fill:#000000;}
*[layerid="25"] {stroke:#000000;fill:#000000;}
*[layerid="26"] {stroke:#000000;fill:#000000;}
*[layerid="27"] {stroke:#000000;fill:#000000;}
*[layerid="28"] {stroke:#000000;fill:#000000;}
*[layerid="29"] {stroke:#000000;fill:#000000;}
*[layerid="30"] {stroke:#000000;fill:#000000;}
*[layerid="31"] {stroke:#000000;fill:#000000;}
*[layerid="32"] {stroke:#000000;fill:#000000;}
*[layerid="33"] {stroke:#000000;fill:#000000;}
*[layerid="34"] {stroke:#000000;fill:#000000;}
*[layerid="35"] {stroke:#000000;fill:#000000;}
*[layerid="36"] {stroke:#000000;fill:#000000;}
*[layerid="37"] {stroke:#000000;fill:#000000;}
*[layerid="38"] {stroke:#000000;fill:#000000;}
*[layerid="39"] {stroke:#000000;fill:#000000;}
*[layerid="40"] {stroke:#000000;fill:#000000;}
*[layerid="41"] {stroke:#000000;fill:#000000;}
*[layerid="42"] {stroke:#000000;fill:#000000;}
*[layerid="43"] {stroke:#000000;fill:#000000;}
*[layerid="44"] {stroke:#000000;fill:#000000;}
*[layerid="45"] {stroke:#000000;fill:#000000;}
*[layerid="46"] {stroke:#000000;fill:#000000;}
*[layerid="47"] {stroke:#000000;fill:#000000;}
*[layerid="48"] {stroke:#000000;fill:#000000;}
*[layerid="49"] {stroke:#000000;fill:#000000;}
*[layerid="50"] {stroke:#000000;fill:#000000;}
*[layerid="51"] {stroke:#000000;fill:#000000;}
*[layerid="52"] {stroke:#000000;fill:#000000;}
*[layerid="99"] {stroke:#000000;fill:#000000;}
*[layerid="100"] {stroke:#000000;fill:#000000;}
*[layerid="101"] {stroke:#000000;fill:#000000;}
*[layerid="Hole"] {stroke:#000000;fill:#000000;}
*[layerid="DRCError"] {stroke:#000000;fill:#000000;}
*[fill="none"] {fill: none;}
*[stroke="none"] {stroke: none;}
path, polyline, polygon, line {stroke-linecap:round;}
g[c_partid="part_pad"][layerid="1"] ellipse:not([c_etype="pad_outer"]) {fill:#000000;}
g[c_partid="part_pad"][layerid="1"] polygon:not([c_etype="pad_outer"]) {fill:#000000;}
g[c_partid="part_pad"][layerid="1"] polyline:not([c_etype="pad_outer"]) {stroke:#000000;}
g[c_partid="part_pad"][layerid="2"] ellipse:not([c_etype="pad_outer"]) {fill:#000000;}
g[c_partid="part_pad"][layerid="2"] polygon:not([c_etype="pad_outer"]) {fill:#000000;}
g[c_partid="part_pad"][layerid="2"] polyline:not([c_etype="pad_outer"]) {stroke:#000000;}
g[c_partid="part_pad"][layerid="11"] ellipse:not([c_etype="pad_outer"]) {fill:#000000;}
g[c_partid="part_pad"][layerid="11"] polygon:not([c_etype="pad_outer"]) {fill:#000000;}
g[c_partid="part_pad"][layerid="11"] polyline:not([c_etype="pad_outer"]) {stroke:#000000;}
g[c_partid="part_pad"][layerid="11"] circle {fill:#FFFFFF;}
g[c_partid="part_pad"][layerid="11"] > polyline:nth-of-type(2) {stroke:#FFFFFF;}
g[c_partid="part_pad"][layerid="11"][c_shape="ELLIPSE"]  polyline:nth-last-of-type(1) {stroke:#FFFFFF;}
g[c_partid="part_pad"][layerid="11"][c_shape="RECT"]  polyline:nth-last-of-type(1) {stroke:#FFFFFF;}
g[c_partid="part_pad"][layerid="11"][c_shape="POLYGON"]  polyline:nth-last-of-type(1) {stroke:#FFFFFF;}
g[c_partid="part_via"] > * + circle, #gCurParts g[c_partid="part_via"] > * + circle {fill:#FFFFFF;}
g[c_partid="part_pad"] > polygon[c_etype="pad_outer"], #gCurParts g[c_partid="part_pad"] > polygon[c_etype="pad_outer"] {stroke-linejoin: round;stroke-miterlimit: 100;}
g[c_partid="part_hole"] > circle {fill: #FFFFFF;}path, polyline, polygon {stroke-linejoin:round;}
rect, circle, ellipse, polyline, line, polygon, path {shape-rendering:crispEdges;}
</style>
<rect x="3758.1" y="2925" width="649.9" height="649.9" fill="#FFFFFF" stroke="none"/><polyline points="4193.9999 3295.5 4194.4999 3295 4194.4999 3274.642" stroke-width="3.937"  stroke-linecap="round" fill="none" layerid="2" net="VDC+" id="gge4896" locked="0" /><polyline points="3979.9999 3276.142 3999.9369 3296.079 4075.4999 3296.079" stroke-width="3.937"  stroke-linecap="round" fill="none" layerid="2" net="VDC+" id="gge4893" locked="0" /><polyline points="4075.4999 3296.079 4193.4209 3296.079 4193.9999 3295.5" stroke-width="3.937"  stroke-linecap="round" fill="none" layerid="2" net="VDC+" id="gge4890" locked="0" /><polyline points="4043.6299 3020.575 4044.7999 3019.405 4044.7999 2971" stroke-width="3.937"  stroke-linecap="round" fill="none" layerid="2" net="U1_2" id="gge4887" locked="0" /><polyline points="4064.4999 2971 4044.7999 2971" stroke-width="3.937"  stroke-linecap="round" fill="none" layerid="2" net="U1_2" id="gge4884" locked="0" /><polyline points="4122.3699 3020.575 4084.1999 2982.405 4084.1999 2971" stroke-width="3.937"  stroke-linecap="round" fill="none" layerid="2" net="U1_1" id="gge4881" locked="0" /><polyline points="4075.4999 3319.079 4067.3119 3319.079 4048.1779 3338.213" stroke-width="3.937"  stroke-linecap="round" fill="none" layerid="2" net="VDC-" id="gge4878" locked="0" /><polyline points="4205.9999 3458 4205.9999 3404.199 4163.9329 3362.132 4144.4359 3362.132 4124.9409 3342.637 4124.9409 3319.079" stroke-width="3.937"  stroke-linecap="round" fill="none" layerid="2" net="VDC-" id="gge4875" locked="0" /><polyline points="4124.9409 3319.079 4075.4999 3319.079" stroke-width="3.937"  stroke-linecap="round" fill="none" layerid="2" net="VDC-" id="gge4872" locked="0" /><polyline points="4075.4999 3319.079 4075.4999 3305.921" stroke-width="3.937"  stroke-linecap="round" fill="none" layerid="2" net="VDC-" id="gge4869" locked="0" /><polyline points="4202.2979 3319.079 4202.2979 3272.406 4161.1829 3231.291 4096.8659 3231.291 4082.9999 3217.425" stroke-width="3.937"  stroke-linecap="round" fill="none" layerid="2" net="VDC-" id="gge4866" locked="0" /><polyline points="4124.9409 3319.079 4202.2979 3319.079" stroke-width="3.937"  stroke-linecap="round" fill="none" layerid="2" net="VDC-" id="gge4863" locked="0" /><polyline points="4202.2979 3319.079 4209.4999 3319.079" stroke-width="3.937"  stroke-linecap="round" fill="none" layerid="2" net="VDC-" id="gge4860" locked="0" /><polyline points="4169.4999 3338.213 4132.8229 3338.213" stroke-width="3.937"  stroke-linecap="round" fill="none" layerid="2" net="DC+" id="gge4857" locked="0" /><polyline points="4209.4999 3328.921 4178.7919 3328.921 4169.4999 3338.213" stroke-width="3.937"  stroke-linecap="round" fill="none" layerid="2" net="DC+" id="gge4854" locked="0" /><polyline points="4169.4999 3338.213 4169.4999 3339" stroke-width="3.937"  stroke-linecap="round" fill="none" layerid="2" net="DC+" id="gge4851" locked="0" /><polyline points="4233.9999 3295.5 4233.9999 3304.421 4209.4999 3328.921" stroke-width="3.937"  stroke-linecap="round" fill="none" layerid="2" net="DC+" id="gge4848" locked="0" /><polyline points="4109.1729 3534.5 4132.8229 3510.85 4132.8229 3489.787" stroke-width="3.937"  stroke-linecap="round" fill="none" layerid="2" net="U2_3" id="gge4845" locked="0" /><polyline points="4080.8269 3534.5 4048.1779 3501.851 4048.1779 3489.787" stroke-width="3.937"  stroke-linecap="round" fill="none" layerid="2" net="U2_4" id="gge4842" locked="0" /><polyline points="4169.4999 3379 4195.9999 3405.5 4195.9999 3458" stroke-width="3.937"  stroke-linecap="round" fill="none" layerid="2" net="LED1_A" id="gge4839" locked="0" /><polyline points="4122.3699 3217.425 4169.5669 3217.425 4194.4999 3242.358" stroke-width="3.937"  stroke-linecap="round" fill="none" layerid="2" net="U1_5" id="gge4836" locked="0" /><polyline points="4043.6299 3217.425 4006.4329 3217.425 3979.9999 3243.858" stroke-width="3.937"  stroke-linecap="round" fill="none" layerid="2" net="U1_3" id="gge4833" locked="0" /><g c_partid="part_pad" c_etype="pinpart" c_origin="4194.5,3242.358" layerid="11" number="2" net="U1_5" plated ="Y"  id="gge336" locked="0" c_rotation="270" c_width="6.2992" c_height="6.2992" title="U1_5" c_shape="ELLIPSE" pasteexpansion="0" solderexpansion="0.2"><ellipse c_etype="pad_shell" cx="4194.5" cy="3242.358" rx="3.1496" ry="3.1496" layerid="11" stroke-width="0"/><circle c_etype="pad_hole" cx="4194.5" cy="3242.3583" r="1.5748" layerid="11" stroke-width="0"/></g><g c_partid="part_pad" c_etype="pinpart" c_origin="4194.5,3274.642" layerid="11" number="1" net="VDC+" plated ="Y"  id="gge351" locked="0" c_rotation="270" c_width="6.2992" c_height="6.2992" title="VDC+" c_shape="ELLIPSE" pasteexpansion="0" solderexpansion="0.2"><ellipse c_etype="pad_shell" cx="4194.5" cy="3274.642" rx="3.1496" ry="3.1496" layerid="11" stroke-width="0"/><circle c_etype="pad_hole" cx="4194.5" cy="3274.6417" r="1.5748" layerid="11" stroke-width="0"/></g><g c_partid="part_pad" c_etype="pinpart" c_origin="3980,3243.858" layerid="11" number="2" net="U1_3" plated ="Y"  id="gge432" locked="0" c_rotation="270" c_width="6.2992" c_height="6.2992" title="U1_3" c_shape="ELLIPSE" pasteexpansion="0" solderexpansion="0.2"><ellipse c_etype="pad_shell" cx="3980" cy="3243.858" rx="3.1496" ry="3.1496" layerid="11" stroke-width="0"/><circle c_etype="pad_hole" cx="3980" cy="3243.8583" r="1.5748" layerid="11" stroke-width="0"/></g><g c_partid="part_pad" c_etype="pinpart" c_origin="3980,3276.142" layerid="11" number="1" net="VDC+" plated ="Y"  id="gge447" locked="0" c_rotation="270" c_width="6.2992" c_height="6.2992" title="VDC+" c_shape="ELLIPSE" pasteexpansion="0" solderexpansion="0.2"><ellipse c_etype="pad_shell" cx="3980" cy="3276.142" rx="3.1496" ry="3.1496" layerid="11" stroke-width="0"/><circle c_etype="pad_hole" cx="3980" cy="3276.1417" r="1.5748" layerid="11" stroke-width="0"/></g><g c_partid="part_pad" c_etype="pinpart" c_origin="4044.8,2971" layerid="11" number="1" net="U1_2" plated ="Y"  id="gge522" locked="0" c_rotation="0" c_width="9.5" c_height="9.5" title="U1_2" c_shape="RECT" pasteexpansion="0" solderexpansion="0.2"><polygon  c_etype="pad_shell" points="4040.05 2966.25 4049.55 2966.25 4049.55 2975.75 4040.05 2975.75" layerid="11" stroke-width="0" /><circle c_etype="pad_hole" cx="4044.8" cy="2971" r="2.56" layerid="11" stroke-width="0"/></g><g c_partid="part_pad" c_etype="pinpart" c_origin="4064.5,2971" layerid="11" number="2" net="U1_2" plated ="Y"  id="gge537" locked="0" c_rotation="0" c_width="9.5" c_height="9.5" title="U1_2" c_shape="ELLIPSE" pasteexpansion="0" solderexpansion="0.2"><ellipse c_etype="pad_shell" cx="4064.5" cy="2971" rx="4.75" ry="4.75" layerid="11" stroke-width="0"/><circle c_etype="pad_hole" cx="4064.5" cy="2971" r="2.56" layerid="11" stroke-width="0"/></g><g c_partid="part_pad" c_etype="pinpart" c_origin="4084.2,2971" layerid="11" number="3" net="U1_1" plated ="Y"  id="gge552" locked="0" c_rotation="0" c_width="9.5" c_height="9.5" title="U1_1" c_shape="ELLIPSE" pasteexpansion="0" solderexpansion="0.2"><ellipse c_etype="pad_shell" cx="4084.2" cy="2971" rx="4.75" ry="4.75" layerid="11" stroke-width="0"/><circle c_etype="pad_hole" cx="4084.2" cy="2971" r="2.56" layerid="11" stroke-width="0"/></g><g c_partid="part_pad" c_etype="pinpart" c_origin="4122.37,3020.575" layerid="11" number="1" net="U1_1" plated ="Y"  id="gge1281" locked="0" c_rotation="270" c_width="11.811" c_height="11.811" title="U1_1" c_shape="ELLIPSE" pasteexpansion="0" solderexpansion="0.2"><ellipse c_etype="pad_shell" cx="4122.37" cy="3020.575" rx="5.9055" ry="5.9055" layerid="11" stroke-width="0"/><circle c_etype="pad_hole" cx="4122.37" cy="3020.575" r="2.3622" layerid="11" stroke-width="0"/></g><g c_partid="part_pad" c_etype="pinpart" c_origin="4043.63,3020.575" layerid="11" number="2" net="U1_2" plated ="Y"  id="gge1296" locked="0" c_rotation="270" c_width="11.811" c_height="11.811" title="U1_2" c_shape="ELLIPSE" pasteexpansion="0" solderexpansion="0.2"><ellipse c_etype="pad_shell" cx="4043.63" cy="3020.575" rx="5.9055" ry="5.9055" layerid="11" stroke-width="0"/><circle c_etype="pad_hole" cx="4043.63" cy="3020.575" r="2.3622" layerid="11" stroke-width="0"/></g><g c_partid="part_pad" c_etype="pinpart" c_origin="4043.63,3217.425" layerid="11" number="3" net="U1_3" plated ="Y"  id="gge1311" locked="0" c_rotation="270" c_width="11.811" c_height="11.811" title="U1_3" c_shape="ELLIPSE" pasteexpansion="0" solderexpansion="0.2"><ellipse c_etype="pad_shell" cx="4043.63" cy="3217.425" rx="5.9055" ry="5.9055" layerid="11" stroke-width="0"/><circle c_etype="pad_hole" cx="4043.63" cy="3217.425" r="2.3622" layerid="11" stroke-width="0"/></g><g c_partid="part_pad" c_etype="pinpart" c_origin="4083,3217.425" layerid="11" number="4" net="VDC-" plated ="Y"  id="gge1326" locked="0" c_rotation="270" c_width="11.811" c_height="11.811" title="VDC-" c_shape="ELLIPSE" pasteexpansion="0" solderexpansion="0.2"><ellipse c_etype="pad_shell" cx="4083" cy="3217.425" rx="5.9055" ry="5.9055" layerid="11" stroke-width="0"/><circle c_etype="pad_hole" cx="4083" cy="3217.425" r="2.3622" layerid="11" stroke-width="0"/></g><g c_partid="part_pad" c_etype="pinpart" c_origin="4122.37,3217.425" layerid="11" number="5" net="U1_5" plated ="Y"  id="gge1341" locked="0" c_rotation="270" c_width="11.811" c_height="11.811" title="U1_5" c_shape="ELLIPSE" pasteexpansion="0" solderexpansion="0.2"><ellipse c_etype="pad_shell" cx="4122.37" cy="3217.425" rx="5.9055" ry="5.9055" layerid="11" stroke-width="0"/><circle c_etype="pad_hole" cx="4122.37" cy="3217.425" r="2.3622" layerid="11" stroke-width="0"/></g><g c_partid="part_pad" c_etype="pinpart" c_origin="4132.8224,3338.2131" layerid="11" number="1" net="DC+" plated ="Y"  id="gge1410" locked="0" c_rotation="270" c_width="7.874" c_height="7.874" title="DC+" c_shape="ELLIPSE" pasteexpansion="0" solderexpansion="0.2"><ellipse c_etype="pad_shell" cx="4132.8224" cy="3338.2131" rx="3.937" ry="3.937" layerid="11" stroke-width="0"/><circle c_etype="pad_hole" cx="4132.8229" cy="3338.2126" r="1.8" layerid="11" stroke-width="0"/></g><g c_partid="part_pad" c_etype="pinpart" c_origin="4048.1774,3338.2131" layerid="11" number="2" net="VDC-" plated ="Y"  id="gge1425" locked="0" c_rotation="270" c_width="7.874" c_height="7.874" title="VDC-" c_shape="ELLIPSE" pasteexpansion="0" solderexpansion="0.2"><ellipse c_etype="pad_shell" cx="4048.1774" cy="3338.2131" rx="3.937" ry="3.937" layerid="11" stroke-width="0"/><circle c_etype="pad_hole" cx="4048.1771" cy="3338.2126" r="1.8" layerid="11" stroke-width="0"/></g><g c_partid="part_pad" c_etype="pinpart" c_origin="4132.8224,3489.7871" layerid="11" number="3" net="U2_3" plated ="Y"  id="gge1440" locked="0" c_rotation="270" c_width="7.874" c_height="7.874" title="U2_3" c_shape="ELLIPSE" pasteexpansion="0" solderexpansion="0.2"><ellipse c_etype="pad_shell" cx="4132.8224" cy="3489.7871" rx="3.937" ry="3.937" layerid="11" stroke-width="0"/><circle c_etype="pad_hole" cx="4132.8229" cy="3489.7874" r="1.8" layerid="11" stroke-width="0"/></g><g c_partid="part_pad" c_etype="pinpart" c_origin="4048.1774,3489.7871" layerid="11" number="4" net="U2_4" plated ="Y"  id="gge1455" locked="0" c_rotation="270" c_width="7.874" c_height="7.874" title="U2_4" c_shape="ELLIPSE" pasteexpansion="0" solderexpansion="0.2"><ellipse c_etype="pad_shell" cx="4048.1774" cy="3489.7871" rx="3.937" ry="3.937" layerid="11" stroke-width="0"/><circle c_etype="pad_hole" cx="4048.177" cy="3489.7873" r="1.8" layerid="11" stroke-width="0"/></g><g c_partid="part_pad" c_etype="pinpart" c_origin="4109.173,3534.5" layerid="11" number="1" net="U2_3" plated ="Y"  id="gge1539" locked="0" c_rotation="180" c_width="22.8346" c_height="22.8346" title="U2_3" c_shape="ELLIPSE" pasteexpansion="0" solderexpansion="0.19685"><ellipse c_etype="pad_shell" cx="4109.173" cy="3534.5" rx="11.4173" ry="11.4173" layerid="11" stroke-width="0"/><circle c_etype="pad_hole" cx="4109.1732" cy="3534.5" r="8.6614" layerid="11" stroke-width="0"/></g><g c_partid="part_pad" c_etype="pinpart" c_origin="4080.827,3534.5" layerid="11" number="2" net="U2_4" plated ="Y"  id="gge1554" locked="0" c_rotation="180" c_width="22.8346" c_height="22.8346" title="U2_4" c_shape="ELLIPSE" pasteexpansion="0" solderexpansion="0.19685"><ellipse c_etype="pad_shell" cx="4080.827" cy="3534.5" rx="11.4173" ry="11.4173" layerid="11" stroke-width="0"/><circle c_etype="pad_hole" cx="4080.8268" cy="3534.5" r="8.6614" layerid="11" stroke-width="0"/></g><g c_partid="part_pad" c_etype="pinpart" c_origin="4196,3458" layerid="11" number="A" net="LED1_A" plated ="Y"  id="gge2445" locked="0" c_rotation="0" c_width="7.4" c_height="7.4" title="LED1_A" c_shape="ELLIPSE" pasteexpansion="0" solderexpansion="0.2"><ellipse c_etype="pad_shell" cx="4196" cy="3458" rx="3.7" ry="3.7" layerid="11" stroke-width="0"/><circle c_etype="pad_hole" cx="4196" cy="3458" r="1.6" layerid="11" stroke-width="0"/></g><g c_partid="part_pad" c_etype="pinpart" c_origin="4206,3458" layerid="11" number="K" net="VDC-" plated ="Y"  id="gge2460" locked="0" c_rotation="0" c_width="7.4" c_height="7.4" title="VDC-" c_shape="ELLIPSE" pasteexpansion="0" solderexpansion="0.2"><ellipse c_etype="pad_shell" cx="4206" cy="3458" rx="3.7" ry="3.7" layerid="11" stroke-width="0"/><circle c_etype="pad_hole" cx="4206" cy="3458" r="1.6" layerid="11" stroke-width="0"/></g><g c_partid="part_pad" c_etype="pinpart" c_origin="4194,3295.5" layerid="11" number="1" net="VDC+" plated ="Y"  id="gge3141" locked="0" c_rotation="0" c_width="7.874" c_height="7.874" title="VDC+" c_shape="ELLIPSE" pasteexpansion="0" solderexpansion="0.2"><ellipse c_etype="pad_shell" cx="4194" cy="3295.5" rx="3.937" ry="3.937" layerid="11" stroke-width="0"/><circle c_etype="pad_hole" cx="4194" cy="3295.5" r="1.8" layerid="11" stroke-width="0"/></g><g c_partid="part_pad" c_etype="pinpart" c_origin="4234,3295.5" layerid="11" number="2" net="DC+" plated ="Y"  id="gge3156" locked="0" c_rotation="0" c_width="7.874" c_height="7.874" title="DC+" c_shape="ELLIPSE" pasteexpansion="0" solderexpansion="0.2"><ellipse c_etype="pad_shell" cx="4234" cy="3295.5" rx="3.937" ry="3.937" layerid="11" stroke-width="0"/><circle c_etype="pad_hole" cx="4234" cy="3295.5" r="1.8" layerid="11" stroke-width="0"/></g><g c_partid="part_pad" c_etype="pinpart" c_origin="4169.5,3339" layerid="11" number="1" net="DC+" plated ="Y"  id="gge3336" locked="0" c_rotation="270" c_width="7.874" c_height="7.874" title="DC+" c_shape="ELLIPSE" pasteexpansion="0" solderexpansion="0.2"><ellipse c_etype="pad_shell" cx="4169.5" cy="3339" rx="3.937" ry="3.937" layerid="11" stroke-width="0"/><circle c_etype="pad_hole" cx="4169.5" cy="3339" r="1.8" layerid="11" stroke-width="0"/></g><g c_partid="part_pad" c_etype="pinpart" c_origin="4169.5,3379" layerid="11" number="2" net="LED1_A" plated ="Y"  id="gge3351" locked="0" c_rotation="270" c_width="7.874" c_height="7.874" title="LED1_A" c_shape="ELLIPSE" pasteexpansion="0" solderexpansion="0.2"><ellipse c_etype="pad_shell" cx="4169.5" cy="3379" rx="3.937" ry="3.937" layerid="11" stroke-width="0"/><circle c_etype="pad_hole" cx="4169.5" cy="3379" r="1.8" layerid="11" stroke-width="0"/></g><g c_partid="part_pad" c_etype="pinpart" c_origin="4075.5,3305.921" layerid="11" number="1" net="VDC-" plated ="Y"  id="gge3465" locked="0" c_rotation="90" c_width="5.9055" c_height="5.9055" title="VDC-" c_shape="ELLIPSE" pasteexpansion="0" solderexpansion="0.2"><ellipse c_etype="pad_shell" cx="4075.5" cy="3305.921" rx="2.95275" ry="2.95275" layerid="11" stroke-width="0"/><polyline c_etype="pad_hole" points="4075.5 3305.931 4075.5 3305.911" layerid="11" stroke-width="2.756"></polyline></g><g c_partid="part_pad" c_etype="pinpart" c_origin="4075.5,3296.079" layerid="11" number="2" net="VDC+" plated ="Y"  id="gge3480" locked="0" c_rotation="90" c_width="5.9055" c_height="5.9055" title="VDC+" c_shape="ELLIPSE" pasteexpansion="0" solderexpansion="0.2"><ellipse c_etype="pad_shell" cx="4075.5" cy="3296.079" rx="2.95275" ry="2.95275" layerid="11" stroke-width="0"/><polyline c_etype="pad_hole" points="4075.5 3296.089 4075.5 3296.069" layerid="11" stroke-width="2.756"></polyline></g><g c_partid="part_pad" c_etype="pinpart" c_origin="4209.5,3319.079" layerid="11" number="1" net="VDC-" plated ="Y"  id="gge3516" locked="0" c_rotation="270" c_width="5.9055" c_height="5.9055" title="VDC-" c_shape="ELLIPSE" pasteexpansion="0" solderexpansion="0.2"><ellipse c_etype="pad_shell" cx="4209.5" cy="3319.079" rx="2.95275" ry="2.95275" layerid="11" stroke-width="0"/><polyline c_etype="pad_hole" points="4209.5 3319.069 4209.5 3319.089" layerid="11" stroke-width="2.756"></polyline></g><g c_partid="part_pad" c_etype="pinpart" c_origin="4209.5,3328.921" layerid="11" number="2" net="DC+" plated ="Y"  id="gge3531" locked="0" c_rotation="270" c_width="5.9055" c_height="5.9055" title="DC+" c_shape="ELLIPSE" pasteexpansion="0" solderexpansion="0.2"><ellipse c_etype="pad_shell" cx="4209.5" cy="3328.921" rx="2.95275" ry="2.95275" layerid="11" stroke-width="0"/><polyline c_etype="pad_hole" points="4209.5 3328.911 4209.5 3328.931" layerid="11" stroke-width="2.756"></polyline></g><g c_partid="part_hole" c_etype="pinpart" c_shapetype="group" c_origin="4220.795,3119" layerid="11" id="gge1221" locked="0" ><circle cx="4220.795" cy="3119" r="5.9055"  stroke-width="1" fill-opacity="0" /></g><g c_partid="part_hole" c_etype="pinpart" c_shapetype="group" c_origin="3945.205,3119" layerid="11" id="gge1233" locked="0" ><circle cx="3945.205" cy="3119" r="5.9055"  stroke-width="1" fill-opacity="0" /></g><polyline points="4190.1693 3267.1614 4190.1693 3249.8386" stroke-width="1"  stroke-linecap="round" fill="none" layerid="3" net="" id="gge306" locked="0" /><polyline points="4198.8307 3267.1614 4198.8307 3249.8386" stroke-width="1"  stroke-linecap="round" fill="none" layerid="3" net="" id="gge309" locked="0" /><polyline points="4190.1693 3267.1614 4198.8307 3267.1614" stroke-width="1"  stroke-linecap="round" fill="none" layerid="3" net="" id="gge312" locked="0" /><polyline points="4190.1693 3249.8386 4198.8307 3249.8386" stroke-width="1"  stroke-linecap="round" fill="none" layerid="3" net="" id="gge315" locked="0" /><polyline points="4190.1693 3263.463 4198.8307 3263.463" stroke-width="1"  stroke-linecap="round" fill="none" layerid="3" net="" id="gge318" locked="0" /><polyline points="3975.6693 3268.6614 3975.6693 3251.3386" stroke-width="1"  stroke-linecap="round" fill="none" layerid="3" net="" id="gge402" locked="0" /><polyline points="3984.3307 3268.6614 3984.3307 3251.3386" stroke-width="1"  stroke-linecap="round" fill="none" layerid="3" net="" id="gge405" locked="0" /><polyline points="3975.6693 3268.6614 3984.3307 3268.6614" stroke-width="1"  stroke-linecap="round" fill="none" layerid="3" net="" id="gge408" locked="0" /><polyline points="3975.6693 3251.3386 3984.3307 3251.3386" stroke-width="1"  stroke-linecap="round" fill="none" layerid="3" net="" id="gge411" locked="0" /><polyline points="3975.6693 3264.963 3984.3307 3264.963" stroke-width="1"  stroke-linecap="round" fill="none" layerid="3" net="" id="gge414" locked="0" /><polyline points="4032.6 2954.5 4096.4 2954.5" stroke-width="1"  stroke-linecap="round" fill="none" layerid="3" net="" id="gge480" locked="0" /><polyline points="4096.4 2954.5 4096.4 2980.1" stroke-width="1"  stroke-linecap="round" fill="none" layerid="3" net="" id="gge483" locked="0" /><polyline points="4096.4 2980.1 4096.4 2984" stroke-width="1"  stroke-linecap="round" fill="none" layerid="3" net="" id="gge486" locked="0" /><polyline points="4096.4 2984 4032.6 2984" stroke-width="1"  stroke-linecap="round" fill="none" layerid="3" net="" id="gge489" locked="0" /><polyline points="4032.6 2984 4032.6 2980.1" stroke-width="1"  stroke-linecap="round" fill="none" layerid="3" net="" id="gge492" locked="0" /><polyline points="4032.6 2980.1 4032.6 2954.5" stroke-width="1"  stroke-linecap="round" fill="none" layerid="3" net="" id="gge495" locked="0" /><polyline points="4096.4 2980.1 4032.6 2980.1" stroke-width="1"  stroke-linecap="round" fill="none" layerid="3" net="" id="gge498" locked="0" /><polyline points="4182.9998 3129 3983.0002 3129" stroke-width="3.937"  stroke-linecap="round" fill="none" layerid="3" net="" id="gge1146" locked="0" /><polyline points="4182.9998 3109 3983.0002 3109" stroke-width="3.937"  stroke-linecap="round" fill="none" layerid="3" net="" id="gge1149" locked="0" /><polyline points="3983.0002 3059.0001 3983.0002 3089.0001" stroke-width="3.937"  stroke-linecap="round" fill="none" layerid="3" net="" id="gge1152" locked="0" /><polyline points="4043.0001 3027.3613 4043.0001 3059.0001 3983.0002 3059.0001" stroke-width="3.937"  stroke-linecap="round" fill="none" layerid="3" net="" id="gge1155" locked="0" /><polyline points="4122.9999 3027.3613 4122.9999 3059.0001 4182.9998 3059.0001 4182.9998 3089.0001" stroke-width="3.937"  stroke-linecap="round" fill="none" layerid="3" net="" id="gge1158" locked="0" /><polyline points="4023.0001 3148.9999 4023.0001 3178.9999 4043.0001 3178.9999 4043.0001 3210.6387" stroke-width="1"  stroke-linecap="round" fill="none" layerid="3" net="" id="gge1161" locked="0" /><polyline points="4142.9999 3148.9999 4142.9999 3178.9999 4122.9999 3178.9999 4122.9999 3210.6387" stroke-width="1"  stroke-linecap="round" fill="none" layerid="3" net="" id="gge1164" locked="0" /><polyline points="4083 3210.6095 4083 3148.9999" stroke-width="1"  stroke-linecap="round" fill="none" layerid="3" net="" id="gge1167" locked="0" /><polyline points="4201 3040.5 4201 3197.98 3964.78 3197.98 3964.78 3040.5 4201 3040.5" stroke-width="1.9685"  stroke-linecap="round" fill="none" layerid="3" net="" id="gge1170" locked="0" /><polyline points="4138.7284 3333.0941 4138.7284 3498.4481 4042.2714 3498.4481 4042.2714 3333.0941 4138.7284 3333.0941" stroke-width="1"  stroke-linecap="round" fill="none" layerid="3" net="" id="gge1374" locked="0" /><polyline points="4059.9884 3363.8031 4059.9884 3387.4251 4050.1454 3387.4251 4050.1454 3363.8031 4059.9884 3363.8031" stroke-width="1"  stroke-linecap="round" fill="none" layerid="3" net="" id="gge1377" locked="0" /><polyline points="4117.0744 3373.6461 4117.0744 3411.0481 4079.6724 3411.0481 4079.6724 3373.6461 4117.0744 3373.6461" stroke-width="1"  stroke-linecap="round" fill="none" layerid="3" net="" id="gge1380" locked="0" /><polyline points="4095.4214 3432.7011 4095.4214 3460.2601 4059.9884 3460.2601 4059.9884 3432.7011 4095.4214 3432.7011" stroke-width="1"  stroke-linecap="round" fill="none" layerid="3" net="" id="gge1383" locked="0" /><polyline points="4113.1374 3436.6381 4113.1374 3437.0321 4095.4204 3437.0321 4095.4204 3436.6381 4113.1374 3436.6381" stroke-width="1"  stroke-linecap="round" fill="none" layerid="3" net="" id="gge1386" locked="0" /><polyline points="4113.1374 3440.5751 4113.1374 3440.9691 4095.4204 3440.9691 4095.4204 3440.5751 4113.1374 3440.5751" stroke-width="1"  stroke-linecap="round" fill="none" layerid="3" net="" id="gge1389" locked="0" /><polyline points="4113.1374 3444.1181 4113.1374 3444.5121 4095.4204 3444.5121 4095.4204 3444.1181 4113.1374 3444.1181" stroke-width="1"  stroke-linecap="round" fill="none" layerid="3" net="" id="gge1392" locked="0" /><polyline points="4113.1374 3447.6611 4113.1374 3448.0551 4095.4204 3448.0551 4095.4204 3447.6611 4113.1374 3447.6611" stroke-width="1"  stroke-linecap="round" fill="none" layerid="3" net="" id="gge1395" locked="0" /><polyline points="4113.1374 3451.5981 4113.1374 3451.9921 4095.4204 3451.9921 4095.4204 3451.5981 4113.1374 3451.5981" stroke-width="1"  stroke-linecap="round" fill="none" layerid="3" net="" id="gge1398" locked="0" /><polyline points="4113.1374 3455.5351 4113.1374 3455.9291 4095.4204 3455.9291 4095.4204 3455.5351 4113.1374 3455.5351" stroke-width="1"  stroke-linecap="round" fill="none" layerid="3" net="" id="gge1401" locked="0" /><polyline points="4119.02 3550.64 4125.7086 3550.64 4125.7086 3518.752 4118.6193 3518.752" stroke-width="1"  stroke-linecap="round" fill="none" layerid="3" net="" id="gge1527" locked="0" /><polyline points="4115.47 3550.64 4119.02 3550.64 4125.31 3544.34 4125.31 3524.66 4119.41 3518.75 4064.29 3518.75 4064.29 3550.64 4115.87 3550.64" stroke-width="1"  stroke-linecap="round" fill="none" layerid="3" net="" id="gge1530" locked="0" /><polyline points="4211 3465.5 4211 3450.5" stroke-width="1"  stroke-linecap="round" fill="none" layerid="3" net="" id="gge2418" locked="0" /><polyline points="4202 3299.5 4226 3299.5 4226 3291.5 4202 3291.5 4202 3299.5" stroke-width="1"  stroke-linecap="round" fill="none" layerid="3" net="" id="gge3138" locked="0" /><polyline points="4165.5 3347 4165.5 3371 4173.5 3371 4173.5 3347 4165.5 3347" stroke-width="1"  stroke-linecap="round" fill="none" layerid="3" net="" id="gge3333" locked="0" /><polyline points="4068.75 3313.75 4068.75 3288.25 4082.25 3288.25 4082.25 3313.75 4068.75 3313.75" stroke-width="1"  stroke-linecap="round" fill="none" layerid="3" net="" id="gge3462" locked="0" /><polyline points="4216.25 3311.25 4216.25 3336.75 4202.75 3336.75 4202.75 3311.25 4216.25 3311.25" stroke-width="1"  stroke-linecap="round" fill="none" layerid="3" net="" id="gge3513" locked="0" /><g c_partid="part_pcbtext" c_etype="" c_origin="4181.5,3259.5" c_rotation="90" c_mirror="" id="gge276" locked="0" layerid="3" c_shapetype="group" display="none"><path c_fontsize="4.5" c_fontfamily="" c_text="1N4148" d="M 4177.78 3259.5 L 4177.57 3259.09 L 4176.96 3258.48 L 4181.25 3258.48 M 4176.96 3257.13 L 4181.25 3257.13 M 4176.96 3257.13 L 4181.25 3254.26 M 4176.96 3254.26 L 4181.25 3254.26 M 4176.96 3250.87 L 4179.82 3252.91 L 4179.82 3249.85 M 4176.96 3250.87 L 4181.25 3250.87 M 4177.78 3248.5 L 4177.57 3248.09 L 4176.96 3247.47 L 4181.25 3247.47 M 4176.96 3244.08 L 4179.82 3246.12 L 4179.82 3243.05 M 4176.96 3244.08 L 4181.25 3244.08 M 4176.96 3240.68 L 4177.16 3241.3 L 4177.57 3241.5 L 4177.98 3241.5 L 4178.39 3241.3 L 4178.6 3240.89 L 4178.8 3240.07 L 4179 3239.45 L 4179.41 3239.05 L 4179.82 3238.84 L 4180.44 3238.84 L 4180.85 3239.05 L 4181.05 3239.25 L 4181.25 3239.86 L 4181.25 3240.68 L 4181.05 3241.3 L 4180.85 3241.5 L 4180.44 3241.7 L 4179.82 3241.7 L 4179.41 3241.5 L 4179 3241.09 L 4178.8 3240.48 L 4178.6 3239.66 L 4178.39 3239.25 L 4177.98 3239.05 L 4177.57 3239.05 L 4177.16 3239.25 L 4176.96 3239.86 L 4176.96 3240.68" fill="none"  stroke-width="0.6" c_note="note_name" /></g><g c_partid="part_pcbtext" c_etype="" c_origin="4188.5,3259.5" c_rotation="90" c_mirror="" id="gge282" locked="0" layerid="3" c_shapetype="group" ><path c_fontsize="4.5" c_fontfamily="" c_text="D1" d="M 4183.96 3259.5 L 4188.25 3259.5 M 4183.96 3259.5 L 4183.96 3258.07 L 4184.16 3257.45 L 4184.57 3257.05 L 4184.98 3256.84 L 4185.6 3256.64 L 4186.62 3256.64 L 4187.23 3256.84 L 4187.64 3257.05 L 4188.05 3257.45 L 4188.25 3258.07 L 4188.25 3259.5 M 4184.78 3255.29 L 4184.57 3254.88 L 4183.96 3254.26 L 4188.25 3254.26" fill="none"  stroke-width="0.6" c_note="note_pre" /></g><g c_partid="part_pcbtext" c_etype="" c_origin="3967,3261" c_rotation="90" c_mirror="" id="gge372" locked="0" layerid="3" c_shapetype="group" display="none"><path c_fontsize="4.5" c_fontfamily="" c_text="1N4148" d="M 3963.28 3261 L 3963.07 3260.59 L 3962.46 3259.98 L 3966.75 3259.98 M 3962.46 3258.63 L 3966.75 3258.63 M 3962.46 3258.63 L 3966.75 3255.76 M 3962.46 3255.76 L 3966.75 3255.76 M 3962.46 3252.37 L 3965.32 3254.41 L 3965.32 3251.35 M 3962.46 3252.37 L 3966.75 3252.37 M 3963.28 3250 L 3963.07 3249.59 L 3962.46 3248.97 L 3966.75 3248.97 M 3962.46 3245.58 L 3965.32 3247.62 L 3965.32 3244.55 M 3962.46 3245.58 L 3966.75 3245.58 M 3962.46 3242.18 L 3962.66 3242.8 L 3963.07 3243 L 3963.48 3243 L 3963.89 3242.8 L 3964.1 3242.39 L 3964.3 3241.57 L 3964.5 3240.95 L 3964.91 3240.55 L 3965.32 3240.34 L 3965.94 3240.34 L 3966.35 3240.55 L 3966.55 3240.75 L 3966.75 3241.36 L 3966.75 3242.18 L 3966.55 3242.8 L 3966.35 3243 L 3965.94 3243.2 L 3965.32 3243.2 L 3964.91 3243 L 3964.5 3242.59 L 3964.3 3241.98 L 3964.1 3241.16 L 3963.89 3240.75 L 3963.48 3240.55 L 3963.07 3240.55 L 3962.66 3240.75 L 3962.46 3241.36 L 3962.46 3242.18" fill="none"  stroke-width="0.6" c_note="note_name" /></g><g c_partid="part_pcbtext" c_etype="" c_origin="3974,3261" c_rotation="90" c_mirror="" id="gge378" locked="0" layerid="3" c_shapetype="group" ><path c_fontsize="4.5" c_fontfamily="" c_text="D2" d="M 3969.46 3261 L 3973.75 3261 M 3969.46 3261 L 3969.46 3259.57 L 3969.66 3258.95 L 3970.07 3258.55 L 3970.48 3258.34 L 3971.1 3258.14 L 3972.12 3258.14 L 3972.73 3258.34 L 3973.14 3258.55 L 3973.55 3258.95 L 3973.75 3259.57 L 3973.75 3261 M 3970.48 3256.58 L 3970.28 3256.58 L 3969.87 3256.38 L 3969.66 3256.17 L 3969.46 3255.76 L 3969.46 3254.95 L 3969.66 3254.54 L 3969.87 3254.33 L 3970.28 3254.13 L 3970.69 3254.13 L 3971.1 3254.33 L 3971.71 3254.74 L 3973.75 3256.79 L 3973.75 3253.92" fill="none"  stroke-width="0.6" c_note="note_pre" /></g><g c_partid="part_pcbtext" c_etype="" c_origin="4063.8,2946" c_rotation="0" c_mirror="" id="gge468" locked="0" layerid="3" c_shapetype="group" display="none"><path c_fontsize="4.5" c_fontfamily="" c_text="M03-SCREW-5MM" d="M 4063.8 2941.46 L 4063.8 2945.75 M 4063.8 2941.46 L 4065.44 2945.75 M 4067.07 2941.46 L 4065.44 2945.75 M 4067.07 2941.46 L 4067.07 2945.75 M 4069.65 2941.46 L 4069.04 2941.66 L 4068.63 2942.28 L 4068.42 2943.3 L 4068.42 2943.91 L 4068.63 2944.94 L 4069.04 2945.55 L 4069.65 2945.75 L 4070.06 2945.75 L 4070.67 2945.55 L 4071.08 2944.94 L 4071.29 2943.91 L 4071.29 2943.3 L 4071.08 2942.28 L 4070.67 2941.66 L 4070.06 2941.46 L 4069.65 2941.46 M 4073.05 2941.46 L 4075.3 2941.46 L 4074.07 2943.1 L 4074.68 2943.1 L 4075.09 2943.3 L 4075.3 2943.5 L 4075.5 2944.12 L 4075.5 2944.53 L 4075.3 2945.14 L 4074.89 2945.55 L 4074.27 2945.75 L 4073.66 2945.75 L 4073.05 2945.55 L 4072.84 2945.35 L 4072.64 2944.94 M 4076.85 2943.91 L 4080.53 2943.91 M 4084.75 2942.07 L 4084.34 2941.66 L 4083.72 2941.46 L 4082.9 2941.46 L 4082.29 2941.66 L 4081.88 2942.07 L 4081.88 2942.48 L 4082.09 2942.89 L 4082.29 2943.1 L 4082.7 2943.3 L 4083.93 2943.71 L 4084.34 2943.91 L 4084.54 2944.12 L 4084.75 2944.53 L 4084.75 2945.14 L 4084.34 2945.55 L 4083.72 2945.75 L 4082.9 2945.75 L 4082.29 2945.55 L 4081.88 2945.14 M 4089.16 2942.48 L 4088.96 2942.07 L 4088.55 2941.66 L 4088.14 2941.46 L 4087.32 2941.46 L 4086.91 2941.66 L 4086.5 2942.07 L 4086.3 2942.48 L 4086.1 2943.1 L 4086.1 2944.12 L 4086.3 2944.73 L 4086.5 2945.14 L 4086.91 2945.55 L 4087.32 2945.75 L 4088.14 2945.75 L 4088.55 2945.55 L 4088.96 2945.14 L 4089.16 2944.73 M 4090.51 2941.46 L 4090.51 2945.75 M 4090.51 2941.46 L 4092.35 2941.46 L 4092.97 2941.66 L 4093.17 2941.87 L 4093.38 2942.28 L 4093.38 2942.69 L 4093.17 2943.1 L 4092.97 2943.3 L 4092.35 2943.5 L 4090.51 2943.5 M 4091.95 2943.5 L 4093.38 2945.75 M 4094.73 2941.46 L 4094.73 2945.75 M 4094.73 2941.46 L 4097.39 2941.46 M 4094.73 2943.5 L 4096.36 2943.5 M 4094.73 2945.75 L 4097.39 2945.75 M 4098.74 2941.46 L 4099.76 2945.75 M 4100.78 2941.46 L 4099.76 2945.75 M 4100.78 2941.46 L 4101.8 2945.75 M 4102.83 2941.46 L 4101.8 2945.75 M 4104.18 2943.91 L 4107.86 2943.91 M 4111.66 2941.46 L 4109.62 2941.46 L 4109.41 2943.3 L 4109.62 2943.1 L 4110.23 2942.89 L 4110.85 2942.89 L 4111.46 2943.1 L 4111.87 2943.5 L 4112.07 2944.12 L 4112.07 2944.53 L 4111.87 2945.14 L 4111.46 2945.55 L 4110.85 2945.75 L 4110.23 2945.75 L 4109.62 2945.55 L 4109.41 2945.35 L 4109.21 2944.94 M 4113.42 2941.46 L 4113.42 2945.75 M 4113.42 2941.46 L 4115.06 2945.75 M 4116.7 2941.46 L 4115.06 2945.75 M 4116.7 2941.46 L 4116.7 2945.75 M 4118.05 2941.46 L 4118.05 2945.75 M 4118.05 2941.46 L 4119.68 2945.75 M 4121.32 2941.46 L 4119.68 2945.75 M 4121.32 2941.46 L 4121.32 2945.75" fill="none"  stroke-width="0.6" c_note="note_name" /></g><g c_partid="part_pcbtext" c_etype="" c_origin="4063.8,2953" c_rotation="0" c_mirror="" id="gge474" locked="0" layerid="3" c_shapetype="group" ><path c_fontsize="4.5" c_fontfamily="" c_text="JP1" d="M 4065.85 2948.46 L 4065.85 2951.73 L 4065.64 2952.35 L 4065.44 2952.55 L 4065.03 2952.75 L 4064.62 2952.75 L 4064.21 2952.55 L 4064 2952.35 L 4063.8 2951.73 L 4063.8 2951.32 M 4067.2 2948.46 L 4067.2 2952.75 M 4067.2 2948.46 L 4069.04 2948.46 L 4069.65 2948.66 L 4069.85 2948.87 L 4070.06 2949.28 L 4070.06 2949.89 L 4069.85 2950.3 L 4069.65 2950.5 L 4069.04 2950.71 L 4067.2 2950.71 M 4071.41 2949.28 L 4071.82 2949.07 L 4072.43 2948.46 L 4072.43 2952.75" fill="none"  stroke-width="0.6" c_note="note_pre" /></g><g c_partid="part_pcbtext" c_etype="" c_origin="4236,3118" c_rotation="270" c_mirror="" id="gge1134" locked="0" layerid="3" c_shapetype="group" display="none"><path c_fontsize="4.5" c_fontfamily="" c_text="Step_Down_Transformer" d="M 4239.93 3120.86 L 4240.34 3120.45 L 4240.54 3119.84 L 4240.54 3119.02 L 4240.34 3118.41 L 4239.93 3118 L 4239.52 3118 L 4239.11 3118.2 L 4238.9 3118.41 L 4238.7 3118.82 L 4238.29 3120.05 L 4238.09 3120.45 L 4237.88 3120.66 L 4237.47 3120.86 L 4236.86 3120.86 L 4236.45 3120.45 L 4236.25 3119.84 L 4236.25 3119.02 L 4236.45 3118.41 L 4236.86 3118 M 4240.54 3122.83 L 4237.06 3122.83 L 4236.45 3123.03 L 4236.25 3123.44 L 4236.25 3123.85 M 4239.11 3122.21 L 4239.11 3123.65 M 4237.88 3125.2 L 4237.88 3127.65 L 4238.29 3127.65 L 4238.7 3127.45 L 4238.9 3127.25 L 4239.11 3126.84 L 4239.11 3126.22 L 4238.9 3125.81 L 4238.5 3125.4 L 4237.88 3125.2 L 4237.47 3125.2 L 4236.86 3125.4 L 4236.45 3125.81 L 4236.25 3126.22 L 4236.25 3126.84 L 4236.45 3127.25 L 4236.86 3127.65 M 4239.11 3129 L 4234.81 3129 M 4238.5 3129 L 4238.9 3129.41 L 4239.11 3129.82 L 4239.11 3130.44 L 4238.9 3130.85 L 4238.5 3131.25 L 4237.88 3131.46 L 4237.47 3131.46 L 4236.86 3131.25 L 4236.45 3130.85 L 4236.25 3130.44 L 4236.25 3129.82 L 4236.45 3129.41 L 4236.86 3129 M 4234.81 3132.81 L 4234.81 3136.49 M 4240.54 3137.84 L 4236.25 3137.84 M 4240.54 3137.84 L 4240.54 3139.27 L 4240.34 3139.89 L 4239.93 3140.3 L 4239.52 3140.5 L 4238.9 3140.7 L 4237.88 3140.7 L 4237.27 3140.5 L 4236.86 3140.3 L 4236.45 3139.89 L 4236.25 3139.27 L 4236.25 3137.84 M 4239.11 3143.08 L 4238.9 3142.67 L 4238.5 3142.26 L 4237.88 3142.05 L 4237.47 3142.05 L 4236.86 3142.26 L 4236.45 3142.67 L 4236.25 3143.08 L 4236.25 3143.69 L 4236.45 3144.1 L 4236.86 3144.51 L 4237.47 3144.71 L 4237.88 3144.71 L 4238.5 3144.51 L 4238.9 3144.1 L 4239.11 3143.69 L 4239.11 3143.08 M 4239.11 3146.06 L 4236.25 3146.88 M 4239.11 3147.7 L 4236.25 3146.88 M 4239.11 3147.7 L 4236.25 3148.52 M 4239.11 3149.34 L 4236.25 3148.52 M 4239.11 3150.69 L 4236.25 3150.69 M 4238.29 3150.69 L 4238.9 3151.3 L 4239.11 3151.71 L 4239.11 3152.32 L 4238.9 3152.73 L 4238.29 3152.94 L 4236.25 3152.94 M 4234.81 3154.29 L 4234.81 3157.97 M 4240.54 3160.75 L 4236.25 3160.75 M 4240.54 3159.32 L 4240.54 3162.18 M 4239.11 3163.53 L 4236.25 3163.53 M 4237.88 3163.53 L 4238.5 3163.74 L 4238.9 3164.15 L 4239.11 3164.55 L 4239.11 3165.17 M 4239.11 3168.97 L 4236.25 3168.97 M 4238.5 3168.97 L 4238.9 3168.56 L 4239.11 3168.15 L 4239.11 3167.54 L 4238.9 3167.13 L 4238.5 3166.72 L 4237.88 3166.52 L 4237.47 3166.52 L 4236.86 3166.72 L 4236.45 3167.13 L 4236.25 3167.54 L 4236.25 3168.15 L 4236.45 3168.56 L 4236.86 3168.97 M 4239.11 3170.32 L 4236.25 3170.32 M 4238.29 3170.32 L 4238.9 3170.94 L 4239.11 3171.35 L 4239.11 3171.96 L 4238.9 3172.37 L 4238.29 3172.57 L 4236.25 3172.57 M 4238.5 3176.17 L 4238.9 3175.97 L 4239.11 3175.35 L 4239.11 3174.74 L 4238.9 3174.13 L 4238.5 3173.92 L 4238.09 3174.13 L 4237.88 3174.54 L 4237.68 3175.56 L 4237.47 3175.97 L 4237.06 3176.17 L 4236.86 3176.17 L 4236.45 3175.97 L 4236.25 3175.35 L 4236.25 3174.74 L 4236.45 3174.13 L 4236.86 3173.92 M 4240.54 3179.16 L 4240.54 3178.75 L 4240.34 3178.34 L 4239.72 3178.14 L 4236.25 3178.14 M 4239.11 3177.52 L 4239.11 3178.95 M 4239.11 3181.53 L 4238.9 3181.12 L 4238.5 3180.71 L 4237.88 3180.51 L 4237.47 3180.51 L 4236.86 3180.71 L 4236.45 3181.12 L 4236.25 3181.53 L 4236.25 3182.15 L 4236.45 3182.55 L 4236.86 3182.96 L 4237.47 3183.17 L 4237.88 3183.17 L 4238.5 3182.96 L 4238.9 3182.55 L 4239.11 3182.15 L 4239.11 3181.53 M 4239.11 3184.52 L 4236.25 3184.52 M 4237.88 3184.52 L 4238.5 3184.72 L 4238.9 3185.13 L 4239.11 3185.54 L 4239.11 3186.15 M 4239.11 3187.5 L 4236.25 3187.5 M 4238.29 3187.5 L 4238.9 3188.12 L 4239.11 3188.53 L 4239.11 3189.14 L 4238.9 3189.55 L 4238.29 3189.75 L 4236.25 3189.75 M 4238.29 3189.75 L 4238.9 3190.37 L 4239.11 3190.78 L 4239.11 3191.39 L 4238.9 3191.8 L 4238.29 3192 L 4236.25 3192 M 4237.88 3193.35 L 4237.88 3195.81 L 4238.29 3195.81 L 4238.7 3195.6 L 4238.9 3195.4 L 4239.11 3194.99 L 4239.11 3194.38 L 4238.9 3193.97 L 4238.5 3193.56 L 4237.88 3193.35 L 4237.47 3193.35 L 4236.86 3193.56 L 4236.45 3193.97 L 4236.25 3194.38 L 4236.25 3194.99 L 4236.45 3195.4 L 4236.86 3195.81 M 4239.11 3197.16 L 4236.25 3197.16 M 4237.88 3197.16 L 4238.5 3197.36 L 4238.9 3197.77 L 4239.11 3198.18 L 4239.11 3198.8" fill="none"  stroke-width="0.6" c_note="note_name" /></g><g c_partid="part_pcbtext" c_etype="" c_origin="4229,3118" c_rotation="270" c_mirror="" id="gge1140" locked="0" layerid="3" c_shapetype="group" ><path c_fontsize="4.5" c_fontfamily="" c_text="U1" d="M 4233.54 3118 L 4230.47 3118 L 4229.86 3118.2 L 4229.45 3118.61 L 4229.25 3119.23 L 4229.25 3119.64 L 4229.45 3120.25 L 4229.86 3120.66 L 4230.47 3120.86 L 4233.54 3120.86 M 4232.72 3122.21 L 4232.93 3122.62 L 4233.54 3123.24 L 4229.25 3123.24" fill="none"  stroke-width="0.6" c_note="note_pre" /></g><g c_partid="part_pcbtext" c_etype="pinpart" c_origin="4113,3069" c_rotation="180" c_mirror="0" id="gge1245" locked="0" layerid="3" c_shapetype="group" ><path c_fontsize="11.811" c_fontfamily="" c_text="Primary" d="M 4113 3080.9201 L 4113 3069.6401 M 4113 3080.9201 L 4108.17 3080.9201 L 4106.56 3080.3801 L 4106.02 3079.8401 L 4105.48 3078.7701 L 4105.48 3077.1601 L 4106.02 3076.0901 L 4106.56 3075.5501 L 4108.17 3075.0101 L 4113 3075.0101 M 4101.94 3077.1601 L 4101.94 3069.6401 M 4101.94 3073.9401 L 4101.4 3075.5501 L 4100.33 3076.6201 L 4099.26 3077.1601 L 4097.65 3077.1601 M 4094.1 3080.9201 L 4093.57 3080.3801 L 4093.03 3080.9201 L 4093.57 3081.4601 L 4094.1 3080.9201 M 4093.57 3077.1601 L 4093.57 3069.6401 M 4089.49 3077.1601 L 4089.49 3069.6401 M 4089.49 3075.0101 L 4087.87 3076.6201 L 4086.8 3077.1601 L 4085.19 3077.1601 L 4084.12 3076.6201 L 4083.58 3075.0101 L 4083.58 3069.6401 M 4083.58 3075.0101 L 4081.97 3076.6201 L 4080.9 3077.1601 L 4079.28 3077.1601 L 4078.21 3076.6201 L 4077.67 3075.0101 L 4077.67 3069.6401 M 4067.69 3077.1601 L 4067.69 3069.6401 M 4067.69 3075.5501 L 4068.76 3076.6201 L 4069.84 3077.1601 L 4071.45 3077.1601 L 4072.52 3076.6201 L 4073.59 3075.5501 L 4074.13 3073.9401 L 4074.13 3072.8701 L 4073.59 3071.2501 L 4072.52 3070.1801 L 4071.45 3069.6401 L 4069.84 3069.6401 L 4068.76 3070.1801 L 4067.69 3071.2501 M 4064.15 3077.1601 L 4064.15 3069.6401 M 4064.15 3073.9401 L 4063.61 3075.5501 L 4062.53 3076.6201 L 4061.46 3077.1601 L 4059.85 3077.1601 M 4055.77 3077.1601 L 4052.55 3069.6401 M 4049.33 3077.1601 L 4052.55 3069.6401 L 4053.62 3067.5001 L 4054.7 3066.4201 L 4055.77 3065.8901 L 4056.31 3065.8901" fill="none"  stroke-width="0.8"  /></g><g c_partid="part_pcbtext" c_etype="pinpart" c_origin="4133,3019" c_rotation="270" c_mirror="0" id="gge1251" locked="0" layerid="3" c_shapetype="group" ><path c_fontsize="8" c_fontfamily="" c_text="IN1" d="M 4141.0699 3018.9999 L 4133.4399 3018.9999 M 4141.0699 3021.3999 L 4133.4399 3021.3999 M 4141.0699 3021.3999 L 4133.4399 3026.4899 M 4141.0699 3026.4899 L 4133.4399 3026.4899 M 4139.6199 3028.8899 L 4139.9799 3029.6199 L 4141.0699 3030.7099 L 4133.4399 3030.7099" fill="none"  stroke-width="0.8"  /></g><g c_partid="part_pcbtext" c_etype="pinpart" c_origin="4023,3019" c_rotation="270" c_mirror="0" id="gge1257" locked="0" layerid="3" c_shapetype="group" ><path c_fontsize="8" c_fontfamily="" c_text="IN2" d="M 4031.07 3018.9999 L 4023.44 3018.9999 M 4031.07 3021.3999 L 4023.44 3021.3999 M 4031.07 3021.3999 L 4023.44 3026.4899 M 4031.07 3026.4899 L 4023.44 3026.4899 M 4029.25 3029.2499 L 4029.62 3029.2499 L 4030.35 3029.6199 L 4030.71 3029.9799 L 4031.07 3030.7099 L 4031.07 3032.1599 L 4030.71 3032.8899 L 4030.35 3033.2499 L 4029.62 3033.6199 L 4028.89 3033.6199 L 4028.16 3033.2499 L 4027.07 3032.5299 L 4023.44 3028.8899 L 4023.44 3033.9799" fill="none"  stroke-width="0.8"  /></g><g c_partid="part_pcbtext" c_etype="pinpart" c_origin="4133,3209" c_rotation="270" c_mirror="0" id="gge1263" locked="0" layerid="3" c_shapetype="group" ><path c_fontsize="8" c_fontfamily="" c_text="T1" d="M 4141.07 3211.5501 L 4133.44 3211.5501 M 4141.07 3209.0001 L 4141.07 3214.0901 M 4139.62 3216.4901 L 4139.98 3217.2201 L 4141.07 3218.3101 L 4133.44 3218.3101" fill="none"  stroke-width="0.8"  /></g><g c_partid="part_pcbtext" c_etype="pinpart" c_origin="4093,3209" c_rotation="270" c_mirror="0" id="gge1269" locked="0" layerid="3" c_shapetype="group" ><path c_fontsize="8" c_fontfamily="" c_text="T2" d="M 4101.07 3211.5502 L 4093.44 3211.5502 M 4101.07 3209.0002 L 4101.07 3214.0902 M 4099.25 3216.8502 L 4099.62 3216.8502 L 4100.35 3217.2202 L 4100.71 3217.5802 L 4101.07 3218.3102 L 4101.07 3219.7602 L 4100.71 3220.4902 L 4100.35 3220.8502 L 4099.62 3221.2202 L 4098.89 3221.2202 L 4098.16 3220.8502 L 4097.07 3220.1302 L 4093.44 3216.4902 L 4093.44 3221.5802" fill="none"  stroke-width="0.8"  /></g><g c_partid="part_pcbtext" c_etype="pinpart" c_origin="4053,3209" c_rotation="270" c_mirror="0" id="gge1275" locked="0" layerid="3" c_shapetype="group" ><path c_fontsize="8" c_fontfamily="" c_text="T3" d="M 4061.0699 3211.5502 L 4053.4399 3211.5502 M 4061.0699 3209.0002 L 4061.0699 3214.0902 M 4061.0699 3217.2202 L 4061.0699 3221.2202 L 4058.1599 3219.0402 L 4058.1599 3220.1302 L 4057.7999 3220.8502 L 4057.4399 3221.2202 L 4056.3499 3221.5802 L 4055.6199 3221.5802 L 4054.5299 3221.2202 L 4053.7999 3220.4902 L 4053.4399 3219.4002 L 4053.4399 3218.3102 L 4053.7999 3217.2202 L 4054.1599 3216.8502 L 4054.8899 3216.4902" fill="none"  stroke-width="0.8"  /></g><g c_partid="part_pcbtext" c_etype="" c_origin="4146.7284,3415.3071" c_rotation="270" c_mirror="" id="gge1362" locked="0" layerid="3" c_shapetype="group" display="none"><path c_fontsize="4.5" c_fontfamily="" c_text="BUCKCONVERTER" d="M 4151.2684 3415.3071 L 4146.9784 3415.3071 M 4151.2684 3415.3071 L 4151.2684 3417.1471 L 4151.0684 3417.7571 L 4150.8584 3417.9671 L 4150.4484 3418.1671 L 4150.0384 3418.1671 L 4149.6284 3417.9671 L 4149.4284 3417.7571 L 4149.2284 3417.1471 M 4149.2284 3415.3071 L 4149.2284 3417.1471 L 4149.0184 3417.7571 L 4148.8184 3417.9671 L 4148.4084 3418.1671 L 4147.7884 3418.1671 L 4147.3784 3417.9671 L 4147.1784 3417.7571 L 4146.9784 3417.1471 L 4146.9784 3415.3071 M 4151.2684 3419.5171 L 4148.1984 3419.5171 L 4147.5884 3419.7271 L 4147.1784 3420.1371 L 4146.9784 3420.7471 L 4146.9784 3421.1571 L 4147.1784 3421.7671 L 4147.5884 3422.1771 L 4148.1984 3422.3871 L 4151.2684 3422.3871 M 4150.2484 3426.8071 L 4150.6584 3426.5971 L 4151.0684 3426.1871 L 4151.2684 3425.7771 L 4151.2684 3424.9571 L 4151.0684 3424.5571 L 4150.6584 3424.1471 L 4150.2484 3423.9371 L 4149.6284 3423.7371 L 4148.6084 3423.7371 L 4147.9984 3423.9371 L 4147.5884 3424.1471 L 4147.1784 3424.5571 L 4146.9784 3424.9571 L 4146.9784 3425.7771 L 4147.1784 3426.1871 L 4147.5884 3426.5971 L 4147.9984 3426.8071 M 4151.2684 3428.1571 L 4146.9784 3428.1571 M 4151.2684 3431.0171 L 4148.4084 3428.1571 M 4149.4284 3429.1771 L 4146.9784 3431.0171 M 4150.2484 3435.4371 L 4150.6584 3435.2271 L 4151.0684 3434.8171 L 4151.2684 3434.4071 L 4151.2684 3433.5971 L 4151.0684 3433.1871 L 4150.6584 3432.7771 L 4150.2484 3432.5671 L 4149.6284 3432.3671 L 4148.6084 3432.3671 L 4147.9984 3432.5671 L 4147.5884 3432.7771 L 4147.1784 3433.1871 L 4146.9784 3433.5971 L 4146.9784 3434.4071 L 4147.1784 3434.8171 L 4147.5884 3435.2271 L 4147.9984 3435.4371 M 4151.2684 3438.0071 L 4151.0684 3437.6071 L 4150.6584 3437.1971 L 4150.2484 3436.9871 L 4149.6284 3436.7871 L 4148.6084 3436.7871 L 4147.9984 3436.9871 L 4147.5884 3437.1971 L 4147.1784 3437.6071 L 4146.9784 3438.0071 L 4146.9784 3438.8271 L 4147.1784 3439.2371 L 4147.5884 3439.6471 L 4147.9984 3439.8571 L 4148.6084 3440.0571 L 4149.6284 3440.0571 L 4150.2484 3439.8571 L 4150.6584 3439.6471 L 4151.0684 3439.2371 L 4151.2684 3438.8271 L 4151.2684 3438.0071 M 4151.2684 3441.4071 L 4146.9784 3441.4071 M 4151.2684 3441.4071 L 4146.9784 3444.2671 M 4151.2684 3444.2671 L 4146.9784 3444.2671 M 4151.2684 3445.6171 L 4146.9784 3447.2571 M 4151.2684 3448.8971 L 4146.9784 3447.2571 M 4151.2684 3450.2471 L 4146.9784 3450.2471 M 4151.2684 3450.2471 L 4151.2684 3452.9071 M 4149.2284 3450.2471 L 4149.2284 3451.8771 M 4146.9784 3450.2471 L 4146.9784 3452.9071 M 4151.2684 3454.2571 L 4146.9784 3454.2571 M 4151.2684 3454.2571 L 4151.2684 3456.0971 L 4151.0684 3456.7071 L 4150.8584 3456.9071 L 4150.4484 3457.1171 L 4150.0384 3457.1171 L 4149.6284 3456.9071 L 4149.4284 3456.7071 L 4149.2284 3456.0971 L 4149.2284 3454.2571 M 4149.2284 3455.6871 L 4146.9784 3457.1171 M 4151.2684 3459.8971 L 4146.9784 3459.8971 M 4151.2684 3458.4671 L 4151.2684 3461.3271 M 4151.2684 3462.6771 L 4146.9784 3462.6771 M 4151.2684 3462.6771 L 4151.2684 3465.3371 M 4149.2284 3462.6771 L 4149.2284 3464.3171 M 4146.9784 3462.6771 L 4146.9784 3465.3371 M 4151.2684 3466.6871 L 4146.9784 3466.6871 M 4151.2684 3466.6871 L 4151.2684 3468.5271 L 4151.0684 3469.1471 L 4150.8584 3469.3471 L 4150.4484 3469.5571 L 4150.0384 3469.5571 L 4149.6284 3469.3471 L 4149.4284 3469.1471 L 4149.2284 3468.5271 L 4149.2284 3466.6871 M 4149.2284 3468.1171 L 4146.9784 3469.5571" fill="none"  stroke-width="0.6" c_note="note_name" /></g><g c_partid="part_pcbtext" c_etype="" c_origin="4139.7284,3415.3071" c_rotation="270" c_mirror="" id="gge1368" locked="0" layerid="3" c_shapetype="group" ><path c_fontsize="4.5" c_fontfamily="" c_text="U2" d="M 4144.2684 3415.3071 L 4141.1984 3415.3071 L 4140.5884 3415.5071 L 4140.1784 3415.9171 L 4139.9784 3416.5371 L 4139.9784 3416.9471 L 4140.1784 3417.5571 L 4140.5884 3417.9671 L 4141.1984 3418.1671 L 4144.2684 3418.1671 M 4143.2484 3419.7271 L 4143.4484 3419.7271 L 4143.8584 3419.9271 L 4144.0684 3420.1371 L 4144.2684 3420.5471 L 4144.2684 3421.3571 L 4144.0684 3421.7671 L 4143.8584 3421.9771 L 4143.4484 3422.1771 L 4143.0384 3422.1771 L 4142.6284 3421.9771 L 4142.0184 3421.5671 L 4139.9784 3419.5171 L 4139.9784 3422.3871" fill="none"  stroke-width="0.6" c_note="note_pre" /></g><g c_partid="part_pcbtext" c_etype="" c_origin="4052.1144,3342.1501" c_rotation="270" c_mirror="0" id="gge1470" locked="0" layerid="3" c_shapetype="group" ><path c_fontsize="8" c_fontfamily="NotoSansCJKjp-DemiLight" c_text="In-" d="M 4052.8229 3342.1271 L 4052.8229 3342.7871 L 4058.6829 3342.7871 L 4058.6829 3342.1271 Z  M 4052.8229 3344.3671 L 4052.8229 3345.0071 L 4055.9829 3345.0071 C 4056.4429 3345.4571 4056.6829 3345.7871 4056.6829 3346.2471 C 4056.6829 3346.8471 4056.3229 3347.0971 4055.4829 3347.0971 L 4052.8229 3347.0971 L 4052.8229 3347.7571 L 4055.5629 3347.7571 C 4056.6729 3347.7571 4057.2529 3347.3371 4057.2529 3346.4371 C 4057.2529 3345.8471 4056.9229 3345.3971 4056.5129 3344.9771 L 4056.5129 3344.9571 L 4057.1429 3344.8871 L 4057.1429 3344.3671 Z  M 4054.8029 3348.8071 L 4054.8029 3350.8371 L 4055.3129 3350.8371 L 4055.3129 3348.8071 Z "  stroke="none" stroke-width="0.8"  /></g><g c_partid="part_pcbtext" c_etype="" c_origin="4122.9804,3342.1501" c_rotation="270" c_mirror="0" id="gge1476" locked="0" layerid="3" c_shapetype="group" ><path c_fontsize="8" c_fontfamily="NotoSansCJKjp-DemiLight" c_text="In+" d="M 4123.7286 3342.1271 L 4123.7286 3342.7871 L 4129.5886 3342.7871 L 4129.5886 3342.1271 Z  M 4123.7286 3344.3671 L 4123.7286 3345.0071 L 4126.8886 3345.0071 C 4127.3486 3345.4571 4127.5886 3345.7871 4127.5886 3346.2471 C 4127.5886 3346.8471 4127.2286 3347.0971 4126.3886 3347.0971 L 4123.7286 3347.0971 L 4123.7286 3347.7571 L 4126.4686 3347.7571 C 4127.5786 3347.7571 4128.1586 3347.3371 4128.1586 3346.4371 C 4128.1586 3345.8471 4127.8286 3345.3971 4127.4186 3344.9771 L 4127.4186 3344.9571 L 4128.0486 3344.8871 L 4128.0486 3344.3671 Z  M 4124.6686 3350.3671 L 4124.6686 3350.9071 L 4126.4286 3350.9071 L 4126.4286 3352.5271 L 4126.9086 3352.5271 L 4126.9086 3350.9071 L 4128.6686 3350.9071 L 4128.6686 3350.3671 L 4126.9086 3350.3671 L 4126.9086 3348.7471 L 4126.4286 3348.7471 L 4126.4286 3350.3671 Z "  stroke="none" stroke-width="0.8"  /></g><g c_partid="part_pcbtext" c_etype="" c_origin="4052.1144,3473.1941" c_rotation="270" c_mirror="0" id="gge1482" locked="0" layerid="3" c_shapetype="group" ><path c_fontsize="8" c_fontfamily="NotoSansCJKjp-DemiLight" c_text="Out-" d="M 4052.723 3475.2446 C 4052.723 3476.7046 4053.903 3477.7246 4055.773 3477.7246 C 4057.643 3477.7246 4058.783 3476.7046 4058.783 3475.2446 C 4058.783 3473.8046 4057.643 3472.7746 4055.773 3472.7746 C 4053.903 3472.7746 4052.723 3473.8046 4052.723 3475.2446 Z  M 4053.303 3475.2446 C 4053.303 3474.1646 4054.273 3473.4546 4055.773 3473.4546 C 4057.273 3473.4546 4058.203 3474.1646 4058.203 3475.2446 C 4058.203 3476.3346 4057.273 3477.0446 4055.773 3477.0446 C 4054.273 3477.0446 4053.303 3476.3346 4053.303 3475.2446 Z  M 4052.723 3480.2046 C 4052.723 3480.8046 4053.043 3481.2446 4053.513 3481.6446 L 4053.513 3481.6746 L 4052.823 3481.7246 L 4052.823 3482.2646 L 4057.143 3482.2646 L 4057.143 3481.6146 L 4054.043 3481.6146 C 4053.523 3481.1846 4053.283 3480.8546 4053.283 3480.4046 C 4053.283 3479.7946 4053.643 3479.5446 4054.483 3479.5446 L 4057.143 3479.5446 L 4057.143 3478.8946 L 4054.403 3478.8946 C 4053.293 3478.8946 4052.723 3479.3046 4052.723 3480.2046 Z  M 4052.723 3485.0846 C 4052.723 3485.3246 4052.803 3485.6146 4052.883 3485.8546 L 4053.363 3485.7246 C 4053.313 3485.5846 4053.253 3485.3846 4053.253 3485.2246 C 4053.253 3484.7046 4053.573 3484.5446 4054.103 3484.5446 L 4056.603 3484.5446 L 4056.603 3485.7346 L 4057.143 3485.7346 L 4057.143 3484.5446 L 4058.363 3484.5446 L 4058.363 3483.9946 L 4057.143 3483.9246 L 4057.103 3483.2446 L 4056.603 3483.2446 L 4056.603 3483.8946 L 4054.123 3483.8946 C 4053.283 3483.8946 4052.723 3484.1846 4052.723 3485.0846 Z  M 4054.803 3486.1146 L 4054.803 3488.1346 L 4055.313 3488.1346 L 4055.313 3486.1146 Z "  stroke="none" stroke-width="0.8"  /></g><g c_partid="part_pcbtext" c_etype="" c_origin="4122.9804,3474.0391" c_rotation="270" c_mirror="0" id="gge1488" locked="0" layerid="3" c_shapetype="group" ><path c_fontsize="8" c_fontfamily="NotoSansCJKjp-DemiLight" c_text="Out+" d="M 4123.6286 3476.0896 C 4123.6286 3477.5496 4124.8086 3478.5696 4126.6786 3478.5696 C 4128.5486 3478.5696 4129.6886 3477.5496 4129.6886 3476.0896 C 4129.6886 3474.6496 4128.5486 3473.6196 4126.6786 3473.6196 C 4124.8086 3473.6196 4123.6286 3474.6496 4123.6286 3476.0896 Z  M 4124.2086 3476.0896 C 4124.2086 3475.0096 4125.1786 3474.2996 4126.6786 3474.2996 C 4128.1786 3474.2996 4129.1086 3475.0096 4129.1086 3476.0896 C 4129.1086 3477.1796 4128.1786 3477.8896 4126.6786 3477.8896 C 4125.1786 3477.8896 4124.2086 3477.1796 4124.2086 3476.0896 Z  M 4123.6286 3481.0496 C 4123.6286 3481.6496 4123.9486 3482.0896 4124.4186 3482.4896 L 4124.4186 3482.5196 L 4123.7286 3482.5696 L 4123.7286 3483.1096 L 4128.0486 3483.1096 L 4128.0486 3482.4596 L 4124.9486 3482.4596 C 4124.4286 3482.0296 4124.1886 3481.6996 4124.1886 3481.2496 C 4124.1886 3480.6396 4124.5486 3480.3896 4125.3886 3480.3896 L 4128.0486 3480.3896 L 4128.0486 3479.7396 L 4125.3086 3479.7396 C 4124.1986 3479.7396 4123.6286 3480.1496 4123.6286 3481.0496 Z  M 4123.6286 3485.9296 C 4123.6286 3486.1696 4123.7086 3486.4596 4123.7886 3486.6996 L 4124.2686 3486.5696 C 4124.2186 3486.4296 4124.1586 3486.2296 4124.1586 3486.0696 C 4124.1586 3485.5496 4124.4786 3485.3896 4125.0086 3485.3896 L 4127.5086 3485.3896 L 4127.5086 3486.5796 L 4128.0486 3486.5796 L 4128.0486 3485.3896 L 4129.2686 3485.3896 L 4129.2686 3484.8396 L 4128.0486 3484.7696 L 4128.0086 3484.0896 L 4127.5086 3484.0896 L 4127.5086 3484.7396 L 4125.0286 3484.7396 C 4124.1886 3484.7396 4123.6286 3485.0296 4123.6286 3485.9296 Z  M 4124.6686 3488.7396 L 4124.6686 3489.2796 L 4126.4286 3489.2796 L 4126.4286 3490.8996 L 4126.9086 3490.8996 L 4126.9086 3489.2796 L 4128.6686 3489.2796 L 4128.6686 3488.7396 L 4126.9086 3488.7396 L 4126.9086 3487.1196 L 4126.4286 3487.1196 L 4126.4286 3488.7396 Z "  stroke="none" stroke-width="0.8"  /></g><g c_partid="part_pcbtext" c_etype="" c_origin="4095,3559.5" c_rotation="180" c_mirror="" id="gge1500" locked="0" layerid="3" c_shapetype="group" display="none"><path c_fontsize="4.5" c_fontfamily="" c_text="XT60" d="M 4095 3564.04 L 4092.14 3559.75 M 4092.14 3564.04 L 4095 3559.75 M 4089.35 3564.04 L 4089.35 3559.75 M 4090.79 3564.04 L 4087.92 3564.04 M 4084.12 3563.43 L 4084.32 3563.84 L 4084.94 3564.04 L 4085.35 3564.04 L 4085.96 3563.84 L 4086.37 3563.22 L 4086.57 3562.2 L 4086.57 3561.18 L 4086.37 3560.36 L 4085.96 3559.95 L 4085.35 3559.75 L 4085.14 3559.75 L 4084.53 3559.95 L 4084.12 3560.36 L 4083.91 3560.97 L 4083.91 3561.18 L 4084.12 3561.79 L 4084.53 3562.2 L 4085.14 3562.4 L 4085.35 3562.4 L 4085.96 3562.2 L 4086.37 3561.79 L 4086.57 3561.18 M 4081.34 3564.04 L 4081.95 3563.84 L 4082.36 3563.22 L 4082.56 3562.2 L 4082.56 3561.59 L 4082.36 3560.56 L 4081.95 3559.95 L 4081.34 3559.75 L 4080.93 3559.75 L 4080.31 3559.95 L 4079.9 3560.56 L 4079.7 3561.59 L 4079.7 3562.2 L 4079.9 3563.22 L 4080.31 3563.84 L 4080.93 3564.04 L 4081.34 3564.04" fill="none"  stroke-width="0.6" c_note="note_name" /></g><g c_partid="part_pcbtext" c_etype="" c_origin="4095,3552.5" c_rotation="180" c_mirror="" id="gge1506" locked="0" layerid="3" c_shapetype="group" ><path c_fontsize="4.5" c_fontfamily="" c_text="U3" d="M 4095 3557.04 L 4095 3553.97 L 4094.8 3553.36 L 4094.39 3552.95 L 4093.77 3552.75 L 4093.36 3552.75 L 4092.75 3552.95 L 4092.34 3553.36 L 4092.14 3553.97 L 4092.14 3557.04 M 4090.38 3557.04 L 4088.13 3557.04 L 4089.35 3555.4 L 4088.74 3555.4 L 4088.33 3555.2 L 4088.13 3555 L 4087.92 3554.38 L 4087.92 3553.97 L 4088.13 3553.36 L 4088.54 3552.95 L 4089.15 3552.75 L 4089.76 3552.75 L 4090.38 3552.95 L 4090.58 3553.15 L 4090.79 3553.56" fill="none"  stroke-width="0.6" c_note="note_pre" /></g><g c_partid="part_pcbtext" c_etype="" c_origin="4199,3437" c_rotation="0" c_mirror="" id="gge2406" locked="0" layerid="3" c_shapetype="group" display="none"><path c_fontsize="4.5" c_fontfamily="" c_text="LED5MM" d="M 4199 3432.46 L 4199 3436.75 M 4199 3436.75 L 4201.45 3436.75 M 4202.8 3432.46 L 4202.8 3436.75 M 4202.8 3432.46 L 4205.46 3432.46 M 4202.8 3434.5 L 4204.44 3434.5 M 4202.8 3436.75 L 4205.46 3436.75 M 4206.81 3432.46 L 4206.81 3436.75 M 4206.81 3432.46 L 4208.25 3432.46 L 4208.86 3432.66 L 4209.27 3433.07 L 4209.47 3433.48 L 4209.68 3434.1 L 4209.68 3435.12 L 4209.47 3435.73 L 4209.27 3436.14 L 4208.86 3436.55 L 4208.25 3436.75 L 4206.81 3436.75 M 4213.48 3432.46 L 4211.44 3432.46 L 4211.23 3434.3 L 4211.44 3434.1 L 4212.05 3433.89 L 4212.66 3433.89 L 4213.28 3434.1 L 4213.69 3434.5 L 4213.89 3435.12 L 4213.89 3435.53 L 4213.69 3436.14 L 4213.28 3436.55 L 4212.66 3436.75 L 4212.05 3436.75 L 4211.44 3436.55 L 4211.23 3436.35 L 4211.03 3435.94 M 4215.24 3432.46 L 4215.24 3436.75 M 4215.24 3432.46 L 4216.88 3436.75 M 4218.51 3432.46 L 4216.88 3436.75 M 4218.51 3432.46 L 4218.51 3436.75 M 4219.86 3432.46 L 4219.86 3436.75 M 4219.86 3432.46 L 4221.5 3436.75 M 4223.14 3432.46 L 4221.5 3436.75 M 4223.14 3432.46 L 4223.14 3436.75" fill="none"  stroke-width="0.6" c_note="note_name" /></g><g c_partid="part_pcbtext" c_etype="" c_origin="4199,3444" c_rotation="0" c_mirror="" id="gge2412" locked="0" layerid="3" c_shapetype="group" ><path c_fontsize="4.5" c_fontfamily="" c_text="LED1" d="M 4199 3439.46 L 4199 3443.75 M 4199 3443.75 L 4201.45 3443.75 M 4202.8 3439.46 L 4202.8 3443.75 M 4202.8 3439.46 L 4205.46 3439.46 M 4202.8 3441.5 L 4204.44 3441.5 M 4202.8 3443.75 L 4205.46 3443.75 M 4206.81 3439.46 L 4206.81 3443.75 M 4206.81 3439.46 L 4208.25 3439.46 L 4208.86 3439.66 L 4209.27 3440.07 L 4209.47 3440.48 L 4209.68 3441.1 L 4209.68 3442.12 L 4209.47 3442.73 L 4209.27 3443.14 L 4208.86 3443.55 L 4208.25 3443.75 L 4206.81 3443.75 M 4211.03 3440.28 L 4211.44 3440.07 L 4212.05 3439.46 L 4212.05 3443.75" fill="none"  stroke-width="0.6" c_note="note_pre" /></g><g c_partid="part_pcbtext" c_etype="" c_origin="4214,3282.5" c_rotation="0" c_mirror="" id="gge3126" locked="0" layerid="3" c_shapetype="group" display="none"><path c_fontsize="4.5" c_fontfamily="" c_text="100" d="M 4214 3278.78 L 4214.41 3278.57 L 4215.02 3277.96 L 4215.02 3282.25 M 4217.6 3277.96 L 4216.99 3278.16 L 4216.58 3278.78 L 4216.37 3279.8 L 4216.37 3280.41 L 4216.58 3281.44 L 4216.99 3282.05 L 4217.6 3282.25 L 4218.01 3282.25 L 4218.62 3282.05 L 4219.03 3281.44 L 4219.24 3280.41 L 4219.24 3279.8 L 4219.03 3278.78 L 4218.62 3278.16 L 4218.01 3277.96 L 4217.6 3277.96 M 4221.81 3277.96 L 4221.2 3278.16 L 4220.79 3278.78 L 4220.59 3279.8 L 4220.59 3280.41 L 4220.79 3281.44 L 4221.2 3282.05 L 4221.81 3282.25 L 4222.22 3282.25 L 4222.84 3282.05 L 4223.25 3281.44 L 4223.45 3280.41 L 4223.45 3279.8 L 4223.25 3278.78 L 4222.84 3278.16 L 4222.22 3277.96 L 4221.81 3277.96" fill="none"  stroke-width="0.6" c_note="note_name" /></g><g c_partid="part_pcbtext" c_etype="" c_origin="4214,3289.5" c_rotation="0" c_mirror="" id="gge3132" locked="0" layerid="3" c_shapetype="group" ><path c_fontsize="4.5" c_fontfamily="" c_text="R1" d="M 4214 3284.96 L 4214 3289.25 M 4214 3284.96 L 4215.84 3284.96 L 4216.45 3285.16 L 4216.66 3285.37 L 4216.86 3285.78 L 4216.86 3286.19 L 4216.66 3286.6 L 4216.45 3286.8 L 4215.84 3287 L 4214 3287 M 4215.43 3287 L 4216.86 3289.25 M 4218.21 3285.78 L 4218.62 3285.57 L 4219.24 3284.96 L 4219.24 3289.25" fill="none"  stroke-width="0.6" c_note="note_pre" /></g><g c_partid="part_pcbtext" c_etype="" c_origin="4182.5,3359" c_rotation="270" c_mirror="" id="gge3321" locked="0" layerid="3" c_shapetype="group" display="none"><path c_fontsize="4.5" c_fontfamily="" c_text="1k" d="M 4186.22 3359 L 4186.43 3359.41 L 4187.04 3360.02 L 4182.75 3360.02 M 4187.04 3361.37 L 4182.75 3361.37 M 4185.61 3363.42 L 4183.56 3361.37 M 4184.38 3362.19 L 4182.75 3363.62" fill="none"  stroke-width="0.6" c_note="note_name" /></g><g c_partid="part_pcbtext" c_etype="" c_origin="4175.5,3359" c_rotation="270" c_mirror="" id="gge3327" locked="0" layerid="3" c_shapetype="group" ><path c_fontsize="4.5" c_fontfamily="" c_text="R5" d="M 4180.04 3359 L 4175.75 3359 M 4180.04 3359 L 4180.04 3360.84 L 4179.84 3361.45 L 4179.63 3361.66 L 4179.22 3361.86 L 4178.81 3361.86 L 4178.4 3361.66 L 4178.2 3361.45 L 4178 3360.84 L 4178 3359 M 4178 3360.43 L 4175.75 3361.86 M 4180.04 3365.67 L 4180.04 3363.62 L 4178.2 3363.42 L 4178.4 3363.62 L 4178.61 3364.24 L 4178.61 3364.85 L 4178.4 3365.46 L 4178 3365.87 L 4177.38 3366.08 L 4176.97 3366.08 L 4176.36 3365.87 L 4175.95 3365.46 L 4175.75 3364.85 L 4175.75 3364.24 L 4175.95 3363.62 L 4176.15 3363.42 L 4176.56 3363.21" fill="none"  stroke-width="0.6" c_note="note_pre" /></g><g c_partid="part_pcbtext" c_etype="" c_origin="4060.5,3301" c_rotation="90" c_mirror="" id="gge3450" locked="0" layerid="3" c_shapetype="group" display="none"><path c_fontsize="4.5" c_fontfamily="" c_text="1000u" d="M 4056.78 3301 L 4056.57 3300.59 L 4055.96 3299.98 L 4060.25 3299.98 M 4055.96 3297.4 L 4056.16 3298.01 L 4056.78 3298.42 L 4057.8 3298.63 L 4058.41 3298.63 L 4059.44 3298.42 L 4060.05 3298.01 L 4060.25 3297.4 L 4060.25 3296.99 L 4060.05 3296.38 L 4059.44 3295.97 L 4058.41 3295.76 L 4057.8 3295.76 L 4056.78 3295.97 L 4056.16 3296.38 L 4055.96 3296.99 L 4055.96 3297.4 M 4055.96 3293.19 L 4056.16 3293.8 L 4056.78 3294.21 L 4057.8 3294.41 L 4058.41 3294.41 L 4059.44 3294.21 L 4060.05 3293.8 L 4060.25 3293.19 L 4060.25 3292.78 L 4060.05 3292.16 L 4059.44 3291.75 L 4058.41 3291.55 L 4057.8 3291.55 L 4056.78 3291.75 L 4056.16 3292.16 L 4055.96 3292.78 L 4055.96 3293.19 M 4055.96 3288.97 L 4056.16 3289.59 L 4056.78 3290 L 4057.8 3290.2 L 4058.41 3290.2 L 4059.44 3290 L 4060.05 3289.59 L 4060.25 3288.97 L 4060.25 3288.56 L 4060.05 3287.95 L 4059.44 3287.54 L 4058.41 3287.34 L 4057.8 3287.34 L 4056.78 3287.54 L 4056.16 3287.95 L 4055.96 3288.56 L 4055.96 3288.97 M 4057.39 3285.99 L 4059.44 3285.99 L 4060.05 3285.78 L 4060.25 3285.37 L 4060.25 3284.76 L 4060.05 3284.35 L 4059.44 3283.74 M 4057.39 3283.74 L 4060.25 3283.74" fill="none"  stroke-width="0.6" c_note="note_name" /></g><g c_partid="part_pcbtext" c_etype="" c_origin="4067.5,3301" c_rotation="90" c_mirror="" id="gge3456" locked="0" layerid="3" c_shapetype="group" ><path c_fontsize="4.5" c_fontfamily="" c_text="C3" d="M 4063.98 3297.93 L 4063.57 3298.14 L 4063.16 3298.55 L 4062.96 3298.95 L 4062.96 3299.77 L 4063.16 3300.18 L 4063.57 3300.59 L 4063.98 3300.8 L 4064.6 3301 L 4065.62 3301 L 4066.23 3300.8 L 4066.64 3300.59 L 4067.05 3300.18 L 4067.25 3299.77 L 4067.25 3298.95 L 4067.05 3298.55 L 4066.64 3298.14 L 4066.23 3297.93 M 4062.96 3296.17 L 4062.96 3293.92 L 4064.6 3295.15 L 4064.6 3294.54 L 4064.8 3294.13 L 4065 3293.92 L 4065.62 3293.72 L 4066.03 3293.72 L 4066.64 3293.92 L 4067.05 3294.33 L 4067.25 3294.95 L 4067.25 3295.56 L 4067.05 3296.17 L 4066.85 3296.38 L 4066.44 3296.58" fill="none"  stroke-width="0.6" c_note="note_pre" /></g><g c_partid="part_pcbtext" c_etype="" c_origin="4224.5,3324" c_rotation="270" c_mirror="" id="gge3501" locked="0" layerid="3" c_shapetype="group" display="none"><path c_fontsize="4.5" c_fontfamily="" c_text="318u" d="M 4229.04 3324.41 L 4229.04 3326.66 L 4227.4 3325.43 L 4227.4 3326.05 L 4227.2 3326.45 L 4227 3326.66 L 4226.38 3326.86 L 4225.97 3326.86 L 4225.36 3326.66 L 4224.95 3326.25 L 4224.75 3325.64 L 4224.75 3325.02 L 4224.95 3324.41 L 4225.15 3324.2 L 4225.56 3324 M 4228.22 3328.21 L 4228.43 3328.62 L 4229.04 3329.24 L 4224.75 3329.24 M 4229.04 3331.61 L 4228.84 3331 L 4228.43 3330.79 L 4228.02 3330.79 L 4227.61 3331 L 4227.4 3331.4 L 4227.2 3332.22 L 4227 3332.84 L 4226.59 3333.25 L 4226.18 3333.45 L 4225.56 3333.45 L 4225.15 3333.25 L 4224.95 3333.04 L 4224.75 3332.43 L 4224.75 3331.61 L 4224.95 3331 L 4225.15 3330.79 L 4225.56 3330.59 L 4226.18 3330.59 L 4226.59 3330.79 L 4227 3331.2 L 4227.2 3331.81 L 4227.4 3332.63 L 4227.61 3333.04 L 4228.02 3333.25 L 4228.43 3333.25 L 4228.84 3333.04 L 4229.04 3332.43 L 4229.04 3331.61 M 4227.61 3334.8 L 4225.56 3334.8 L 4224.95 3335 L 4224.75 3335.41 L 4224.75 3336.03 L 4224.95 3336.44 L 4225.56 3337.05 M 4227.61 3337.05 L 4224.75 3337.05" fill="none"  stroke-width="0.6" c_note="note_name" /></g><g c_partid="part_pcbtext" c_etype="" c_origin="4217.5,3324" c_rotation="270" c_mirror="" id="gge3507" locked="0" layerid="3" c_shapetype="group" ><path c_fontsize="4.5" c_fontfamily="" c_text="C4" d="M 4221.02 3327.07 L 4221.43 3326.86 L 4221.84 3326.45 L 4222.04 3326.05 L 4222.04 3325.23 L 4221.84 3324.82 L 4221.43 3324.41 L 4221.02 3324.2 L 4220.4 3324 L 4219.38 3324 L 4218.77 3324.2 L 4218.36 3324.41 L 4217.95 3324.82 L 4217.75 3325.23 L 4217.75 3326.05 L 4217.95 3326.45 L 4218.36 3326.86 L 4218.77 3327.07 M 4222.04 3330.46 L 4219.18 3328.42 L 4219.18 3331.49 M 4222.04 3330.46 L 4217.75 3330.46" fill="none"  stroke-width="0.6" c_note="note_pre" /></g><path d="M 4142.9999 3089.0001 A 10 10 0 0 0 4162.9999 3089.0001" locked="0"  fill="none" stroke-width="3.937" c_helper_type="arc2" net="" layerid="3" id="gge1173" /><path d="M 4122.9999 3089.0001 A 10 10 0 0 0 4142.9999 3089.0001" locked="0"  fill="none" stroke-width="3.937" c_helper_type="arc2" net="" layerid="3" id="gge1176" /><path d="M 4102.9999 3089.0001 A 10 10 0 0 0 4122.9999 3089.0001" locked="0"  fill="none" stroke-width="3.937" c_helper_type="arc2" net="" layerid="3" id="gge1179" /><path d="M 4083 3089.0001 A 10 10 0 0 0 4103 3089.0001" locked="0"  fill="none" stroke-width="3.937" c_helper_type="arc2" net="" layerid="3" id="gge1182" /><path d="M 4063 3089.0001 A 10 10 0 0 0 4083 3089.0001" locked="0"  fill="none" stroke-width="3.937" c_helper_type="arc2" net="" layerid="3" id="gge1185" /><path d="M 4043.0001 3089.0001 A 10 10 0 0 0 4063.0001 3089.0001" locked="0"  fill="none" stroke-width="3.937" c_helper_type="arc2" net="" layerid="3" id="gge1188" /><path d="M 4023.0001 3089.0001 A 10 10 0 0 0 4043.0001 3089.0001" locked="0"  fill="none" stroke-width="3.937" c_helper_type="arc2" net="" layerid="3" id="gge1191" /><path d="M 4003.0001 3089.0001 A 10 10 0 0 0 4023.0001 3089.0001" locked="0"  fill="none" stroke-width="3.937" c_helper_type="arc2" net="" layerid="3" id="gge1194" /><path d="M 3983.0002 3089.0001 A 10 10 0 0 0 4003.0002 3089.0001" locked="0"  fill="none" stroke-width="3.937" c_helper_type="arc2" net="" layerid="3" id="gge1197" /><path d="M 4142.9999 3148.9999 A 10 10 0 0 0 4122.9999 3148.9999" locked="0"  fill="none" stroke-width="1" c_helper_type="arc2" net="" layerid="3" id="gge1200" /><path d="M 4122.9999 3148.9999 A 10 10 0 0 0 4102.9999 3148.9999" locked="0"  fill="none" stroke-width="1" c_helper_type="arc2" net="" layerid="3" id="gge1203" /><path d="M 4103 3148.9999 A 10 10 0 0 0 4083 3148.9999" locked="0"  fill="none" stroke-width="1" c_helper_type="arc2" net="" layerid="3" id="gge1206" /><path d="M 4083 3148.9999 A 10 10 0 0 0 4063 3148.9999" locked="0"  fill="none" stroke-width="1" c_helper_type="arc2" net="" layerid="3" id="gge1209" /><path d="M 4063.0001 3148.9999 A 10 10 0 0 0 4043.0001 3148.9999" locked="0"  fill="none" stroke-width="1" c_helper_type="arc2" net="" layerid="3" id="gge1212" /><path d="M 4043.0001 3148.9999 A 10 10 0 0 0 4023.0001 3148.9999" locked="0"  fill="none" stroke-width="1" c_helper_type="arc2" net="" layerid="3" id="gge1215" /><path d="M 4162.9998 3089.0001 A 10 10 0 0 0 4182.9998 3089.0001" locked="0"  fill="none" stroke-width="3.937" c_helper_type="arc2" net="" layerid="3" id="gge1218" /><path d="M 4211 3465.5 A 12.5 12.5 0 1 1 4211 3450.5" locked="0"  fill="none" stroke-width="1" c_helper_type="arc2" net="" layerid="3" id="gge2421" /><circle cx="4091.4844" cy="3353.5671" r="11.024" stroke-width="1" fill="none" layerid="3" id="gge1404" locked="0"  /><circle cx="4082.8224" cy="3481.9131" r="11.024" stroke-width="1" fill="none" layerid="3" id="gge1407" locked="0"  /><circle cx="4201" cy="3458" r="10" stroke-width="1" fill="none" layerid="3" id="gge2424" locked="0"  /><circle cx="4083.0469" cy="3249.96" r="314.96" stroke-width="1" fill="none" layerid="10" id="gge1644" locked="0"  net="" transformarc="circle_gge1647,circle_gge1650"/></svg>